999
dxfrw 0.5.11
0
SECTION
2
HEADER
9
$ACADVER
1
AC1021
9
$HANDSEED
5
20000
9
$DWGCODEPAGE
3
ANSI_1252
9
$INSBASE
10
0
20
0
30
0
9
$EXTMIN
10
0
20
0
30
0
9
$EXTMAX
10
32
20
16
30
0
9
$LIMMIN
10
0
20
0
9
$LIMMAX
10
420
20
297
9
$ORTHOMODE
70
0
9
$LTSCALE
40
1
9
$TEXTSTYLE
7
STANDARD
9
$CLAYER
8
camera_hole_dslr
9
$DIMASZ
40
0.1
9
$DIMLFAC
40
1
9
$DIMSCALE
40
1
9
$DIMEXO
40
0.025
9
$DIMEXE
40
0.05
9
$DIMTXT
40
0.1
9
$DIMTSZ
40
0
9
$DIMAUNIT
70
0
9
$DIMADEC
70
0
9
$DIMLUNIT
70
2
9
$DIMSTYLE
2
STANDARD
9
$DIMGAP
40
0.025
9
$DIMTIH
70
0
9
$LUNITS
70
2
9
$LUPREC
70
4
9
$AUNITS
70
0
9
$AUPREC
70
2
9
$SPLINESEGS
70
8
9
$GRIDMODE
70
1
9
$SNAPSTYLE
70
0
9
$PINSBASE
10
0
20
0
30
0
9
$PLIMMIN
10
0
20
0
9
$PLIMMAX
10
0.0128149862599
20
0.0181240519961
9
$INSUNITS
70
1
9
$PSVPSCALE
40
1
0
ENDSEC
0
SECTION
2
CLASSES
0
ENDSEC
0
SECTION
2
TABLES
0
TABLE
2
VPORT
5
8
330
0
100
AcDbSymbolTable
70
1
0
VPORT
5
31
330
2
100
AcDbSymbolTableRecord
100
AcDbViewportTableRecord
2
*ACTIVE
70
0
10
0
20
0
11
1
21
1
12
18.543704292
22
11.9396963956
13
0
23
0
14
10
24
10
15
10
25
10
16
0
26
0
36
1
17
0
27
0
37
0
40
30.5708709909
41
1.34191702432
42
50
43
0
44
0
50
0
51
0
71
0
72
100
73
1
74
3
75
0
76
1
77
0
78
0
281
0
65
1
110
0
120
0
130
0
111
1
121
0
131
0
112
0
122
1
132
0
79
0
146
0
348
10020
60
7
61
5
292
1
282
1
141
0
142
0
63
250
421
3358443
0
ENDTAB
0
TABLE
2
LTYPE
5
5
330
0
100
AcDbSymbolTable
70
4
0
LTYPE
5
14
330
5
100
AcDbSymbolTableRecord
100
AcDbLinetypeTableRecord
2
ByBlock
70
0
3

72
65
73
0
40
0
0
LTYPE
5
15
330
5
100
AcDbSymbolTableRecord
100
AcDbLinetypeTableRecord
2
ByLayer
70
0
3

72
65
73
0
40
0
0
LTYPE
5
16
330
5
100
AcDbSymbolTableRecord
100
AcDbLinetypeTableRecord
2
Continuous
70
0
3
Solid line
72
65
73
0
40
0
0
LTYPE
5
32
330
5
100
AcDbSymbolTableRecord
100
AcDbLinetypeTableRecord
2
DOT
70
0
3
Dot . . . . . . . . . . . . . . . . . . . . . .
72
65
73
2
40
6.35
49
0
74
0
49
-6.35
74
0
0
LTYPE
5
33
330
5
100
AcDbSymbolTableRecord
100
AcDbLinetypeTableRecord
2
DOT2
70
0
3
Dot (.5x) .....................................
72
65
73
2
40
3.175
49
0
74
0
49
-3.175
74
0
0
LTYPE
5
34
330
5
100
AcDbSymbolTableRecord
100
AcDbLinetypeTableRecord
2
DOTX2
70
0
3
Dot (2x) .  .  .  .  .  .  .  .  .  .  .  .  .
72
65
73
2
40
12.7
49
0
74
0
49
-12.7
74
0
0
LTYPE
5
35
330
5
100
AcDbSymbolTableRecord
100
AcDbLinetypeTableRecord
2
DASHED
70
0
3
Dot . . . . . . . . . . . . . . . . . . . . . .
72
65
73
2
40
19.05
49
12.7
74
0
49
-6.35
74
0
0
LTYPE
5
36
330
5
100
AcDbSymbolTableRecord
100
AcDbLinetypeTableRecord
2
DASHED2
70
0
3
Dashed (.5x) _ _ _ _ _ _ _ _ _ _ _ _ _ _ _ _ _
72
65
73
2
40
9.525
49
6.35
74
0
49
-3.175
74
0
0
LTYPE
5
37
330
5
100
AcDbSymbolTableRecord
100
AcDbLinetypeTableRecord
2
DASHEDX2
70
0
3
Dashed (2x) ____  ____  ____  ____  ____  ___
72
65
73
2
40
38.1
49
25.4
74
0
49
-12.7
74
0
0
LTYPE
5
38
330
5
100
AcDbSymbolTableRecord
100
AcDbLinetypeTableRecord
2
DASHDOT
70
0
3
Dash dot __ . __ . __ . __ . __ . __ . __ . __
72
65
73
4
40
25.4
49
12.7
74
0
49
-6.35
74
0
49
0
74
0
49
-6.35
74
0
0
LTYPE
5
39
330
5
100
AcDbSymbolTableRecord
100
AcDbLinetypeTableRecord
2
DASHDOT2
70
0
3
Dash dot (.5x) _._._._._._._._._._._._._._._.
72
65
73
4
40
12.7
49
6.35
74
0
49
-3.175
74
0
49
0
74
0
49
-3.175
74
0
0
LTYPE
5
3A
330
5
100
AcDbSymbolTableRecord
100
AcDbLinetypeTableRecord
2
DASHDOTX2
70
0
3
Dash dot (2x) ____  .  ____  .  ____  .  ___
72
65
73
4
40
50.8
49
25.4
74
0
49
-12.7
74
0
49
0
74
0
49
-12.7
74
0
0
LTYPE
5
3B
330
5
100
AcDbSymbolTableRecord
100
AcDbLinetypeTableRecord
2
DIVIDE
70
0
3
Divide ____ . . ____ . . ____ . . ____ . . ____
72
65
73
6
40
31.75
49
12.7
74
0
49
-6.35
74
0
49
0
74
0
49
-6.35
74
0
49
0
74
0
49
-6.35
74
0
0
LTYPE
5
3C
330
5
100
AcDbSymbolTableRecord
100
AcDbLinetypeTableRecord
2
DIVIDE2
70
0
3
Divide (.5x) __..__..__..__..__..__..__..__.._
72
65
73
6
40
15.875
49
6.35
74
0
49
-3.175
74
0
49
0
74
0
49
-3.175
74
0
49
0
74
0
49
-3.175
74
0
0
LTYPE
5
3D
330
5
100
AcDbSymbolTableRecord
100
AcDbLinetypeTableRecord
2
DIVIDEX2
70
0
3
Divide (2x) ________  .  .  ________  .  .  _
72
65
73
6
40
63.5
49
25.4
74
0
49
-12.7
74
0
49
0
74
0
49
-12.7
74
0
49
0
74
0
49
-12.7
74
0
0
LTYPE
5
3E
330
5
100
AcDbSymbolTableRecord
100
AcDbLinetypeTableRecord
2
BORDER
70
0
3
Border __ __ . __ __ . __ __ . __ __ . __ __ .
72
65
73
6
40
44.45
49
12.7
74
0
49
-6.35
74
0
49
12.7
74
0
49
-6.35
74
0
49
0
74
0
49
-6.35
74
0
0
LTYPE
5
3F
330
5
100
AcDbSymbolTableRecord
100
AcDbLinetypeTableRecord
2
BORDER2
70
0
3
Border (.5x) __.__.__.__.__.__.__.__.__.__.__.
72
65
73
6
40
22.225
49
6.35
74
0
49
-3.175
74
0
49
6.35
74
0
49
-3.175
74
0
49
0
74
0
49
-3.175
74
0
0
LTYPE
5
40
330
5
100
AcDbSymbolTableRecord
100
AcDbLinetypeTableRecord
2
BORDERX2
70
0
3
Border (2x) ____  ____  .  ____  ____  .  ___
72
65
73
6
40
88.9
49
25.4
74
0
49
-12.7
74
0
49
25.4
74
0
49
-12.7
74
0
49
0
74
0
49
-12.7
74
0
0
LTYPE
5
41
330
5
100
AcDbSymbolTableRecord
100
AcDbLinetypeTableRecord
2
CENTER
70
0
3
Center ____ _ ____ _ ____ _ ____ _ ____ _ ____
72
65
73
4
40
50.8
49
31.75
74
0
49
-6.35
74
0
49
6.35
74
0
49
-6.35
74
0
0
LTYPE
5
42
330
5
100
AcDbSymbolTableRecord
100
AcDbLinetypeTableRecord
2
CENTER2
70
0
3
Center (.5x) ___ _ ___ _ ___ _ ___ _ ___ _ ___
72
65
73
4
40
28.575
49
19.05
74
0
49
-3.175
74
0
49
3.175
74
0
49
-3.175
74
0
0
LTYPE
5
43
330
5
100
AcDbSymbolTableRecord
100
AcDbLinetypeTableRecord
2
CENTERX2
70
0
3
Center (2x) ________  __  ________  __  _____
72
65
73
4
40
101.6
49
63.5
74
0
49
-12.7
74
0
49
12.7
74
0
49
-12.7
74
0
0
ENDTAB
0
TABLE
2
LAYER
5
2
330
0
100
AcDbSymbolTable
70
1
0
LAYER
5
10
330
2
100
AcDbSymbolTableRecord
100
AcDbLayerTableRecord
2
0
70
0
62
7
6
CONTINUOUS
370
0
390
F
0
LAYER
5
44
330
2
100
AcDbSymbolTableRecord
100
AcDbLayerTableRecord
2
6-32_insert_hole
70
0
62
136
420
32896
6
CONTINUOUS
370
0
390
F
0
LAYER
5
45
330
2
100
AcDbSymbolTableRecord
100
AcDbLayerTableRecord
2
6-32_insert_hole_tmp
70
0
62
96
420
32768
6
CONTINUOUS
370
0
390
F
0
LAYER
5
46
330
2
100
AcDbSymbolTableRecord
100
AcDbLayerTableRecord
2
6-32_through_hole
70
0
62
3
6
CONTINUOUS
370
0
390
F
0
LAYER
5
47
330
2
100
AcDbSymbolTableRecord
100
AcDbLayerTableRecord
2
8-32_insert_hole
70
0
62
6
6
CONTINUOUS
370
0
390
F
0
LAYER
5
48
330
2
100
AcDbSymbolTableRecord
100
AcDbLayerTableRecord
2
8-32_insert_hole_tmp
70
0
62
216
420
8388736
6
CONTINUOUS
370
0
390
F
0
LAYER
5
49
330
2
100
AcDbSymbolTableRecord
100
AcDbLayerTableRecord
2
8-32_through_hole
70
0
62
6
6
CONTINUOUS
370
0
390
F
0
LAYER
5
4A
330
2
100
AcDbSymbolTableRecord
100
AcDbLayerTableRecord
2
boundary
70
0
62
5
6
CONTINUOUS
370
0
390
F
0
LAYER
5
4B
330
2
100
AcDbSymbolTableRecord
100
AcDbLayerTableRecord
2
camera_hole_dslr
70
0
62
4
6
CONTINUOUS
370
0
390
F
0
LAYER
5
4C
330
2
100
AcDbSymbolTableRecord
100
AcDbLayerTableRecord
2
camera_hole_phone
70
0
62
40
420
16755200
6
CONTINUOUS
370
0
390
F
0
LAYER
5
4D
330
2
100
AcDbSymbolTableRecord
100
AcDbLayerTableRecord
2
dimensions
70
0
62
8
6
CONTINUOUS
370
0
390
F
0
LAYER
5
4E
330
2
100
AcDbSymbolTableRecord
100
AcDbLayerTableRecord
2
material
70
0
62
136
420
32896
6
CONTINUOUS
370
0
390
F
0
LAYER
5
4F
330
2
100
AcDbSymbolTableRecord
100
AcDbLayerTableRecord
2
scratch
70
0
62
7
6
CONTINUOUS
370
0
390
F
0
LAYER
5
50
330
2
100
AcDbSymbolTableRecord
100
AcDbLayerTableRecord
2
tool
70
0
62
253
420
10526884
6
CONTINUOUS
370
0
390
F
0
ENDTAB
0
TABLE
2
STYLE
5
3
330
0
100
AcDbSymbolTable
70
3
0
STYLE
5
51
330
2
100
AcDbSymbolTableRecord
100
AcDbTextStyleTableRecord
2
Standard
70
0
40
0
41
1
50
0
71
0
42
1
3
txt
4

0
ENDTAB
0
TABLE
2
VIEW
5
6
330
0
100
AcDbSymbolTable
70
0
0
ENDTAB
0
TABLE
2
UCS
5
7
330
0
100
AcDbSymbolTable
70
0
0
ENDTAB
0
TABLE
2
APPID
5
9
330
0
100
AcDbSymbolTable
70
1
0
APPID
5
12
330
9
100
AcDbSymbolTableRecord
100
AcDbRegAppTableRecord
2
ACAD
70
0
0
ENDTAB
0
TABLE
2
DIMSTYLE
5
A
330
0
100
AcDbSymbolTable
70
1
100
AcDbDimStyleTable
71
1
0
DIMSTYLE
105
52
330
A
100
AcDbSymbolTableRecord
100
AcDbDimStyleTableRecord
2
Standard
70
0
40
1
41
0.1
42
0.025
43
0.38
44
0.05
45
0
46
0
47
0
48
0
140
0.1
141
0.09
142
0
143
25.4
144
1
145
0
146
1
147
0.025
148
0
71
0
72
0
73
0
74
1
75
0
76
0
77
0
78
0
79
0
170
0
171
2
172
0
173
0
174
0
175
0
176
0
177
0
178
0
179
0
271
4
272
4
273
2
274
2
275
0
276
0
277
2
278
46
279
0
280
0
281
0
282
0
283
1
284
0
285
0
286
0
288
0
289
3
340
Standard
341

371
-2
372
-2
0
ENDTAB
0
TABLE
2
BLOCK_RECORD
5
1
330
0
100
AcDbSymbolTable
70
2
0
BLOCK_RECORD
5
1F
330
1
100
AcDbSymbolTableRecord
100
AcDbBlockTableRecord
2
*Model_Space
70
0
280
1
281
0
0
BLOCK_RECORD
5
1E
330
1
100
AcDbSymbolTableRecord
100
AcDbBlockTableRecord
2
*Paper_Space
70
0
280
1
281
0
0
ENDTAB
0
ENDSEC
0
SECTION
2
BLOCKS
0
BLOCK
5
20
330
1F
100
AcDbEntity
8
0
100
AcDbBlockBegin
2
*Model_Space
70
0
10
0
20
0
30
0
3
*Model_Space
1

0
ENDBLK
5
21
330
1F
100
AcDbEntity
8
0
100
AcDbBlockEnd
0
BLOCK
5
1C
330
1B
100
AcDbEntity
8
0
100
AcDbBlockBegin
2
*Paper_Space
70
0
10
0
20
0
30
0
3
*Paper_Space
1

0
ENDBLK
5
1D
330
1F
100
AcDbEntity
8
0
100
AcDbBlockEnd
0
ENDSEC
0
SECTION
2
ENTITIES
0
LINE
5
53
100
AcDbEntity
8
material
6
ByLayer
62
256
370
-1
100
AcDbLine
10
0
20
0
11
32
21
0
0
LINE
5
54
100
AcDbEntity
8
material
6
ByLayer
62
256
370
-1
100
AcDbLine
10
32
20
0
11
32
21
16
0
LINE
5
55
100
AcDbEntity
8
material
6
ByLayer
62
256
370
-1
100
AcDbLine
10
32
20
16
11
0
21
16
0
LINE
5
56
100
AcDbEntity
8
material
6
ByLayer
62
256
370
-1
100
AcDbLine
10
0
20
16
11
0
21
0
0
CIRCLE
5
57
100
AcDbEntity
8
tool
6
ByLayer
62
256
370
-1
100
AcDbCircle
10
21.73
20
12.49
40
0.125
0
CIRCLE
5
58
100
AcDbEntity
8
tool
6
ByLayer
62
256
370
-1
100
AcDbCircle
10
21.73
20
2
40
0.125
0
LINE
5
59
100
AcDbEntity
8
scratch
6
ByLayer
62
256
370
-1
100
AcDbLine
10
1.2625
20
1.7
11
1.2625
21
2.325
0
LINE
5
5A
100
AcDbEntity
8
scratch
6
ByLayer
62
256
370
-1
100
AcDbLine
10
5.4625
20
1.7
11
5.4625
21
2.325
0
LINE
5
5B
100
AcDbEntity
8
scratch
6
ByLayer
62
256
370
-1
100
AcDbLine
10
1.2625
20
2.325
11
1.2625
21
3.325
0
LINE
5
5C
100
AcDbEntity
8
scratch
6
ByLayer
62
256
370
-1
100
AcDbLine
10
5.4625
20
2.325
11
5.4625
21
3.325
0
CIRCLE
5
5D
100
AcDbEntity
8
8-32_insert_hole
6
ByLayer
62
256
370
-1
100
AcDbCircle
10
1.2625
20
2.325
40
0.1155
0
CIRCLE
5
5E
100
AcDbEntity
8
8-32_insert_hole
6
ByLayer
62
256
370
-1
100
AcDbCircle
10
1.2625
20
3.325
40
0.1155
0
CIRCLE
5
5F
100
AcDbEntity
8
8-32_insert_hole
6
ByLayer
62
256
370
-1
100
AcDbCircle
10
5.4625
20
2.325
40
0.1155
0
CIRCLE
5
60
100
AcDbEntity
8
8-32_insert_hole
6
ByLayer
62
256
370
-1
100
AcDbCircle
10
5.4625
20
3.325
40
0.1155
0
LINE
5
61
100
AcDbEntity
8
boundary
6
ByLayer
62
256
370
-1
100
AcDbLine
10
3.4955
20
3.2
11
3.2295
21
3.2
0
ARC
5
62
100
AcDbEntity
8
boundary
6
ByLayer
62
256
370
-1
100
AcDbCircle
10
0.925
20
6.6375
40
0.0625
100
AcDbArc
50
90
51
180
0
LINE
5
63
100
AcDbEntity
8
boundary
6
ByLayer
62
256
370
-1
100
AcDbLine
10
0.925
20
6.7
11
3.167
21
6.7
0
LINE
5
64
100
AcDbEntity
8
boundary
6
ByLayer
62
256
370
-1
100
AcDbLine
10
3.2295
20
3.2
11
3.2295
21
6.6375
0
ARC
5
65
100
AcDbEntity
8
boundary
6
ByLayer
62
256
370
-1
100
AcDbCircle
10
3.167
20
6.6375
40
0.0625
100
AcDbArc
50
0
51
90
0
LINE
5
66
100
AcDbEntity
8
boundary
6
ByLayer
62
256
370
-1
100
AcDbLine
10
3.4955
20
6.6375
11
3.4955
21
3.2
0
ARC
5
67
100
AcDbEntity
8
boundary
6
ByLayer
62
256
370
-1
100
AcDbCircle
10
3.558
20
6.6375
40
0.0625
100
AcDbArc
50
90
51
180
0
LINE
5
68
100
AcDbEntity
8
boundary
6
ByLayer
62
256
370
-1
100
AcDbLine
10
3.558
20
6.7
11
5.8
21
6.7
0
ARC
5
69
100
AcDbEntity
8
boundary
6
ByLayer
62
256
370
-1
100
AcDbCircle
10
5.8
20
6.6375
40
0.0625
100
AcDbArc
50
0
51
90
0
LINE
5
6A
100
AcDbEntity
8
scratch
6
ByLayer
62
256
370
-1
100
AcDbLine
10
5.8
20
1.7
11
5.4625
21
1.7
0
LINE
5
6B
100
AcDbEntity
8
boundary
6
ByLayer
62
256
370
-1
100
AcDbLine
10
5.8625
20
1.7625
11
5.8625
21
6.6375
0
ARC
5
6C
100
AcDbEntity
8
boundary
6
ByLayer
62
256
370
-1
100
AcDbCircle
10
5.8
20
1.7625
40
0.0625
100
AcDbArc
50
270
51
0
0
LINE
5
6D
100
AcDbEntity
8
boundary
6
ByLayer
62
256
370
-1
100
AcDbLine
10
0.8625
20
1.7625
11
0.8625
21
6.6375
0
LINE
5
6E
100
AcDbEntity
8
scratch
6
ByLayer
62
256
370
-1
100
AcDbLine
10
0.925
20
1.7
11
1.2625
21
1.7
0
ARC
5
6F
100
AcDbEntity
8
boundary
6
ByLayer
62
256
370
-1
100
AcDbCircle
10
0.925
20
1.7625
40
0.0625
100
AcDbArc
50
180
51
270
0
LINE
5
70
100
AcDbEntity
8
boundary
6
ByLayer
62
256
370
-1
100
AcDbLine
10
0.925
20
1.7
11
5.8
21
1.7
0
CIRCLE
5
71
100
AcDbEntity
8
tool
6
ByLayer
62
256
370
-1
100
AcDbCircle
10
5.9869204394
20
5.19085033895
40
0.125
0
LINE
5
72
100
AcDbEntity
8
scratch
6
ByLayer
62
256
370
-1
100
AcDbLine
10
6.6625
20
1.7
11
6.6625
21
2.325
0
LINE
5
73
100
AcDbEntity
8
scratch
6
ByLayer
62
256
370
-1
100
AcDbLine
10
10.8625
20
1.7
11
10.8625
21
2.325
0
LINE
5
74
100
AcDbEntity
8
scratch
6
ByLayer
62
256
370
-1
100
AcDbLine
10
6.6625
20
2.325
11
6.6625
21
3.325
0
LINE
5
75
100
AcDbEntity
8
scratch
6
ByLayer
62
256
370
-1
100
AcDbLine
10
10.8625
20
2.325
11
10.8625
21
3.325
0
CIRCLE
5
76
100
AcDbEntity
8
8-32_insert_hole
6
ByLayer
62
256
370
-1
100
AcDbCircle
10
6.6625
20
2.325
40
0.1155
0
CIRCLE
5
77
100
AcDbEntity
8
8-32_insert_hole
6
ByLayer
62
256
370
-1
100
AcDbCircle
10
6.6625
20
3.325
40
0.1155
0
CIRCLE
5
78
100
AcDbEntity
8
8-32_insert_hole
6
ByLayer
62
256
370
-1
100
AcDbCircle
10
10.8625
20
2.325
40
0.1155
0
LINE
5
79
100
AcDbEntity
8
boundary
6
ByLayer
62
256
370
-1
100
AcDbLine
10
8.8955
20
3.2
11
8.6295
21
3.2
0
ARC
5
7A
100
AcDbEntity
8
boundary
6
ByLayer
62
256
370
-1
100
AcDbCircle
10
6.325
20
6.6375
40
0.0625
100
AcDbArc
50
90
51
180
0
LINE
5
7B
100
AcDbEntity
8
boundary
6
ByLayer
62
256
370
-1
100
AcDbLine
10
6.325
20
6.7
11
8.567
21
6.7
0
LINE
5
7C
100
AcDbEntity
8
boundary
6
ByLayer
62
256
370
-1
100
AcDbLine
10
8.6295
20
3.2
11
8.6295
21
6.6375
0
ARC
5
7D
100
AcDbEntity
8
boundary
6
ByLayer
62
256
370
-1
100
AcDbCircle
10
8.567
20
6.6375
40
0.0625
100
AcDbArc
50
0
51
90
0
LINE
5
7E
100
AcDbEntity
8
boundary
6
ByLayer
62
256
370
-1
100
AcDbLine
10
8.8955
20
6.6375
11
8.8955
21
3.2
0
ARC
5
7F
100
AcDbEntity
8
boundary
6
ByLayer
62
256
370
-1
100
AcDbCircle
10
8.958
20
6.6375
40
0.0625
100
AcDbArc
50
90
51
180
0
LINE
5
80
100
AcDbEntity
8
boundary
6
ByLayer
62
256
370
-1
100
AcDbLine
10
8.958
20
6.7
11
11.2
21
6.7
0
ARC
5
81
100
AcDbEntity
8
boundary
6
ByLayer
62
256
370
-1
100
AcDbCircle
10
11.2
20
6.6375
40
0.0625
100
AcDbArc
50
0
51
90
0
LINE
5
82
100
AcDbEntity
8
scratch
6
ByLayer
62
256
370
-1
100
AcDbLine
10
11.2
20
1.7
11
10.8625
21
1.7
0
LINE
5
83
100
AcDbEntity
8
boundary
6
ByLayer
62
256
370
-1
100
AcDbLine
10
11.2625
20
1.7625
11
11.2625
21
6.6375
0
ARC
5
84
100
AcDbEntity
8
boundary
6
ByLayer
62
256
370
-1
100
AcDbCircle
10
11.2
20
1.7625
40
0.0625
100
AcDbArc
50
270
51
0
0
LINE
5
85
100
AcDbEntity
8
boundary
6
ByLayer
62
256
370
-1
100
AcDbLine
10
6.2625
20
1.7625
11
6.2625
21
6.6375
0
LINE
5
86
100
AcDbEntity
8
scratch
6
ByLayer
62
256
370
-1
100
AcDbLine
10
6.325
20
1.7
11
6.6625
21
1.7
0
ARC
5
87
100
AcDbEntity
8
boundary
6
ByLayer
62
256
370
-1
100
AcDbCircle
10
6.325
20
1.7625
40
0.0625
100
AcDbArc
50
180
51
270
0
LINE
5
88
100
AcDbEntity
8
boundary
6
ByLayer
62
256
370
-1
100
AcDbLine
10
6.325
20
1.7
11
11.2
21
1.7
0
LINE
5
89
100
AcDbEntity
8
8-32_insert_hole
6
ByLayer
62
256
370
-1
100
AcDbLine
10
1.3625
20
7.3
11
1.3625
21
7.925
0
LINE
5
8A
100
AcDbEntity
8
8-32_insert_hole
6
ByLayer
62
256
370
-1
100
AcDbLine
10
5.5625
20
7.3
11
5.5625
21
7.925
0
LINE
5
8B
100
AcDbEntity
8
scratch
6
ByLayer
62
256
370
-1
100
AcDbLine
10
1.3625
20
7.925
11
1.3625
21
8.925
0
LINE
5
8C
100
AcDbEntity
8
scratch
6
ByLayer
62
256
370
-1
100
AcDbLine
10
5.5625
20
7.925
11
5.5625
21
8.925
0
LINE
5
8D
100
AcDbEntity
8
boundary
6
ByLayer
62
256
370
-1
100
AcDbLine
10
3.5955
20
8.8
11
3.3295
21
8.8
0
ARC
5
8E
100
AcDbEntity
8
boundary
6
ByLayer
62
256
370
-1
100
AcDbCircle
10
1.025
20
12.2375
40
0.0625
100
AcDbArc
50
90
51
180
0
LINE
5
8F
100
AcDbEntity
8
boundary
6
ByLayer
62
256
370
-1
100
AcDbLine
10
1.025
20
12.3
11
3.267
21
12.3
0
LINE
5
90
100
AcDbEntity
8
boundary
6
ByLayer
62
256
370
-1
100
AcDbLine
10
3.3295
20
8.8
11
3.3295
21
12.2375
0
ARC
5
91
100
AcDbEntity
8
boundary
6
ByLayer
62
256
370
-1
100
AcDbCircle
10
3.267
20
12.2375
40
0.0625
100
AcDbArc
50
0
51
90
0
LINE
5
92
100
AcDbEntity
8
boundary
6
ByLayer
62
256
370
-1
100
AcDbLine
10
3.5955
20
12.2375
11
3.5955
21
8.8
0
ARC
5
93
100
AcDbEntity
8
boundary
6
ByLayer
62
256
370
-1
100
AcDbCircle
10
3.658
20
12.2375
40
0.0625
100
AcDbArc
50
90
51
180
0
LINE
5
94
100
AcDbEntity
8
boundary
6
ByLayer
62
256
370
-1
100
AcDbLine
10
3.658
20
12.3
11
5.9
21
12.3
0
ARC
5
95
100
AcDbEntity
8
boundary
6
ByLayer
62
256
370
-1
100
AcDbCircle
10
5.9
20
12.2375
40
0.0625
100
AcDbArc
50
0
51
90
0
LINE
5
96
100
AcDbEntity
8
scratch
6
ByLayer
62
256
370
-1
100
AcDbLine
10
5.9
20
7.3
11
5.5625
21
7.3
0
LINE
5
97
100
AcDbEntity
8
boundary
6
ByLayer
62
256
370
-1
100
AcDbLine
10
5.9625
20
7.3625
11
5.9625
21
12.2375
0
ARC
5
98
100
AcDbEntity
8
boundary
6
ByLayer
62
256
370
-1
100
AcDbCircle
10
5.9
20
7.3625
40
0.0625
100
AcDbArc
50
270
51
0
0
LINE
5
99
100
AcDbEntity
8
boundary
6
ByLayer
62
256
370
-1
100
AcDbLine
10
0.9625
20
7.3625
11
0.9625
21
12.2375
0
LINE
5
9A
100
AcDbEntity
8
scratch
6
ByLayer
62
256
370
-1
100
AcDbLine
10
1.025
20
7.3
11
1.3625
21
7.3
0
ARC
5
9B
100
AcDbEntity
8
boundary
6
ByLayer
62
256
370
-1
100
AcDbCircle
10
1.025
20
7.3625
40
0.0625
100
AcDbArc
50
180
51
270
0
LINE
5
9C
100
AcDbEntity
8
boundary
6
ByLayer
62
256
370
-1
100
AcDbLine
10
1.025
20
7.3
11
5.9
21
7.3
0
CIRCLE
5
9D
100
AcDbEntity
8
tool
6
ByLayer
62
256
370
-1
100
AcDbCircle
10
6.0869204394
20
10.790850339
40
0.125
0
LINE
5
9E
100
AcDbEntity
8
scratch
6
ByLayer
62
256
370
-1
100
AcDbLine
10
6.7625
20
7.3
11
6.7625
21
7.925
0
LINE
5
9F
100
AcDbEntity
8
scratch
6
ByLayer
62
256
370
-1
100
AcDbLine
10
10.9625
20
7.3
11
10.9625
21
7.925
0
LINE
5
A0
100
AcDbEntity
8
scratch
6
ByLayer
62
256
370
-1
100
AcDbLine
10
6.7625
20
7.925
11
6.7625
21
8.925
0
LINE
5
A1
100
AcDbEntity
8
scratch
6
ByLayer
62
256
370
-1
100
AcDbLine
10
10.9625
20
7.925
11
10.9625
21
8.925
0
LINE
5
A2
100
AcDbEntity
8
boundary
6
ByLayer
62
256
370
-1
100
AcDbLine
10
8.9955
20
8.8
11
8.7295
21
8.8
0
ARC
5
A3
100
AcDbEntity
8
boundary
6
ByLayer
62
256
370
-1
100
AcDbCircle
10
6.425
20
12.2375
40
0.0625
100
AcDbArc
50
90
51
180
0
LINE
5
A4
100
AcDbEntity
8
boundary
6
ByLayer
62
256
370
-1
100
AcDbLine
10
6.425
20
12.3
11
8.667
21
12.3
0
LINE
5
A5
100
AcDbEntity
8
boundary
6
ByLayer
62
256
370
-1
100
AcDbLine
10
8.7295
20
8.8
11
8.7295
21
12.2375
0
ARC
5
A6
100
AcDbEntity
8
boundary
6
ByLayer
62
256
370
-1
100
AcDbCircle
10
8.667
20
12.2375
40
0.0625
100
AcDbArc
50
0
51
90
0
LINE
5
A7
100
AcDbEntity
8
boundary
6
ByLayer
62
256
370
-1
100
AcDbLine
10
8.9955
20
12.2375
11
8.9955
21
8.8
0
ARC
5
A8
100
AcDbEntity
8
boundary
6
ByLayer
62
256
370
-1
100
AcDbCircle
10
9.058
20
12.2375
40
0.0625
100
AcDbArc
50
90
51
180
0
LINE
5
A9
100
AcDbEntity
8
boundary
6
ByLayer
62
256
370
-1
100
AcDbLine
10
9.058
20
12.3
11
11.3
21
12.3
0
ARC
5
AA
100
AcDbEntity
8
boundary
6
ByLayer
62
256
370
-1
100
AcDbCircle
10
11.3
20
12.2375
40
0.0625
100
AcDbArc
50
0
51
90
0
LINE
5
AB
100
AcDbEntity
8
scratch
6
ByLayer
62
256
370
-1
100
AcDbLine
10
11.3
20
7.3
11
10.9625
21
7.3
0
LINE
5
AC
100
AcDbEntity
8
boundary
6
ByLayer
62
256
370
-1
100
AcDbLine
10
11.3625
20
7.3625
11
11.3625
21
12.2375
0
ARC
5
AD
100
AcDbEntity
8
boundary
6
ByLayer
62
256
370
-1
100
AcDbCircle
10
11.3
20
7.3625
40
0.0625
100
AcDbArc
50
270
51
0
0
LINE
5
AE
100
AcDbEntity
8
boundary
6
ByLayer
62
256
370
-1
100
AcDbLine
10
6.3625
20
7.3625
11
6.3625
21
12.2375
0
LINE
5
AF
100
AcDbEntity
8
scratch
6
ByLayer
62
256
370
-1
100
AcDbLine
10
6.425
20
7.3
11
6.7625
21
7.3
0
ARC
5
B0
100
AcDbEntity
8
boundary
6
ByLayer
62
256
370
-1
100
AcDbCircle
10
6.425
20
7.3625
40
0.0625
100
AcDbArc
50
180
51
270
0
LINE
5
B1
100
AcDbEntity
8
boundary
6
ByLayer
62
256
370
-1
100
AcDbLine
10
6.425
20
7.3
11
11.3
21
7.3
0
CIRCLE
5
B2
100
AcDbEntity
8
tool
6
ByLayer
62
256
370
-1
100
AcDbCircle
10
11.7925
20
12.49
40
0.125
0
CIRCLE
5
B3
100
AcDbEntity
8
tool
6
ByLayer
62
256
370
-1
100
AcDbCircle
10
11.7925
20
2
40
0.125
0
LINE
5
B4
100
AcDbEntity
8
scratch
6
ByLayer
62
256
370
-1
100
AcDbLine
10
16.8125
20
14.2
11
16.8125
21
14.2
0
LINE
5
B5
100
AcDbEntity
8
scratch
6
ByLayer
62
256
370
-1
100
AcDbLine
10
16.8125
20
1.7
11
16.8125
21
1.7
0
LINE
5
B6
100
AcDbEntity
8
scratch
6
ByLayer
62
256
370
-1
100
AcDbLine
10
12.3125
20
4.95
11
12.7245
21
4.95
0
LINE
5
B7
100
AcDbEntity
8
scratch
6
ByLayer
62
256
370
-1
100
AcDbLine
10
12.3125
20
10.95
11
12.7245
21
10.95
0
ARC
5
B8
100
AcDbEntity
8
boundary
6
ByLayer
62
256
370
-1
100
AcDbCircle
10
12.125
20
1.7625
40
0.0625
100
AcDbArc
50
180
51
270
0
LINE
5
B9
100
AcDbEntity
8
boundary
6
ByLayer
62
256
370
-1
100
AcDbLine
10
12.0625
20
14.1375
11
12.0625
21
1.7625
0
ARC
5
BA
100
AcDbEntity
8
boundary
6
ByLayer
62
256
370
-1
100
AcDbCircle
10
12.125
20
14.1375
40
0.0625
100
AcDbArc
50
90
51
180
0
LINE
5
BB
100
AcDbEntity
8
scratch
6
ByLayer
62
256
370
-1
100
AcDbLine
10
21.3125
20
2.45
11
20.9005
21
2.45
0
ARC
5
BC
100
AcDbEntity
8
boundary
6
ByLayer
62
256
370
-1
100
AcDbCircle
10
21.5
20
14.1375
40
0.0625
100
AcDbArc
50
360
51
90
0
LINE
5
BD
100
AcDbEntity
8
boundary
6
ByLayer
62
256
370
-1
100
AcDbLine
10
21.5625
20
1.7625
11
21.5625
21
14.1375
0
ARC
5
BE
100
AcDbEntity
8
boundary
6
ByLayer
62
256
370
-1
100
AcDbCircle
10
21.5
20
1.7625
40
0.0625
100
AcDbArc
50
270
51
360
0
LINE
5
BF
100
AcDbEntity
8
scratch
6
ByLayer
62
256
370
-1
100
AcDbLine
10
14.5625
20
1.95
11
14.5625
21
2.362
0
LINE
5
C0
100
AcDbEntity
8
scratch
6
ByLayer
62
256
370
-1
100
AcDbLine
10
14.5625
20
13.95
11
14.5625
21
13.538
0
LINE
5
C1
100
AcDbEntity
8
scratch
6
ByLayer
62
256
370
-1
100
AcDbLine
10
19.0625
20
1.95
11
19.0625
21
2.362
0
LINE
5
C2
100
AcDbEntity
8
scratch
6
ByLayer
62
256
370
-1
100
AcDbLine
10
19.0625
20
13.95
11
19.0625
21
13.538
0
LINE
5
C3
100
AcDbEntity
8
boundary
6
ByLayer
62
256
370
-1
100
AcDbLine
10
12.125
20
1.7
11
21.5
21
1.7
0
LINE
5
C4
100
AcDbEntity
8
boundary
6
ByLayer
62
256
370
-1
100
AcDbLine
10
12.125
20
14.2
11
21.5
21
14.2
0
CIRCLE
5
C5
100
AcDbEntity
8
camera_hole_dslr
6
ByLayer
62
256
370
-1
100
AcDbCircle
10
16.8125
20
7.95
40
1.45
0
CIRCLE
5
C6
100
AcDbEntity
8
6-32_through_hole
6
ByLayer
62
256
370
-1
100
AcDbCircle
10
20.9005
20
2.45
40
0.074
0
CIRCLE
5
C7
100
AcDbEntity
8
6-32_through_hole
6
ByLayer
62
256
370
-1
100
AcDbCircle
10
19.0625
20
2.362
40
0.074
0
CIRCLE
5
C8
100
AcDbEntity
8
6-32_through_hole
6
ByLayer
62
256
370
-1
100
AcDbCircle
10
19.0625
20
13.538
40
0.074
0
CIRCLE
5
C9
100
AcDbEntity
8
6-32_through_hole
6
ByLayer
62
256
370
-1
100
AcDbCircle
10
14.5625
20
13.538
40
0.074
0
CIRCLE
5
CA
100
AcDbEntity
8
6-32_through_hole
6
ByLayer
62
256
370
-1
100
AcDbCircle
10
12.7245
20
10.95
40
0.074
0
CIRCLE
5
CB
100
AcDbEntity
8
6-32_through_hole
6
ByLayer
62
256
370
-1
100
AcDbCircle
10
12.7245
20
4.95
40
0.074
0
CIRCLE
5
CC
100
AcDbEntity
8
6-32_through_hole
6
ByLayer
62
256
370
-1
100
AcDbCircle
10
14.5625
20
2.362
40
0.074
0
CIRCLE
5
CD
100
AcDbEntity
8
6-32_through_hole
6
ByLayer
62
256
370
-1
100
AcDbCircle
10
16.7625
20
8.7
40
0.074
0
CIRCLE
5
CE
100
AcDbEntity
8
6-32_through_hole
6
ByLayer
62
256
370
-1
100
AcDbCircle
10
16.1625
20
7.7
40
0.074
0
CIRCLE
5
CF
100
AcDbEntity
8
6-32_through_hole
6
ByLayer
62
256
370
-1
100
AcDbCircle
10
17.3625
20
7.6
40
0.074
0
CIRCLE
5
D0
100
AcDbEntity
8
8-32_insert_hole
6
ByLayer
62
256
370
-1
100
AcDbCircle
10
10.8625
20
3.325
40
0.1155
0
CIRCLE
5
D1
100
AcDbEntity
8
8-32_insert_hole
6
ByLayer
62
256
370
-1
100
AcDbCircle
10
1.3625
20
7.925
40
0.1155
0
CIRCLE
5
D2
100
AcDbEntity
8
8-32_insert_hole
6
ByLayer
62
256
370
-1
100
AcDbCircle
10
1.3625
20
8.925
40
0.1155
0
CIRCLE
5
D3
100
AcDbEntity
8
8-32_insert_hole
6
ByLayer
62
256
370
-1
100
AcDbCircle
10
5.5625
20
7.925
40
0.1155
0
CIRCLE
5
D4
100
AcDbEntity
8
8-32_insert_hole
6
ByLayer
62
256
370
-1
100
AcDbCircle
10
5.5625
20
8.925
40
0.1155
0
CIRCLE
5
D5
100
AcDbEntity
8
8-32_insert_hole
6
ByLayer
62
256
370
-1
100
AcDbCircle
10
6.7625
20
7.925
40
0.1155
0
CIRCLE
5
D6
100
AcDbEntity
8
8-32_insert_hole
6
ByLayer
62
256
370
-1
100
AcDbCircle
10
6.7625
20
8.925
40
0.1155
0
CIRCLE
5
D7
100
AcDbEntity
8
8-32_insert_hole
6
ByLayer
62
256
370
-1
100
AcDbCircle
10
10.9625
20
7.925
40
0.1155
0
CIRCLE
5
D8
100
AcDbEntity
8
8-32_insert_hole
6
ByLayer
62
256
370
-1
100
AcDbCircle
10
10.9625
20
8.925
40
0.1155
0
CIRCLE
5
D9
100
AcDbEntity
8
6-32_insert_hole
6
ByLayer
62
256
370
-1
100
AcDbCircle
10
17.8125
20
5.45
40
0.102
0
CIRCLE
5
DA
100
AcDbEntity
8
6-32_insert_hole
6
ByLayer
62
256
370
-1
100
AcDbCircle
10
15.8125
20
5.45
40
0.102
0
CIRCLE
5
DB
100
AcDbEntity
8
6-32_insert_hole
6
ByLayer
62
256
370
-1
100
AcDbCircle
10
15.8125
20
10.45
40
0.102
0
CIRCLE
5
DC
100
AcDbEntity
8
6-32_insert_hole
6
ByLayer
62
256
370
-1
100
AcDbCircle
10
17.8125
20
10.45
40
0.102
0
CIRCLE
5
DD
100
AcDbEntity
8
8-32_insert_hole
6
ByLayer
62
256
370
-1
100
AcDbCircle
10
19.3225
20
5.85
40
0.1155
0
CIRCLE
5
DE
100
AcDbEntity
8
8-32_insert_hole
6
ByLayer
62
256
370
-1
100
AcDbCircle
10
20.3225
20
5.85
40
0.1155
0
CIRCLE
5
DF
100
AcDbEntity
8
8-32_insert_hole
6
ByLayer
62
256
370
-1
100
AcDbCircle
10
19.3225
20
10.05
40
0.1155
0
CIRCLE
5
E0
100
AcDbEntity
8
8-32_insert_hole
6
ByLayer
62
256
370
-1
100
AcDbCircle
10
20.3225
20
10.05
40
0.1155
0
LINE
5
E1
100
AcDbEntity
8
scratch
6
ByLayer
62
256
370
-1
100
AcDbLine
10
26.75
20
14.1925
11
26.75
21
14.1925
0
LINE
5
E2
100
AcDbEntity
8
scratch
6
ByLayer
62
256
370
-1
100
AcDbLine
10
26.75
20
1.6925
11
26.75
21
1.6925
0
LINE
5
E3
100
AcDbEntity
8
scratch
6
ByLayer
62
256
370
-1
100
AcDbLine
10
22.25
20
4.9425
11
22.662
21
4.9425
0
LINE
5
E4
100
AcDbEntity
8
scratch
6
ByLayer
62
256
370
-1
100
AcDbLine
10
22.25
20
10.9425
11
22.662
21
10.9425
0
ARC
5
E5
100
AcDbEntity
8
boundary
6
ByLayer
62
256
370
-1
100
AcDbCircle
10
22.0625
20
1.755
40
0.0625
100
AcDbArc
50
180
51
270
0
LINE
5
E6
100
AcDbEntity
8
boundary
6
ByLayer
62
256
370
-1
100
AcDbLine
10
22
20
14.13
11
22
21
1.755
0
ARC
5
E7
100
AcDbEntity
8
boundary
6
ByLayer
62
256
370
-1
100
AcDbCircle
10
22.0625
20
14.13
40
0.0625
100
AcDbArc
50
90
51
180
0
LINE
5
E8
100
AcDbEntity
8
scratch
6
ByLayer
62
256
370
-1
100
AcDbLine
10
31.25
20
2.4425
11
30.838
21
2.4425
0
ARC
5
E9
100
AcDbEntity
8
boundary
6
ByLayer
62
256
370
-1
100
AcDbCircle
10
31.4375
20
14.13
40
0.0625
100
AcDbArc
50
360
51
90
0
LINE
5
EA
100
AcDbEntity
8
boundary
6
ByLayer
62
256
370
-1
100
AcDbLine
10
31.5
20
1.755
11
31.5
21
14.13
0
ARC
5
EB
100
AcDbEntity
8
boundary
6
ByLayer
62
256
370
-1
100
AcDbCircle
10
31.4375
20
1.755
40
0.0625
100
AcDbArc
50
270
51
360
0
LINE
5
EC
100
AcDbEntity
8
scratch
6
ByLayer
62
256
370
-1
100
AcDbLine
10
24.5
20
1.9425
11
24.5
21
2.3545
0
LINE
5
ED
100
AcDbEntity
8
scratch
6
ByLayer
62
256
370
-1
100
AcDbLine
10
24.5
20
13.9425
11
24.5
21
13.5305
0
LINE
5
EE
100
AcDbEntity
8
scratch
6
ByLayer
62
256
370
-1
100
AcDbLine
10
29
20
1.9425
11
29
21
2.3545
0
LINE
5
EF
100
AcDbEntity
8
scratch
6
ByLayer
62
256
370
-1
100
AcDbLine
10
29
20
13.9425
11
29
21
13.5305
0
CIRCLE
5
F0
100
AcDbEntity
8
6-32_through_hole
6
ByLayer
62
256
370
-1
100
AcDbCircle
10
29
20
13.5305
40
0.072
0
LINE
5
F1
100
AcDbEntity
8
boundary
6
ByLayer
62
256
370
-1
100
AcDbLine
10
22.0625
20
1.6925
11
31.4375
21
1.6925
0
LINE
5
F2
100
AcDbEntity
8
boundary
6
ByLayer
62
256
370
-1
100
AcDbLine
10
22.0625
20
14.1925
11
31.4375
21
14.1925
0
CIRCLE
5
F3
100
AcDbEntity
8
camera_hole_phone
6
ByLayer
62
256
370
-1
100
AcDbCircle
10
26.75
20
7.9425
40
0.25
0
CIRCLE
5
F4
100
AcDbEntity
8
6-32_through_hole
6
ByLayer
62
256
370
-1
100
AcDbCircle
10
22.662
20
4.9425
40
0.074
0
CIRCLE
5
F5
100
AcDbEntity
8
6-32_through_hole
6
ByLayer
62
256
370
-1
100
AcDbCircle
10
22.662
20
10.9425
40
0.074
0
CIRCLE
5
F6
100
AcDbEntity
8
6-32_through_hole
6
ByLayer
62
256
370
-1
100
AcDbCircle
10
24.5
20
13.5305
40
0.074
0
CIRCLE
5
F7
100
AcDbEntity
8
6-32_through_hole
6
ByLayer
62
256
370
-1
100
AcDbCircle
10
24.5
20
2.3545
40
0.074
0
CIRCLE
5
F8
100
AcDbEntity
8
6-32_through_hole
6
ByLayer
62
256
370
-1
100
AcDbCircle
10
29
20
2.3545
40
0.074
0
CIRCLE
5
F9
100
AcDbEntity
8
6-32_through_hole
6
ByLayer
62
256
370
-1
100
AcDbCircle
10
30.838
20
2.4425
40
0.074
0
CIRCLE
5
FA
100
AcDbEntity
8
6-32_insert_hole
6
ByLayer
62
256
370
-1
100
AcDbCircle
10
25.5
20
6.6925
40
0.102
0
CIRCLE
5
FB
100
AcDbEntity
8
6-32_insert_hole
6
ByLayer
62
256
370
-1
100
AcDbCircle
10
25.5
20
9.1925
40
0.102
0
CIRCLE
5
FC
100
AcDbEntity
8
6-32_insert_hole
6
ByLayer
62
256
370
-1
100
AcDbCircle
10
28
20
9.1925
40
0.102
0
CIRCLE
5
FD
100
AcDbEntity
8
6-32_insert_hole
6
ByLayer
62
256
370
-1
100
AcDbCircle
10
28
20
6.6925
40
0.102
0
ENDSEC
0
SECTION
2
OBJECTS
0
DICTIONARY
5
C
330
0
100
AcDbDictionary
281
1
3
ACAD_GROUP
350
D
0
DICTIONARY
5
D
330
C
100
AcDbDictionary
281
1
0
ENDSEC
0
EOF
