999
dxfrw 0.5.10
0
SECTION
2
HEADER
9
$ACADVER
1
AC1021
9
$HANDSEED
5
20000
9
$DWGCODEPAGE
3
ANSI_1252
9
$INSBASE
10
0
20
0
30
0
9
$EXTMIN
10
-31
20
0
30
0
9
$EXTMAX
10
32.4
20
44.25
30
0
9
$LIMMIN
10
0
20
0
9
$LIMMAX
10
420
20
297
9
$ORTHOMODE
70
0
9
$LTSCALE
40
1
9
$TEXTSTYLE
7
STANDARD
9
$CLAYER
8
dimensions
9
$DIMASZ
40
0.1
9
$DIMLFAC
40
1
9
$DIMSCALE
40
1
9
$DIMEXO
40
0.025
9
$DIMEXE
40
0.05
9
$DIMTXT
40
0.1
9
$DIMTSZ
40
0
9
$DIMAUNIT
70
0
9
$DIMADEC
70
0
9
$DIMLUNIT
70
2
9
$DIMSTYLE
2
STANDARD
9
$DIMGAP
40
0.025
9
$DIMTIH
70
0
9
$LUNITS
70
2
9
$LUPREC
70
4
9
$AUNITS
70
0
9
$AUPREC
70
2
9
$SPLINESEGS
70
8
9
$GRIDMODE
70
1
9
$SNAPSTYLE
70
0
9
$PINSBASE
10
0
20
0
30
0
9
$PLIMMIN
10
0
20
0
9
$PLIMMAX
10
0.0128149862599
20
0.0181240519961
9
$INSUNITS
70
1
9
$PSVPSCALE
40
1
0
ENDSEC
0
SECTION
2
CLASSES
0
ENDSEC
0
SECTION
2
TABLES
0
TABLE
2
VPORT
5
8
330
0
100
AcDbSymbolTable
70
1
0
VPORT
5
31
330
2
100
AcDbSymbolTableRecord
100
AcDbViewportTableRecord
2
*ACTIVE
70
0
10
0
20
0
11
1
21
1
12
21.776826368
22
10.23410176
13
0
23
0
14
10
24
10
15
10
25
10
16
0
26
0
36
1
17
0
27
0
37
0
40
26.34022912
41
1.59363057325
42
50
43
0
44
0
50
0
51
0
71
0
72
100
73
1
74
3
75
0
76
1
77
0
78
0
281
0
65
1
110
0
120
0
130
0
111
1
121
0
131
0
112
0
122
1
132
0
79
0
146
0
348
10020
60
7
61
5
292
1
282
1
141
0
142
0
63
250
421
3358443
0
ENDTAB
0
TABLE
2
LTYPE
5
5
330
0
100
AcDbSymbolTable
70
4
0
LTYPE
5
14
330
5
100
AcDbSymbolTableRecord
100
AcDbLinetypeTableRecord
2
ByBlock
70
0
3

72
65
73
0
40
0
0
LTYPE
5
15
330
5
100
AcDbSymbolTableRecord
100
AcDbLinetypeTableRecord
2
ByLayer
70
0
3

72
65
73
0
40
0
0
LTYPE
5
16
330
5
100
AcDbSymbolTableRecord
100
AcDbLinetypeTableRecord
2
Continuous
70
0
3
Solid line
72
65
73
0
40
0
0
LTYPE
5
32
330
5
100
AcDbSymbolTableRecord
100
AcDbLinetypeTableRecord
2
DOT
70
0
3
Dot . . . . . . . . . . . . . . . . . . . . . .
72
65
73
2
40
6.35
49
0
74
0
49
-6.35
74
0
0
LTYPE
5
33
330
5
100
AcDbSymbolTableRecord
100
AcDbLinetypeTableRecord
2
DOT2
70
0
3
Dot (.5x) .....................................
72
65
73
2
40
3.175
49
0
74
0
49
-3.175
74
0
0
LTYPE
5
34
330
5
100
AcDbSymbolTableRecord
100
AcDbLinetypeTableRecord
2
DOTX2
70
0
3
Dot (2x) .  .  .  .  .  .  .  .  .  .  .  .  .
72
65
73
2
40
12.7
49
0
74
0
49
-12.7
74
0
0
LTYPE
5
35
330
5
100
AcDbSymbolTableRecord
100
AcDbLinetypeTableRecord
2
DASHED
70
0
3
Dot . . . . . . . . . . . . . . . . . . . . . .
72
65
73
2
40
19.05
49
12.7
74
0
49
-6.35
74
0
0
LTYPE
5
36
330
5
100
AcDbSymbolTableRecord
100
AcDbLinetypeTableRecord
2
DASHED2
70
0
3
Dashed (.5x) _ _ _ _ _ _ _ _ _ _ _ _ _ _ _ _ _
72
65
73
2
40
9.525
49
6.35
74
0
49
-3.175
74
0
0
LTYPE
5
37
330
5
100
AcDbSymbolTableRecord
100
AcDbLinetypeTableRecord
2
DASHEDX2
70
0
3
Dashed (2x) ____  ____  ____  ____  ____  ___
72
65
73
2
40
38.1
49
25.4
74
0
49
-12.7
74
0
0
LTYPE
5
38
330
5
100
AcDbSymbolTableRecord
100
AcDbLinetypeTableRecord
2
DASHDOT
70
0
3
Dash dot __ . __ . __ . __ . __ . __ . __ . __
72
65
73
4
40
25.4
49
12.7
74
0
49
-6.35
74
0
49
0
74
0
49
-6.35
74
0
0
LTYPE
5
39
330
5
100
AcDbSymbolTableRecord
100
AcDbLinetypeTableRecord
2
DASHDOT2
70
0
3
Dash dot (.5x) _._._._._._._._._._._._._._._.
72
65
73
4
40
12.7
49
6.35
74
0
49
-3.175
74
0
49
0
74
0
49
-3.175
74
0
0
LTYPE
5
3A
330
5
100
AcDbSymbolTableRecord
100
AcDbLinetypeTableRecord
2
DASHDOTX2
70
0
3
Dash dot (2x) ____  .  ____  .  ____  .  ___
72
65
73
4
40
50.8
49
25.4
74
0
49
-12.7
74
0
49
0
74
0
49
-12.7
74
0
0
LTYPE
5
3B
330
5
100
AcDbSymbolTableRecord
100
AcDbLinetypeTableRecord
2
DIVIDE
70
0
3
Divide ____ . . ____ . . ____ . . ____ . . ____
72
65
73
6
40
31.75
49
12.7
74
0
49
-6.35
74
0
49
0
74
0
49
-6.35
74
0
49
0
74
0
49
-6.35
74
0
0
LTYPE
5
3C
330
5
100
AcDbSymbolTableRecord
100
AcDbLinetypeTableRecord
2
DIVIDE2
70
0
3
Divide (.5x) __..__..__..__..__..__..__..__.._
72
65
73
6
40
15.875
49
6.35
74
0
49
-3.175
74
0
49
0
74
0
49
-3.175
74
0
49
0
74
0
49
-3.175
74
0
0
LTYPE
5
3D
330
5
100
AcDbSymbolTableRecord
100
AcDbLinetypeTableRecord
2
DIVIDEX2
70
0
3
Divide (2x) ________  .  .  ________  .  .  _
72
65
73
6
40
63.5
49
25.4
74
0
49
-12.7
74
0
49
0
74
0
49
-12.7
74
0
49
0
74
0
49
-12.7
74
0
0
LTYPE
5
3E
330
5
100
AcDbSymbolTableRecord
100
AcDbLinetypeTableRecord
2
BORDER
70
0
3
Border __ __ . __ __ . __ __ . __ __ . __ __ .
72
65
73
6
40
44.45
49
12.7
74
0
49
-6.35
74
0
49
12.7
74
0
49
-6.35
74
0
49
0
74
0
49
-6.35
74
0
0
LTYPE
5
3F
330
5
100
AcDbSymbolTableRecord
100
AcDbLinetypeTableRecord
2
BORDER2
70
0
3
Border (.5x) __.__.__.__.__.__.__.__.__.__.__.
72
65
73
6
40
22.225
49
6.35
74
0
49
-3.175
74
0
49
6.35
74
0
49
-3.175
74
0
49
0
74
0
49
-3.175
74
0
0
LTYPE
5
40
330
5
100
AcDbSymbolTableRecord
100
AcDbLinetypeTableRecord
2
BORDERX2
70
0
3
Border (2x) ____  ____  .  ____  ____  .  ___
72
65
73
6
40
88.9
49
25.4
74
0
49
-12.7
74
0
49
25.4
74
0
49
-12.7
74
0
49
0
74
0
49
-12.7
74
0
0
LTYPE
5
41
330
5
100
AcDbSymbolTableRecord
100
AcDbLinetypeTableRecord
2
CENTER
70
0
3
Center ____ _ ____ _ ____ _ ____ _ ____ _ ____
72
65
73
4
40
50.8
49
31.75
74
0
49
-6.35
74
0
49
6.35
74
0
49
-6.35
74
0
0
LTYPE
5
42
330
5
100
AcDbSymbolTableRecord
100
AcDbLinetypeTableRecord
2
CENTER2
70
0
3
Center (.5x) ___ _ ___ _ ___ _ ___ _ ___ _ ___
72
65
73
4
40
28.575
49
19.05
74
0
49
-3.175
74
0
49
3.175
74
0
49
-3.175
74
0
0
LTYPE
5
43
330
5
100
AcDbSymbolTableRecord
100
AcDbLinetypeTableRecord
2
CENTERX2
70
0
3
Center (2x) ________  __  ________  __  _____
72
65
73
4
40
101.6
49
63.5
74
0
49
-12.7
74
0
49
12.7
74
0
49
-12.7
74
0
0
ENDTAB
0
TABLE
2
LAYER
5
2
330
0
100
AcDbSymbolTable
70
1
0
LAYER
5
10
330
2
100
AcDbSymbolTableRecord
100
AcDbLayerTableRecord
2
0
70
0
62
7
6
CONTINUOUS
370
0
390
F
0
LAYER
5
44
330
2
100
AcDbSymbolTableRecord
100
AcDbLayerTableRecord
2
material
70
0
62
136
420
32896
6
CONTINUOUS
370
0
390
F
0
LAYER
5
45
330
2
100
AcDbSymbolTableRecord
100
AcDbLayerTableRecord
2
boundary
70
0
62
5
6
CONTINUOUS
370
0
390
F
0
LAYER
5
46
330
2
100
AcDbSymbolTableRecord
100
AcDbLayerTableRecord
2
6-32_through_hole
70
0
62
3
6
CONTINUOUS
370
0
390
F
0
LAYER
5
47
330
2
100
AcDbSymbolTableRecord
100
AcDbLayerTableRecord
2
scratch
70
0
62
7
6
CONTINUOUS
370
0
390
F
0
LAYER
5
48
330
2
100
AcDbSymbolTableRecord
100
AcDbLayerTableRecord
2
dimensions
70
0
62
8
6
CONTINUOUS
370
0
390
F
0
LAYER
5
49
330
2
100
AcDbSymbolTableRecord
100
AcDbLayerTableRecord
2
8-32_insert_hole
70
0
62
6
6
CONTINUOUS
370
0
390
F
0
LAYER
5
4A
330
2
100
AcDbSymbolTableRecord
100
AcDbLayerTableRecord
2
10-32_insert_hole
70
0
62
2
6
CONTINUOUS
370
0
390
F
0
LAYER
5
4B
330
2
100
AcDbSymbolTableRecord
100
AcDbLayerTableRecord
2
8-32_through_hole
70
0
62
6
6
CONTINUOUS
370
0
390
F
0
LAYER
5
4C
330
2
100
AcDbSymbolTableRecord
100
AcDbLayerTableRecord
2
camera_hole
70
0
62
4
6
CONTINUOUS
370
0
390
F
0
LAYER
5
4D
330
2
100
AcDbSymbolTableRecord
100
AcDbLayerTableRecord
2
6-32_insert_hole
70
0
62
136
420
32896
6
CONTINUOUS
370
0
390
F
0
LAYER
5
4E
330
2
100
AcDbSymbolTableRecord
100
AcDbLayerTableRecord
2
cable_hole
70
0
62
6
6
CONTINUOUS
370
0
390
F
0
LAYER
5
4F
330
2
100
AcDbSymbolTableRecord
100
AcDbLayerTableRecord
2
cable_cover
70
0
62
253
420
10526884
6
CONTINUOUS
370
0
390
F
0
LAYER
5
50
330
2
100
AcDbSymbolTableRecord
100
AcDbLayerTableRecord
2
tool
70
0
62
253
420
10526884
6
CONTINUOUS
370
0
390
F
0
ENDTAB
0
TABLE
2
STYLE
5
3
330
0
100
AcDbSymbolTable
70
3
0
STYLE
5
51
330
2
100
AcDbSymbolTableRecord
100
AcDbTextStyleTableRecord
2
Standard
70
0
40
0
41
1
50
0
71
0
42
1
3
txt
4

0
ENDTAB
0
TABLE
2
VIEW
5
6
330
0
100
AcDbSymbolTable
70
0
0
ENDTAB
0
TABLE
2
UCS
5
7
330
0
100
AcDbSymbolTable
70
0
0
ENDTAB
0
TABLE
2
APPID
5
9
330
0
100
AcDbSymbolTable
70
1
0
APPID
5
12
330
9
100
AcDbSymbolTableRecord
100
AcDbRegAppTableRecord
2
ACAD
70
0
0
ENDTAB
0
TABLE
2
DIMSTYLE
5
A
330
0
100
AcDbSymbolTable
70
1
100
AcDbDimStyleTable
71
1
0
DIMSTYLE
105
52
330
A
100
AcDbSymbolTableRecord
100
AcDbDimStyleTableRecord
2
Standard
70
0
40
1
41
0.1
42
0.025
43
0.38
44
0.05
45
0
46
0
47
0
48
0
140
0.1
141
0.09
142
0
143
25.4
144
1
145
0
146
1
147
0.025
148
0
71
0
72
0
73
0
74
1
75
0
76
0
77
0
78
0
79
0
170
0
171
2
172
0
173
0
174
0
175
0
176
0
177
0
178
0
179
0
271
4
272
4
273
2
274
2
275
0
276
0
277
2
278
46
279
0
280
0
281
0
282
0
283
1
284
0
285
0
286
0
288
0
289
3
340
Standard
341

371
-2
372
-2
0
ENDTAB
0
TABLE
2
BLOCK_RECORD
5
1
330
0
100
AcDbSymbolTable
70
2
0
BLOCK_RECORD
5
1F
330
1
100
AcDbSymbolTableRecord
100
AcDbBlockTableRecord
2
*Model_Space
70
0
280
1
281
0
0
BLOCK_RECORD
5
1E
330
1
100
AcDbSymbolTableRecord
100
AcDbBlockTableRecord
2
*Paper_Space
70
0
280
1
281
0
0
ENDTAB
0
ENDSEC
0
SECTION
2
BLOCKS
0
BLOCK
5
20
330
1F
100
AcDbEntity
8
0
100
AcDbBlockBegin
2
*Model_Space
70
0
10
0
20
0
30
0
3
*Model_Space
1

0
ENDBLK
5
21
330
1F
100
AcDbEntity
8
0
100
AcDbBlockEnd
0
BLOCK
5
1C
330
1B
100
AcDbEntity
8
0
100
AcDbBlockBegin
2
*Paper_Space
70
0
10
0
20
0
30
0
3
*Paper_Space
1

0
ENDBLK
5
1D
330
1F
100
AcDbEntity
8
0
100
AcDbBlockEnd
0
ENDSEC
0
SECTION
2
ENTITIES
0
LINE
5
53
100
AcDbEntity
8
material
6
ByLayer
62
256
370
-1
100
AcDbLine
10
0
20
0
11
32
21
0
0
LINE
5
54
100
AcDbEntity
8
material
6
ByLayer
62
256
370
-1
100
AcDbLine
10
32
20
0
11
32
21
16
0
LINE
5
55
100
AcDbEntity
8
material
6
ByLayer
62
256
370
-1
100
AcDbLine
10
32
20
16
11
0
21
16
0
LINE
5
56
100
AcDbEntity
8
material
6
ByLayer
62
256
370
-1
100
AcDbLine
10
0
20
16
11
0
21
0
0
LINE
5
57
100
AcDbEntity
8
material
6
ByLayer
62
256
370
-1
100
AcDbLine
10
0
20
17
11
32
21
17
0
LINE
5
58
100
AcDbEntity
8
material
6
ByLayer
62
256
370
-1
100
AcDbLine
10
32
20
17
11
32
21
33
0
LINE
5
59
100
AcDbEntity
8
material
6
ByLayer
62
256
370
-1
100
AcDbLine
10
32
20
33
11
0
21
33
0
LINE
5
5A
100
AcDbEntity
8
material
6
ByLayer
62
256
370
-1
100
AcDbLine
10
0
20
33
11
0
21
17
0
LINE
5
5B
100
AcDbEntity
8
scratch
6
ByLayer
62
256
370
-1
100
AcDbLine
10
0.45
20
4.75
11
0.862
21
4.75
0
LINE
5
5C
100
AcDbEntity
8
scratch
6
ByLayer
62
256
370
-1
100
AcDbLine
10
0.45
20
10.75
11
0.862
21
10.75
0
CIRCLE
5
5D
100
AcDbEntity
8
6-32_through_hole
6
ByLayer
62
256
370
-1
100
AcDbCircle
10
0.862
20
4.75
40
0.072
0
CIRCLE
5
5E
100
AcDbEntity
8
6-32_through_hole
6
ByLayer
62
256
370
-1
100
AcDbCircle
10
0.862
20
10.75
40
0.072
0
ARC
5
5F
100
AcDbEntity
8
boundary
6
ByLayer
62
256
370
-1
100
AcDbCircle
10
0.2625
20
1.5625
40
0.0625
100
AcDbArc
50
180
51
270
0
LINE
5
60
100
AcDbEntity
8
boundary
6
ByLayer
62
256
370
-1
100
AcDbLine
10
0.2
20
13.9375
11
0.2
21
1.5625
0
ARC
5
61
100
AcDbEntity
8
boundary
6
ByLayer
62
256
370
-1
100
AcDbCircle
10
0.2625
20
13.9375
40
0.0625
100
AcDbArc
50
90
51
180
0
LINE
5
62
100
AcDbEntity
8
scratch
6
ByLayer
62
256
370
-1
100
AcDbLine
10
9.45
20
2.25
11
9.038
21
2.25
0
CIRCLE
5
63
100
AcDbEntity
8
6-32_through_hole
6
ByLayer
62
256
370
-1
100
AcDbCircle
10
9.038
20
2.25
40
0.072
0
ARC
5
64
100
AcDbEntity
8
boundary
6
ByLayer
62
256
370
-1
100
AcDbCircle
10
9.6375
20
1.5625
40
0.0625
100
AcDbArc
50
270
51
360
0
LINE
5
65
100
AcDbEntity
8
boundary
6
ByLayer
62
256
370
-1
100
AcDbLine
10
9.7
20
1.5625
11
9.7
21
13.9375
0
ARC
5
66
100
AcDbEntity
8
boundary
6
ByLayer
62
256
370
-1
100
AcDbCircle
10
9.6375
20
13.9375
40
0.0625
100
AcDbArc
50
360
51
90
0
LINE
5
67
100
AcDbEntity
8
boundary
6
ByLayer
62
256
370
-1
100
AcDbLine
10
0.2625
20
1.5
11
9.6375
21
1.5
0
LINE
5
68
100
AcDbEntity
8
boundary
6
ByLayer
62
256
370
-1
100
AcDbLine
10
0.2625
20
14
11
9.6375
21
14
0
LINE
5
69
100
AcDbEntity
8
scratch
6
ByLayer
62
256
370
-1
100
AcDbLine
10
7.2
20
13.75
11
7.2
21
13.338
0
LINE
5
6A
100
AcDbEntity
8
scratch
6
ByLayer
62
256
370
-1
100
AcDbLine
10
7.2
20
1.75
11
7.2
21
2.162
0
CIRCLE
5
6B
100
AcDbEntity
8
6-32_through_hole
6
ByLayer
62
256
370
-1
100
AcDbCircle
10
7.2
20
13.338
40
0.072
0
CIRCLE
5
6C
100
AcDbEntity
8
6-32_through_hole
6
ByLayer
62
256
370
-1
100
AcDbCircle
10
7.2
20
2.162
40
0.072
0
LINE
5
6D
100
AcDbEntity
8
scratch
6
ByLayer
62
256
370
-1
100
AcDbLine
10
2.7
20
13.75
11
2.7
21
13.338
0
LINE
5
6E
100
AcDbEntity
8
scratch
6
ByLayer
62
256
370
-1
100
AcDbLine
10
2.7
20
1.75
11
2.7
21
2.162
0
CIRCLE
5
6F
100
AcDbEntity
8
6-32_through_hole
6
ByLayer
62
256
370
-1
100
AcDbCircle
10
2.7
20
2.162
40
0.072
0
CIRCLE
5
70
100
AcDbEntity
8
6-32_through_hole
6
ByLayer
62
256
370
-1
100
AcDbCircle
10
2.7
20
13.338
40
0.072
0
LINE
5
71
100
AcDbEntity
8
scratch
6
ByLayer
62
256
370
-1
100
AcDbLine
10
7.2
20
2.162
11
7.2
21
2.312
0
LINE
5
72
100
AcDbEntity
8
scratch
6
ByLayer
62
256
370
-1
100
AcDbLine
10
2.7
20
2.162
11
2.7
21
2.312
0
LINE
5
73
100
AcDbEntity
8
scratch
6
ByLayer
62
256
370
-1
100
AcDbLine
10
7.2
20
13.338
11
7.2
21
13.188
0
LINE
5
74
100
AcDbEntity
8
scratch
6
ByLayer
62
256
370
-1
100
AcDbLine
10
2.7
20
13.338
11
2.7
21
13.188
0
LINE
5
75
100
AcDbEntity
8
scratch
6
ByLayer
62
256
370
-1
100
AcDbLine
10
0.862
20
10.75
11
1.012
21
10.75
0
LINE
5
76
100
AcDbEntity
8
scratch
6
ByLayer
62
256
370
-1
100
AcDbLine
10
0.862
20
4.75
11
1.012
21
4.75
0
LINE
5
77
100
AcDbEntity
8
scratch
6
ByLayer
62
256
370
-1
100
AcDbLine
10
9.038
20
2.25
11
8.888
21
2.25
0
LINE
5
78
100
AcDbEntity
8
scratch
6
ByLayer
62
256
370
-1
100
AcDbLine
10
4.95
20
7.75
11
5.1
21
7.75
0
LINE
5
79
100
AcDbEntity
8
scratch
6
ByLayer
62
256
370
-1
100
AcDbLine
10
4.95
20
7.75
11
1.45
21
7.75
0
LINE
5
7A
100
AcDbEntity
8
scratch
6
ByLayer
62
256
370
-1
100
AcDbLine
10
4.95
20
7.75
11
8.45
21
7.75
0
LINE
5
7B
100
AcDbEntity
8
scratch
6
ByLayer
62
256
370
-1
100
AcDbLine
10
1.45
20
7.75
11
1.45
21
12.75
0
LINE
5
7C
100
AcDbEntity
8
scratch
6
ByLayer
62
256
370
-1
100
AcDbLine
10
8.45
20
7.75
11
8.45
21
12.75
0
LINE
5
7D
100
AcDbEntity
8
scratch
6
ByLayer
62
256
370
-1
100
AcDbLine
10
1.45
20
7.75
11
1.45
21
2.75
0
LINE
5
7E
100
AcDbEntity
8
scratch
6
ByLayer
62
256
370
-1
100
AcDbLine
10
8.45
20
7.75
11
8.45
21
2.75
0
CIRCLE
5
7F
100
AcDbEntity
8
8-32_insert_hole
6
ByLayer
62
256
370
-1
100
AcDbCircle
10
1.45
20
2.75
40
0.1155
0
CIRCLE
5
80
100
AcDbEntity
8
8-32_insert_hole
6
ByLayer
62
256
370
-1
100
AcDbCircle
10
1.45
20
12.75
40
0.1155
0
CIRCLE
5
81
100
AcDbEntity
8
8-32_insert_hole
6
ByLayer
62
256
370
-1
100
AcDbCircle
10
8.45
20
2.75
40
0.1155
0
CIRCLE
5
82
100
AcDbEntity
8
8-32_insert_hole
6
ByLayer
62
256
370
-1
100
AcDbCircle
10
8.45
20
12.75
40
0.1155
0
LINE
5
83
100
AcDbEntity
8
scratch
6
ByLayer
62
256
370
-1
100
AcDbLine
10
10.2
20
9.99
11
10.2
21
10.52125
0
LINE
5
84
100
AcDbEntity
8
scratch
6
ByLayer
62
256
370
-1
100
AcDbLine
10
10.2
20
3.99
11
10.2
21
4.52125
0
LINE
5
85
100
AcDbEntity
8
scratch
6
ByLayer
62
256
370
-1
100
AcDbLine
10
10.2
20
3.99
11
10.2
21
3.45875
0
LINE
5
86
100
AcDbEntity
8
scratch
6
ByLayer
62
256
370
-1
100
AcDbLine
10
10.2
20
9.99
11
10.2
21
9.45875
0
LINE
5
87
100
AcDbEntity
8
scratch
6
ByLayer
62
256
370
-1
100
AcDbLine
10
10.2
20
10.52125
11
10.825
21
10.52125
0
LINE
5
88
100
AcDbEntity
8
scratch
6
ByLayer
62
256
370
-1
100
AcDbLine
10
10.2
20
9.45875
11
10.825
21
9.45875
0
LINE
5
89
100
AcDbEntity
8
scratch
6
ByLayer
62
256
370
-1
100
AcDbLine
10
10.2
20
4.52125
11
10.825
21
4.52125
0
LINE
5
8A
100
AcDbEntity
8
scratch
6
ByLayer
62
256
370
-1
100
AcDbLine
10
10.2
20
3.45875
11
10.825
21
3.45875
0
CIRCLE
5
8B
100
AcDbEntity
8
10-32_insert_hole
6
ByLayer
62
256
370
-1
100
AcDbCircle
10
10.825
20
10.52125
40
0.13625
0
CIRCLE
5
8C
100
AcDbEntity
8
10-32_insert_hole
6
ByLayer
62
256
370
-1
100
AcDbCircle
10
10.825
20
9.45875
40
0.13625
0
CIRCLE
5
8D
100
AcDbEntity
8
10-32_insert_hole
6
ByLayer
62
256
370
-1
100
AcDbCircle
10
10.825
20
4.52125
40
0.13625
0
CIRCLE
5
8E
100
AcDbEntity
8
10-32_insert_hole
6
ByLayer
62
256
370
-1
100
AcDbCircle
10
10.825
20
3.45875
40
0.13625
0
LINE
5
8F
100
AcDbEntity
8
scratch
6
ByLayer
62
256
370
-1
100
AcDbLine
10
20.2
20
6.99
11
20.2
21
4.99
0
LINE
5
90
100
AcDbEntity
8
scratch
6
ByLayer
62
256
370
-1
100
AcDbLine
10
20.2
20
6.99
11
20.2
21
8.99
0
ARC
5
91
100
AcDbEntity
8
boundary
6
ByLayer
62
256
370
-1
100
AcDbCircle
10
10.2625
20
12.9275
40
0.0625
100
AcDbArc
50
90
51
180
0
LINE
5
92
100
AcDbEntity
8
boundary
6
ByLayer
62
256
370
-1
100
AcDbLine
10
21.1375
20
12.99
11
10.2625
21
12.99
0
ARC
5
93
100
AcDbEntity
8
boundary
6
ByLayer
62
256
370
-1
100
AcDbCircle
10
21.1375
20
12.9275
40
0.0625
100
AcDbArc
50
0
51
90
0
LINE
5
94
100
AcDbEntity
8
scratch
6
ByLayer
62
256
370
-1
100
AcDbLine
10
20.95
20
6.99
11
19.95
21
6.99
0
CIRCLE
5
95
100
AcDbEntity
8
8-32_insert_hole
6
ByLayer
62
256
370
-1
100
AcDbCircle
10
19.95
20
6.99
40
0.1155
0
LINE
5
96
100
AcDbEntity
8
boundary
6
ByLayer
62
256
370
-1
100
AcDbLine
10
21.2
20
1.0625
11
21.2
21
12.9275
0
ARC
5
97
100
AcDbEntity
8
boundary
6
ByLayer
62
256
370
-1
100
AcDbCircle
10
21.1375
20
1.0625
40
0.0625
100
AcDbArc
50
270
51
0
0
LINE
5
98
100
AcDbEntity
8
boundary
6
ByLayer
62
256
370
-1
100
AcDbLine
10
21.1375
20
1
11
10.2625
21
1
0
LINE
5
99
100
AcDbEntity
8
boundary
6
ByLayer
62
256
370
-1
100
AcDbLine
10
10.2
20
12.9275
11
10.2
21
1.0625
0
ARC
5
9A
100
AcDbEntity
8
boundary
6
ByLayer
62
256
370
-1
100
AcDbCircle
10
10.2625
20
1.0625
40
0.0625
100
AcDbArc
50
180
51
270
0
CIRCLE
5
9B
100
AcDbEntity
8
8-32_through_hole
6
ByLayer
62
256
370
-1
100
AcDbCircle
10
20.2
20
8.99
40
0.086
0
CIRCLE
5
9C
100
AcDbEntity
8
8-32_through_hole
6
ByLayer
62
256
370
-1
100
AcDbCircle
10
20.2
20
4.99
40
0.086
0
ARC
5
9D
100
AcDbEntity
8
boundary
6
ByLayer
62
256
370
-1
100
AcDbCircle
10
21.7625
20
12.9375
40
0.0625
100
AcDbArc
50
90
51
180
0
LINE
5
9E
100
AcDbEntity
8
boundary
6
ByLayer
62
256
370
-1
100
AcDbLine
10
21.7
20
12.9375
11
21.7
21
1.0625
0
ARC
5
9F
100
AcDbEntity
8
boundary
6
ByLayer
62
256
370
-1
100
AcDbCircle
10
21.7625
20
1.0625
40
0.0625
100
AcDbArc
50
180
51
270
0
LINE
5
A0
100
AcDbEntity
8
scratch
6
ByLayer
62
256
370
-1
100
AcDbLine
10
30.7
20
10
11
30.288
21
10
0
LINE
5
A1
100
AcDbEntity
8
scratch
6
ByLayer
62
256
370
-1
100
AcDbLine
10
30.7
20
4
11
30.288
21
4
0
CIRCLE
5
A2
100
AcDbEntity
8
6-32_through_hole
6
ByLayer
62
256
370
-1
100
AcDbCircle
10
30.288
20
10
40
0.072
0
CIRCLE
5
A3
100
AcDbEntity
8
6-32_through_hole
6
ByLayer
62
256
370
-1
100
AcDbCircle
10
30.288
20
4
40
0.072
0
ARC
5
A4
100
AcDbEntity
8
boundary
6
ByLayer
62
256
370
-1
100
AcDbCircle
10
30.6375
20
12.9375
40
0.0625
100
AcDbArc
50
0
51
90
0
LINE
5
A5
100
AcDbEntity
8
boundary
6
ByLayer
62
256
370
-1
100
AcDbLine
10
30.7
20
1.0625
11
30.7
21
12.9375
0
ARC
5
A6
100
AcDbEntity
8
boundary
6
ByLayer
62
256
370
-1
100
AcDbCircle
10
30.6375
20
1.0625
40
0.0625
100
AcDbArc
50
270
51
0
0
LINE
5
A7
100
AcDbEntity
8
boundary
6
ByLayer
62
256
370
-1
100
AcDbLine
10
21.7625
20
13
11
30.6375
21
13
0
LINE
5
A8
100
AcDbEntity
8
boundary
6
ByLayer
62
256
370
-1
100
AcDbLine
10
21.7625
20
1
11
30.6375
21
1
0
CIRCLE
5
A9
100
AcDbEntity
8
6-32_through_hole
6
ByLayer
62
256
370
-1
100
AcDbCircle
10
23.95
20
12.588
40
0.072
0
CIRCLE
5
AA
100
AcDbEntity
8
6-32_through_hole
6
ByLayer
62
256
370
-1
100
AcDbCircle
10
23.95
20
1.412
40
0.072
0
CIRCLE
5
AB
100
AcDbEntity
8
6-32_through_hole
6
ByLayer
62
256
370
-1
100
AcDbCircle
10
28.45
20
12.588
40
0.072
0
CIRCLE
5
AC
100
AcDbEntity
8
6-32_through_hole
6
ByLayer
62
256
370
-1
100
AcDbCircle
10
28.45
20
1.412
40
0.072
0
LINE
5
AD
100
AcDbEntity
8
scratch
6
ByLayer
62
256
370
-1
100
AcDbLine
10
28.45
20
13
11
28.45
21
12.588
0
LINE
5
AE
100
AcDbEntity
8
scratch
6
ByLayer
62
256
370
-1
100
AcDbLine
10
23.95
20
13
11
23.95
21
12.588
0
LINE
5
AF
100
AcDbEntity
8
scratch
6
ByLayer
62
256
370
-1
100
AcDbLine
10
28.45
20
1
11
28.45
21
1.412
0
LINE
5
B0
100
AcDbEntity
8
scratch
6
ByLayer
62
256
370
-1
100
AcDbLine
10
23.95
20
1
11
23.95
21
1.412
0
LINE
5
B1
100
AcDbEntity
8
scratch
6
ByLayer
62
256
370
-1
100
AcDbLine
10
28.45
20
1.412
11
28.45
21
1.562
0
LINE
5
B2
100
AcDbEntity
8
scratch
6
ByLayer
62
256
370
-1
100
AcDbLine
10
23.95
20
1.412
11
23.95
21
1.562
0
LINE
5
B3
100
AcDbEntity
8
scratch
6
ByLayer
62
256
370
-1
100
AcDbLine
10
21.7
20
7
11
21.7
21
6.2
0
LINE
5
B4
100
AcDbEntity
8
scratch
6
ByLayer
62
256
370
-1
100
AcDbLine
10
21.7
20
7
11
21.7
21
7.8
0
LINE
5
B5
100
AcDbEntity
8
scratch
6
ByLayer
62
256
370
-1
100
AcDbLine
10
21.7
20
7.8
11
22.14
21
7.8
0
LINE
5
B6
100
AcDbEntity
8
scratch
6
ByLayer
62
256
370
-1
100
AcDbLine
10
21.7
20
6.2
11
22.14
21
6.2
0
CIRCLE
5
B7
100
AcDbEntity
8
6-32_insert_hole
6
ByLayer
62
256
370
-1
100
AcDbCircle
10
22.14
20
7.8
40
0.102
0
CIRCLE
5
B8
100
AcDbEntity
8
6-32_insert_hole
6
ByLayer
62
256
370
-1
100
AcDbCircle
10
22.14
20
6.2
40
0.102
0
CIRCLE
5
B9
100
AcDbEntity
8
cable_hole
6
ByLayer
62
256
370
-1
100
AcDbCircle
10
29.4
20
2.4
40
0.748
0
LINE
5
BA
100
AcDbEntity
8
scratch
6
ByLayer
62
256
370
-1
100
AcDbLine
10
10.2
20
14.25
11
10.612
21
14.25
0
LINE
5
BB
100
AcDbEntity
8
scratch
6
ByLayer
62
256
370
-1
100
AcDbLine
10
22.2
20
14.25
11
21.788
21
14.25
0
CIRCLE
5
BC
100
AcDbEntity
8
6-32_through_hole
6
ByLayer
62
256
370
-1
100
AcDbCircle
10
10.612
20
14.25
40
0.072
0
CIRCLE
5
BD
100
AcDbEntity
8
6-32_through_hole
6
ByLayer
62
256
370
-1
100
AcDbCircle
10
21.788
20
14.25
40
0.072
0
LINE
5
BE
100
AcDbEntity
8
scratch
6
ByLayer
62
256
370
-1
100
AcDbLine
10
13.2
20
15
11
12.66875
21
15
0
LINE
5
BF
100
AcDbEntity
8
scratch
6
ByLayer
62
256
370
-1
100
AcDbLine
10
19.2
20
15
11
18.66875
21
15
0
LINE
5
C0
100
AcDbEntity
8
scratch
6
ByLayer
62
256
370
-1
100
AcDbLine
10
13.2
20
15
11
13.73125
21
15
0
LINE
5
C1
100
AcDbEntity
8
scratch
6
ByLayer
62
256
370
-1
100
AcDbLine
10
19.2
20
15
11
19.73125
21
15
0
LINE
5
C2
100
AcDbEntity
8
scratch
6
ByLayer
62
256
370
-1
100
AcDbLine
10
12.66875
20
15
11
12.66875
21
14.375
0
LINE
5
C3
100
AcDbEntity
8
scratch
6
ByLayer
62
256
370
-1
100
AcDbLine
10
13.73125
20
15
11
13.73125
21
14.375
0
LINE
5
C4
100
AcDbEntity
8
scratch
6
ByLayer
62
256
370
-1
100
AcDbLine
10
18.66875
20
15
11
18.66875
21
14.375
0
LINE
5
C5
100
AcDbEntity
8
scratch
6
ByLayer
62
256
370
-1
100
AcDbLine
10
19.73125
20
15
11
19.73125
21
14.375
0
CIRCLE
5
C6
100
AcDbEntity
8
10-32_insert_hole
6
ByLayer
62
256
370
-1
100
AcDbCircle
10
12.66875
20
14.375
40
0.13625
0
CIRCLE
5
C7
100
AcDbEntity
8
10-32_insert_hole
6
ByLayer
62
256
370
-1
100
AcDbCircle
10
13.73125
20
14.375
40
0.13625
0
CIRCLE
5
C8
100
AcDbEntity
8
10-32_insert_hole
6
ByLayer
62
256
370
-1
100
AcDbCircle
10
18.66875
20
14.375
40
0.13625
0
CIRCLE
5
C9
100
AcDbEntity
8
10-32_insert_hole
6
ByLayer
62
256
370
-1
100
AcDbCircle
10
19.73125
20
14.375
40
0.13625
0
ARC
5
CA
100
AcDbEntity
8
boundary
6
ByLayer
62
256
370
-1
100
AcDbCircle
10
10.2625
20
13.5625
40
0.0625
100
AcDbArc
50
180
51
270
0
LINE
5
CB
100
AcDbEntity
8
boundary
6
ByLayer
62
256
370
-1
100
AcDbLine
10
10.2
20
14.9375
11
10.2
21
13.5625
0
ARC
5
CC
100
AcDbEntity
8
boundary
6
ByLayer
62
256
370
-1
100
AcDbCircle
10
10.2625
20
14.9375
40
0.0625
100
AcDbArc
50
90
51
180
0
LINE
5
CD
100
AcDbEntity
8
boundary
6
ByLayer
62
256
370
-1
100
AcDbLine
10
22.1375
20
15
11
10.2625
21
15
0
ARC
5
CE
100
AcDbEntity
8
boundary
6
ByLayer
62
256
370
-1
100
AcDbCircle
10
22.1375
20
14.9375
40
0.0625
100
AcDbArc
50
360
51
90
0
LINE
5
CF
100
AcDbEntity
8
boundary
6
ByLayer
62
256
370
-1
100
AcDbLine
10
10.2625
20
13.5
11
22.1375
21
13.5
0
LINE
5
D0
100
AcDbEntity
8
boundary
6
ByLayer
62
256
370
-1
100
AcDbLine
10
22.2
20
13.5625
11
22.2
21
14.9375
0
ARC
5
D1
100
AcDbEntity
8
boundary
6
ByLayer
62
256
370
-1
100
AcDbCircle
10
22.1375
20
13.5625
40
0.0625
100
AcDbArc
50
270
51
360
0
LINE
5
D2
100
AcDbEntity
8
scratch
6
ByLayer
62
256
370
-1
100
AcDbLine
10
16.2
20
13.75
11
16.2
21
14.162
0
CIRCLE
5
D3
100
AcDbEntity
8
6-32_through_hole
6
ByLayer
62
256
370
-1
100
AcDbCircle
10
16.2
20
14.162
40
0.072
0
LINE
5
D4
100
AcDbEntity
8
scratch
6
ByLayer
62
256
370
-1
100
AcDbLine
10
3.3
20
30.95
11
3.3
21
30.538
0
LINE
5
D5
100
AcDbEntity
8
scratch
6
ByLayer
62
256
370
-1
100
AcDbLine
10
9.3
20
30.95
11
9.3
21
30.538
0
LINE
5
D6
100
AcDbEntity
8
scratch
6
ByLayer
62
256
370
-1
100
AcDbLine
10
3.3
20
18.95
11
3.3
21
19.362
0
LINE
5
D7
100
AcDbEntity
8
scratch
6
ByLayer
62
256
370
-1
100
AcDbLine
10
9.3
20
18.95
11
9.3
21
19.362
0
LINE
5
D8
100
AcDbEntity
8
scratch
6
ByLayer
62
256
370
-1
100
AcDbLine
10
0.3
20
21.95
11
0.712
21
21.95
0
LINE
5
D9
100
AcDbEntity
8
scratch
6
ByLayer
62
256
370
-1
100
AcDbLine
10
0.3
20
27.95
11
0.712
21
27.95
0
LINE
5
DA
100
AcDbEntity
8
scratch
6
ByLayer
62
256
370
-1
100
AcDbLine
10
12.3
20
21.95
11
11.888
21
21.95
0
LINE
5
DB
100
AcDbEntity
8
scratch
6
ByLayer
62
256
370
-1
100
AcDbLine
10
12.3
20
27.95
11
11.888
21
27.95
0
CIRCLE
5
DC
100
AcDbEntity
8
6-32_through_hole
6
ByLayer
62
256
370
-1
100
AcDbCircle
10
3.3
20
19.362
40
0.072
0
CIRCLE
5
DD
100
AcDbEntity
8
6-32_through_hole
6
ByLayer
62
256
370
-1
100
AcDbCircle
10
0.712
20
21.95
40
0.072
0
CIRCLE
5
DE
100
AcDbEntity
8
6-32_through_hole
6
ByLayer
62
256
370
-1
100
AcDbCircle
10
0.712
20
27.95
40
0.072
0
CIRCLE
5
DF
100
AcDbEntity
8
6-32_through_hole
6
ByLayer
62
256
370
-1
100
AcDbCircle
10
3.3
20
30.538
40
0.072
0
CIRCLE
5
E0
100
AcDbEntity
8
6-32_through_hole
6
ByLayer
62
256
370
-1
100
AcDbCircle
10
9.3
20
30.538
40
0.072
0
CIRCLE
5
E1
100
AcDbEntity
8
6-32_through_hole
6
ByLayer
62
256
370
-1
100
AcDbCircle
10
9.3
20
19.362
40
0.072
0
CIRCLE
5
E2
100
AcDbEntity
8
6-32_through_hole
6
ByLayer
62
256
370
-1
100
AcDbCircle
10
11.888
20
21.95
40
0.072
0
CIRCLE
5
E3
100
AcDbEntity
8
6-32_through_hole
6
ByLayer
62
256
370
-1
100
AcDbCircle
10
11.888
20
27.95
40
0.072
0
ARC
5
E4
100
AcDbEntity
8
boundary
6
ByLayer
62
256
370
-1
100
AcDbCircle
10
12.2375
20
18.7625
40
0.0625
100
AcDbArc
50
270
51
360
0
LINE
5
E5
100
AcDbEntity
8
boundary
6
ByLayer
62
256
370
-1
100
AcDbLine
10
0.3625
20
18.7
11
12.2375
21
18.7
0
ARC
5
E6
100
AcDbEntity
8
boundary
6
ByLayer
62
256
370
-1
100
AcDbCircle
10
0.3625
20
18.7625
40
0.0625
100
AcDbArc
50
180
51
270
0
LINE
5
E7
100
AcDbEntity
8
boundary
6
ByLayer
62
256
370
-1
100
AcDbLine
10
0.3
20
31.1375
11
0.3
21
18.7625
0
ARC
5
E8
100
AcDbEntity
8
boundary
6
ByLayer
62
256
370
-1
100
AcDbCircle
10
0.3625
20
31.1375
40
0.0625
100
AcDbArc
50
90
51
180
0
LINE
5
E9
100
AcDbEntity
8
boundary
6
ByLayer
62
256
370
-1
100
AcDbLine
10
12.3
20
18.7625
11
12.3
21
31.1375
0
LINE
5
EA
100
AcDbEntity
8
boundary
6
ByLayer
62
256
370
-1
100
AcDbLine
10
12.2375
20
31.2
11
0.3625
21
31.2
0
ARC
5
EB
100
AcDbEntity
8
boundary
6
ByLayer
62
256
370
-1
100
AcDbCircle
10
12.2375
20
31.1375
40
0.0625
100
AcDbArc
50
360
51
90
0
LINE
5
EC
100
AcDbEntity
8
scratch
6
ByLayer
62
256
370
-1
100
AcDbLine
10
11.888
20
27.95
11
11.738
21
27.95
0
LINE
5
ED
100
AcDbEntity
8
scratch
6
ByLayer
62
256
370
-1
100
AcDbLine
10
11.888
20
21.95
11
11.738
21
21.95
0
LINE
5
EE
100
AcDbEntity
8
scratch
6
ByLayer
62
256
370
-1
100
AcDbLine
10
12.8
20
27.7
11
13.212
21
27.7
0
LINE
5
EF
100
AcDbEntity
8
scratch
6
ByLayer
62
256
370
-1
100
AcDbLine
10
12.8
20
21.7
11
13.212
21
21.7
0
CIRCLE
5
F0
100
AcDbEntity
8
6-32_through_hole
6
ByLayer
62
256
370
-1
100
AcDbCircle
10
13.212
20
27.7
40
0.072
0
CIRCLE
5
F1
100
AcDbEntity
8
6-32_through_hole
6
ByLayer
62
256
370
-1
100
AcDbCircle
10
13.212
20
21.7
40
0.072
0
ARC
5
F2
100
AcDbEntity
8
boundary
6
ByLayer
62
256
370
-1
100
AcDbCircle
10
12.8625
20
30.6375
40
0.0625
100
AcDbArc
50
90
51
180
0
LINE
5
F3
100
AcDbEntity
8
boundary
6
ByLayer
62
256
370
-1
100
AcDbLine
10
12.8
20
30.6375
11
12.8
21
18.7625
0
ARC
5
F4
100
AcDbEntity
8
boundary
6
ByLayer
62
256
370
-1
100
AcDbCircle
10
12.8625
20
18.7625
40
0.0625
100
AcDbArc
50
180
51
270
0
ARC
5
F5
100
AcDbEntity
8
boundary
6
ByLayer
62
256
370
-1
100
AcDbCircle
10
21.7375
20
30.6375
40
0.0625
100
AcDbArc
50
0
51
90
0
LINE
5
F6
100
AcDbEntity
8
boundary
6
ByLayer
62
256
370
-1
100
AcDbLine
10
21.8
20
18.7625
11
21.8
21
30.6375
0
ARC
5
F7
100
AcDbEntity
8
boundary
6
ByLayer
62
256
370
-1
100
AcDbCircle
10
21.7375
20
18.7625
40
0.0625
100
AcDbArc
50
270
51
0
0
LINE
5
F8
100
AcDbEntity
8
boundary
6
ByLayer
62
256
370
-1
100
AcDbLine
10
12.8625
20
30.7
11
21.7375
21
30.7
0
LINE
5
F9
100
AcDbEntity
8
boundary
6
ByLayer
62
256
370
-1
100
AcDbLine
10
12.8625
20
18.7
11
21.7375
21
18.7
0
LINE
5
FA
100
AcDbEntity
8
scratch
6
ByLayer
62
256
370
-1
100
AcDbLine
10
15.05
20
30.7
11
15.05
21
30.288
0
CIRCLE
5
FB
100
AcDbEntity
8
6-32_through_hole
6
ByLayer
62
256
370
-1
100
AcDbCircle
10
15.05
20
30.288
40
0.072
0
CIRCLE
5
FC
100
AcDbEntity
8
6-32_through_hole
6
ByLayer
62
256
370
-1
100
AcDbCircle
10
15.05
20
19.112
40
0.072
0
LINE
5
FD
100
AcDbEntity
8
scratch
6
ByLayer
62
256
370
-1
100
AcDbLine
10
19.55
20
30.7
11
19.55
21
30.288
0
CIRCLE
5
FE
100
AcDbEntity
8
6-32_through_hole
6
ByLayer
62
256
370
-1
100
AcDbCircle
10
19.55
20
30.288
40
0.072
0
CIRCLE
5
FF
100
AcDbEntity
8
6-32_through_hole
6
ByLayer
62
256
370
-1
100
AcDbCircle
10
19.55
20
19.112
40
0.072
0
LINE
5
100
100
AcDbEntity
8
scratch
6
ByLayer
62
256
370
-1
100
AcDbLine
10
15.05
20
18.7
11
15.05
21
19.112
0
LINE
5
101
100
AcDbEntity
8
scratch
6
ByLayer
62
256
370
-1
100
AcDbLine
10
19.55
20
18.7
11
19.55
21
19.112
0
LINE
5
102
100
AcDbEntity
8
scratch
6
ByLayer
62
256
370
-1
100
AcDbLine
10
21.8
20
24.7
11
21.388
21
24.7
0
CIRCLE
5
103
100
AcDbEntity
8
6-32_through_hole
6
ByLayer
62
256
370
-1
100
AcDbCircle
10
21.388
20
24.7
40
0.072
0
LINE
5
104
100
AcDbEntity
8
scratch
6
ByLayer
62
256
370
-1
100
AcDbLine
10
27.05
20
31.2
11
27.05
21
31.2
0
LINE
5
105
100
AcDbEntity
8
scratch
6
ByLayer
62
256
370
-1
100
AcDbLine
10
27.05
20
18.7
11
27.05
21
18.7
0
LINE
5
106
100
AcDbEntity
8
scratch
6
ByLayer
62
256
370
-1
100
AcDbLine
10
22.55
20
21.95
11
22.962
21
21.95
0
LINE
5
107
100
AcDbEntity
8
scratch
6
ByLayer
62
256
370
-1
100
AcDbLine
10
22.55
20
27.95
11
22.962
21
27.95
0
ARC
5
108
100
AcDbEntity
8
boundary
6
ByLayer
62
256
370
-1
100
AcDbCircle
10
22.3625
20
18.7625
40
0.0625
100
AcDbArc
50
180
51
270
0
LINE
5
109
100
AcDbEntity
8
boundary
6
ByLayer
62
256
370
-1
100
AcDbLine
10
22.3
20
31.1375
11
22.3
21
18.7625
0
ARC
5
10A
100
AcDbEntity
8
boundary
6
ByLayer
62
256
370
-1
100
AcDbCircle
10
22.3625
20
31.1375
40
0.0625
100
AcDbArc
50
90
51
180
0
LINE
5
10B
100
AcDbEntity
8
scratch
6
ByLayer
62
256
370
-1
100
AcDbLine
10
31.55
20
19.45
11
31.138
21
19.45
0
CIRCLE
5
10C
100
AcDbEntity
8
6-32_through_hole
6
ByLayer
62
256
370
-1
100
AcDbCircle
10
31.138
20
19.45
40
0.072
0
ARC
5
10D
100
AcDbEntity
8
boundary
6
ByLayer
62
256
370
-1
100
AcDbCircle
10
31.7375
20
31.1375
40
0.0625
100
AcDbArc
50
360
51
90
0
LINE
5
10E
100
AcDbEntity
8
boundary
6
ByLayer
62
256
370
-1
100
AcDbLine
10
31.8
20
18.7625
11
31.8
21
31.1375
0
ARC
5
10F
100
AcDbEntity
8
boundary
6
ByLayer
62
256
370
-1
100
AcDbCircle
10
31.7375
20
18.7625
40
0.0625
100
AcDbArc
50
270
51
360
0
LINE
5
110
100
AcDbEntity
8
scratch
6
ByLayer
62
256
370
-1
100
AcDbLine
10
24.8
20
18.95
11
24.8
21
19.362
0
LINE
5
111
100
AcDbEntity
8
scratch
6
ByLayer
62
256
370
-1
100
AcDbLine
10
24.8
20
30.95
11
24.8
21
30.538
0
CIRCLE
5
112
100
AcDbEntity
8
6-32_through_hole
6
ByLayer
62
256
370
-1
100
AcDbCircle
10
24.8
20
19.362
40
0.072
0
CIRCLE
5
113
100
AcDbEntity
8
6-32_through_hole
6
ByLayer
62
256
370
-1
100
AcDbCircle
10
24.8
20
30.538
40
0.072
0
LINE
5
114
100
AcDbEntity
8
scratch
6
ByLayer
62
256
370
-1
100
AcDbLine
10
29.3
20
18.95
11
29.3
21
19.362
0
LINE
5
115
100
AcDbEntity
8
scratch
6
ByLayer
62
256
370
-1
100
AcDbLine
10
29.3
20
30.95
11
29.3
21
30.538
0
CIRCLE
5
116
100
AcDbEntity
8
6-32_through_hole
6
ByLayer
62
256
370
-1
100
AcDbCircle
10
29.3
20
30.538
40
0.072
0
CIRCLE
5
117
100
AcDbEntity
8
6-32_through_hole
6
ByLayer
62
256
370
-1
100
AcDbCircle
10
29.3
20
19.362
40
0.072
0
LINE
5
118
100
AcDbEntity
8
boundary
6
ByLayer
62
256
370
-1
100
AcDbLine
10
22.3625
20
18.7
11
31.7375
21
18.7
0
LINE
5
119
100
AcDbEntity
8
boundary
6
ByLayer
62
256
370
-1
100
AcDbLine
10
22.3625
20
31.2
11
31.7375
21
31.2
0
CIRCLE
5
11A
100
AcDbEntity
8
6-32_through_hole
6
ByLayer
62
256
370
-1
100
AcDbCircle
10
22.962
20
21.95
40
0.072
0
CIRCLE
5
11B
100
AcDbEntity
8
6-32_through_hole
6
ByLayer
62
256
370
-1
100
AcDbCircle
10
22.962
20
27.95
40
0.072
0
CIRCLE
5
11C
100
AcDbEntity
8
camera_hole
6
ByLayer
62
256
370
-1
100
AcDbCircle
10
27.05
20
24.95
40
0.25
0
CIRCLE
5
11D
100
AcDbEntity
8
6-32_through_hole
6
ByLayer
62
256
370
-1
100
AcDbCircle
10
25.8
20
26.2
40
0.072
0
CIRCLE
5
11E
100
AcDbEntity
8
6-32_through_hole
6
ByLayer
62
256
370
-1
100
AcDbCircle
10
25.8
20
23.7
40
0.072
0
CIRCLE
5
11F
100
AcDbEntity
8
6-32_through_hole
6
ByLayer
62
256
370
-1
100
AcDbCircle
10
28.3
20
26.2
40
0.072
0
CIRCLE
5
120
100
AcDbEntity
8
6-32_through_hole
6
ByLayer
62
256
370
-1
100
AcDbCircle
10
28.3
20
23.7
40
0.072
0
ENDSEC
0
SECTION
2
OBJECTS
0
DICTIONARY
5
C
330
0
100
AcDbDictionary
281
1
3
ACAD_GROUP
350
D
0
DICTIONARY
5
D
330
C
100
AcDbDictionary
281
1
0
ENDSEC
0
EOF
