999
dxfrw 0.5.10
0
SECTION
2
HEADER
9
$ACADVER
1
AC1021
9
$HANDSEED
5
20000
9
$DWGCODEPAGE
3
ANSI_1252
9
$INSBASE
10
0
20
0
30
0
9
$EXTMIN
10
0
20
0
30
0
9
$EXTMAX
10
43
20
22
30
0
9
$LIMMIN
10
0
20
0
9
$LIMMAX
10
420
20
297
9
$ORTHOMODE
70
0
9
$LTSCALE
40
1
9
$TEXTSTYLE
7
STANDARD
9
$CLAYER
8
dimension
9
$DIMASZ
40
0.1
9
$DIMLFAC
40
1
9
$DIMSCALE
40
1
9
$DIMEXO
40
0.025
9
$DIMEXE
40
0.05
9
$DIMTXT
40
0.1
9
$DIMTSZ
40
0
9
$DIMAUNIT
70
0
9
$DIMADEC
70
0
9
$DIMLUNIT
70
2
9
$DIMSTYLE
2
STANDARD
9
$DIMGAP
40
0.025
9
$DIMTIH
70
0
9
$LUNITS
70
2
9
$LUPREC
70
4
9
$AUNITS
70
0
9
$AUPREC
70
2
9
$SPLINESEGS
70
8
9
$GRIDMODE
70
1
9
$SNAPSTYLE
70
0
9
$PINSBASE
10
0
20
0
30
0
9
$PLIMMIN
10
0
20
0
9
$PLIMMAX
10
4.77216932881e-11
20
6.7492109079e-11
9
$INSUNITS
70
1
9
$PSVPSCALE
40
1
0
ENDSEC
0
SECTION
2
CLASSES
0
ENDSEC
0
SECTION
2
TABLES
0
TABLE
2
VPORT
5
8
330
0
100
AcDbSymbolTable
70
1
0
VPORT
5
31
330
2
100
AcDbSymbolTableRecord
100
AcDbViewportTableRecord
2
*ACTIVE
70
0
10
0
20
0
11
1
21
1
12
29.9368448001
22
16.8034304001
13
0
23
0
14
10
24
10
15
10
25
10
16
0
26
0
36
1
17
0
27
0
37
0
40
39.9507456001
41
1.81102362205
42
50
43
0
44
0
50
0
51
0
71
0
72
100
73
1
74
3
75
0
76
1
77
0
78
0
281
0
65
1
110
0
120
0
130
0
111
1
121
0
131
0
112
0
122
1
132
0
79
0
146
0
348
10020
60
7
61
5
292
1
282
1
141
0
142
0
63
250
421
3358443
0
ENDTAB
0
TABLE
2
LTYPE
5
5
330
0
100
AcDbSymbolTable
70
4
0
LTYPE
5
14
330
5
100
AcDbSymbolTableRecord
100
AcDbLinetypeTableRecord
2
ByBlock
70
0
3

72
65
73
0
40
0
0
LTYPE
5
15
330
5
100
AcDbSymbolTableRecord
100
AcDbLinetypeTableRecord
2
ByLayer
70
0
3

72
65
73
0
40
0
0
LTYPE
5
16
330
5
100
AcDbSymbolTableRecord
100
AcDbLinetypeTableRecord
2
Continuous
70
0
3
Solid line
72
65
73
0
40
0
0
LTYPE
5
32
330
5
100
AcDbSymbolTableRecord
100
AcDbLinetypeTableRecord
2
DOT
70
0
3
Dot . . . . . . . . . . . . . . . . . . . . . .
72
65
73
2
40
6.35
49
0
74
0
49
-6.35
74
0
0
LTYPE
5
33
330
5
100
AcDbSymbolTableRecord
100
AcDbLinetypeTableRecord
2
DOT2
70
0
3
Dot (.5x) .....................................
72
65
73
2
40
3.175
49
0
74
0
49
-3.175
74
0
0
LTYPE
5
34
330
5
100
AcDbSymbolTableRecord
100
AcDbLinetypeTableRecord
2
DOTX2
70
0
3
Dot (2x) .  .  .  .  .  .  .  .  .  .  .  .  .
72
65
73
2
40
12.7
49
0
74
0
49
-12.7
74
0
0
LTYPE
5
35
330
5
100
AcDbSymbolTableRecord
100
AcDbLinetypeTableRecord
2
DASHED
70
0
3
Dot . . . . . . . . . . . . . . . . . . . . . .
72
65
73
2
40
19.05
49
12.7
74
0
49
-6.35
74
0
0
LTYPE
5
36
330
5
100
AcDbSymbolTableRecord
100
AcDbLinetypeTableRecord
2
DASHED2
70
0
3
Dashed (.5x) _ _ _ _ _ _ _ _ _ _ _ _ _ _ _ _ _
72
65
73
2
40
9.525
49
6.35
74
0
49
-3.175
74
0
0
LTYPE
5
37
330
5
100
AcDbSymbolTableRecord
100
AcDbLinetypeTableRecord
2
DASHEDX2
70
0
3
Dashed (2x) ____  ____  ____  ____  ____  ___
72
65
73
2
40
38.1
49
25.4
74
0
49
-12.7
74
0
0
LTYPE
5
38
330
5
100
AcDbSymbolTableRecord
100
AcDbLinetypeTableRecord
2
DASHDOT
70
0
3
Dash dot __ . __ . __ . __ . __ . __ . __ . __
72
65
73
4
40
25.4
49
12.7
74
0
49
-6.35
74
0
49
0
74
0
49
-6.35
74
0
0
LTYPE
5
39
330
5
100
AcDbSymbolTableRecord
100
AcDbLinetypeTableRecord
2
DASHDOT2
70
0
3
Dash dot (.5x) _._._._._._._._._._._._._._._.
72
65
73
4
40
12.7
49
6.35
74
0
49
-3.175
74
0
49
0
74
0
49
-3.175
74
0
0
LTYPE
5
3A
330
5
100
AcDbSymbolTableRecord
100
AcDbLinetypeTableRecord
2
DASHDOTX2
70
0
3
Dash dot (2x) ____  .  ____  .  ____  .  ___
72
65
73
4
40
50.8
49
25.4
74
0
49
-12.7
74
0
49
0
74
0
49
-12.7
74
0
0
LTYPE
5
3B
330
5
100
AcDbSymbolTableRecord
100
AcDbLinetypeTableRecord
2
DIVIDE
70
0
3
Divide ____ . . ____ . . ____ . . ____ . . ____
72
65
73
6
40
31.75
49
12.7
74
0
49
-6.35
74
0
49
0
74
0
49
-6.35
74
0
49
0
74
0
49
-6.35
74
0
0
LTYPE
5
3C
330
5
100
AcDbSymbolTableRecord
100
AcDbLinetypeTableRecord
2
DIVIDE2
70
0
3
Divide (.5x) __..__..__..__..__..__..__..__.._
72
65
73
6
40
15.875
49
6.35
74
0
49
-3.175
74
0
49
0
74
0
49
-3.175
74
0
49
0
74
0
49
-3.175
74
0
0
LTYPE
5
3D
330
5
100
AcDbSymbolTableRecord
100
AcDbLinetypeTableRecord
2
DIVIDEX2
70
0
3
Divide (2x) ________  .  .  ________  .  .  _
72
65
73
6
40
63.5
49
25.4
74
0
49
-12.7
74
0
49
0
74
0
49
-12.7
74
0
49
0
74
0
49
-12.7
74
0
0
LTYPE
5
3E
330
5
100
AcDbSymbolTableRecord
100
AcDbLinetypeTableRecord
2
BORDER
70
0
3
Border __ __ . __ __ . __ __ . __ __ . __ __ .
72
65
73
6
40
44.45
49
12.7
74
0
49
-6.35
74
0
49
12.7
74
0
49
-6.35
74
0
49
0
74
0
49
-6.35
74
0
0
LTYPE
5
3F
330
5
100
AcDbSymbolTableRecord
100
AcDbLinetypeTableRecord
2
BORDER2
70
0
3
Border (.5x) __.__.__.__.__.__.__.__.__.__.__.
72
65
73
6
40
22.225
49
6.35
74
0
49
-3.175
74
0
49
6.35
74
0
49
-3.175
74
0
49
0
74
0
49
-3.175
74
0
0
LTYPE
5
40
330
5
100
AcDbSymbolTableRecord
100
AcDbLinetypeTableRecord
2
BORDERX2
70
0
3
Border (2x) ____  ____  .  ____  ____  .  ___
72
65
73
6
40
88.9
49
25.4
74
0
49
-12.7
74
0
49
25.4
74
0
49
-12.7
74
0
49
0
74
0
49
-12.7
74
0
0
LTYPE
5
41
330
5
100
AcDbSymbolTableRecord
100
AcDbLinetypeTableRecord
2
CENTER
70
0
3
Center ____ _ ____ _ ____ _ ____ _ ____ _ ____
72
65
73
4
40
50.8
49
31.75
74
0
49
-6.35
74
0
49
6.35
74
0
49
-6.35
74
0
0
LTYPE
5
42
330
5
100
AcDbSymbolTableRecord
100
AcDbLinetypeTableRecord
2
CENTER2
70
0
3
Center (.5x) ___ _ ___ _ ___ _ ___ _ ___ _ ___
72
65
73
4
40
28.575
49
19.05
74
0
49
-3.175
74
0
49
3.175
74
0
49
-3.175
74
0
0
LTYPE
5
43
330
5
100
AcDbSymbolTableRecord
100
AcDbLinetypeTableRecord
2
CENTERX2
70
0
3
Center (2x) ________  __  ________  __  _____
72
65
73
4
40
101.6
49
63.5
74
0
49
-12.7
74
0
49
12.7
74
0
49
-12.7
74
0
0
ENDTAB
0
TABLE
2
LAYER
5
2
330
0
100
AcDbSymbolTable
70
1
0
LAYER
5
10
330
2
100
AcDbSymbolTableRecord
100
AcDbLayerTableRecord
2
0
70
0
62
7
6
CONTINUOUS
370
0
390
F
0
LAYER
5
44
330
2
100
AcDbSymbolTableRecord
100
AcDbLayerTableRecord
2
material
70
0
62
16
420
8388608
6
CONTINUOUS
370
0
390
F
0
LAYER
5
45
330
2
100
AcDbSymbolTableRecord
100
AcDbLayerTableRecord
2
boundary
70
0
62
5
6
CONTINUOUS
370
0
390
F
0
LAYER
5
46
330
2
100
AcDbSymbolTableRecord
100
AcDbLayerTableRecord
2
6-32_through_hole
70
0
62
3
6
CONTINUOUS
370
0
390
F
0
LAYER
5
47
330
2
100
AcDbSymbolTableRecord
100
AcDbLayerTableRecord
2
10-32_thread_insert_hole
70
0
62
2
6
CONTINUOUS
370
0
390
F
0
LAYER
5
48
330
2
100
AcDbSymbolTableRecord
100
AcDbLayerTableRecord
2
8-32_through_hole
70
0
62
30
420
16744448
6
CONTINUOUS
370
0
390
F
0
LAYER
5
49
330
2
100
AcDbSymbolTableRecord
100
AcDbLayerTableRecord
2
camera_hole
70
0
62
4
6
CONTINUOUS
370
0
390
F
0
LAYER
5
4A
330
2
100
AcDbSymbolTableRecord
100
AcDbLayerTableRecord
2
8-32_insert_hole
70
0
62
6
6
CONTINUOUS
370
0
390
F
0
LAYER
5
4B
330
2
100
AcDbSymbolTableRecord
100
AcDbLayerTableRecord
2
camera_slot
70
0
62
3
6
CONTINUOUS
370
0
390
F
0
LAYER
5
4C
330
2
100
AcDbSymbolTableRecord
100
AcDbLayerTableRecord
2
dimension
70
0
62
7
6
CONTINUOUS
370
0
390
F
0
ENDTAB
0
TABLE
2
STYLE
5
3
330
0
100
AcDbSymbolTable
70
3
0
STYLE
5
4D
330
2
100
AcDbSymbolTableRecord
100
AcDbTextStyleTableRecord
2
Standard
70
0
40
0
41
1
50
0
71
0
42
1
3
txt
4

0
ENDTAB
0
TABLE
2
VIEW
5
6
330
0
100
AcDbSymbolTable
70
0
0
ENDTAB
0
TABLE
2
UCS
5
7
330
0
100
AcDbSymbolTable
70
0
0
ENDTAB
0
TABLE
2
APPID
5
9
330
0
100
AcDbSymbolTable
70
1
0
APPID
5
12
330
9
100
AcDbSymbolTableRecord
100
AcDbRegAppTableRecord
2
ACAD
70
0
0
ENDTAB
0
TABLE
2
DIMSTYLE
5
A
330
0
100
AcDbSymbolTable
70
1
100
AcDbDimStyleTable
71
1
0
DIMSTYLE
105
4E
330
A
100
AcDbSymbolTableRecord
100
AcDbDimStyleTableRecord
2
Standard
70
0
40
1
41
0.1
42
0.025
43
0.38
44
0.05
45
0
46
0
47
0
48
0
140
0.1
141
0.09
142
0
143
25.4
144
1
145
0
146
1
147
0.025
148
0
71
0
72
0
73
0
74
1
75
0
76
0
77
0
78
0
79
0
170
0
171
2
172
0
173
0
174
0
175
0
176
0
177
0
178
0
179
0
271
4
272
4
273
2
274
2
275
0
276
0
277
2
278
46
279
0
280
0
281
0
282
0
283
1
284
0
285
0
286
0
288
0
289
3
340
Standard
341

371
-2
372
-2
0
ENDTAB
0
TABLE
2
BLOCK_RECORD
5
1
330
0
100
AcDbSymbolTable
70
2
0
BLOCK_RECORD
5
1F
330
1
100
AcDbSymbolTableRecord
100
AcDbBlockTableRecord
2
*Model_Space
70
0
280
1
281
0
0
BLOCK_RECORD
5
1E
330
1
100
AcDbSymbolTableRecord
100
AcDbBlockTableRecord
2
*Paper_Space
70
0
280
1
281
0
0
BLOCK_RECORD
5
4F
330
1
100
AcDbSymbolTableRecord
100
AcDbBlockTableRecord
2
floor-0
70
0
280
1
281
0
0
BLOCK_RECORD
5
52
330
1
100
AcDbSymbolTableRecord
100
AcDbBlockTableRecord
2
front_door-0
70
0
280
1
281
0
0
BLOCK_RECORD
5
55
330
1
100
AcDbSymbolTableRecord
100
AcDbBlockTableRecord
2
front_left-0
70
0
280
1
281
0
0
BLOCK_RECORD
5
58
330
1
100
AcDbSymbolTableRecord
100
AcDbBlockTableRecord
2
rear-0
70
0
280
1
281
0
0
BLOCK_RECORD
5
5B
330
1
100
AcDbSymbolTableRecord
100
AcDbBlockTableRecord
2
rear-1
70
0
280
1
281
0
0
BLOCK_RECORD
5
5E
330
1
100
AcDbSymbolTableRecord
100
AcDbBlockTableRecord
2
roof-0
70
0
280
1
281
0
0
BLOCK_RECORD
5
61
330
1
100
AcDbSymbolTableRecord
100
AcDbBlockTableRecord
2
side_left-0
70
0
280
1
281
0
0
BLOCK_RECORD
5
64
330
1
100
AcDbSymbolTableRecord
100
AcDbBlockTableRecord
2
side_right-0
70
0
280
1
281
0
0
BLOCK_RECORD
5
67
330
1
100
AcDbSymbolTableRecord
100
AcDbBlockTableRecord
2
rear-2
70
0
280
1
281
0
0
BLOCK_RECORD
5
6A
330
1
100
AcDbSymbolTableRecord
100
AcDbBlockTableRecord
2
camera_mount_plate-0
70
0
280
1
281
0
0
BLOCK_RECORD
5
6D
330
1
100
AcDbSymbolTableRecord
100
AcDbBlockTableRecord
2
front_door-1
70
0
280
1
281
0
0
ENDTAB
0
ENDSEC
0
SECTION
2
BLOCKS
0
BLOCK
5
20
330
1F
100
AcDbEntity
8
0
100
AcDbBlockBegin
2
*Model_Space
70
0
10
0
20
0
30
0
3
*Model_Space
1

0
ENDBLK
5
21
330
1F
100
AcDbEntity
8
0
100
AcDbBlockEnd
0
BLOCK
5
1C
330
1B
100
AcDbEntity
8
0
100
AcDbBlockBegin
2
*Paper_Space
70
0
10
0
20
0
30
0
3
*Paper_Space
1

0
ENDBLK
5
1D
330
1F
100
AcDbEntity
8
0
100
AcDbBlockEnd
0
BLOCK
5
50
330
4F
100
AcDbEntity
8
0
100
AcDbBlockBegin
2
floor-0
70
0
10
0
20
0
3
floor-0
1

0
CIRCLE
5
70
100
AcDbEntity
8
6-32_through_hole
6
ByLayer
62
256
370
-1
100
AcDbCircle
10
-3
20
4.088
40
0.072
0
CIRCLE
5
71
100
AcDbEntity
8
6-32_through_hole
6
ByLayer
62
256
370
-1
100
AcDbCircle
10
3
20
4.088
40
0.072
0
ARC
5
72
100
AcDbEntity
8
boundary
6
ByLayer
62
256
370
-1
100
AcDbCircle
10
-6.1875
20
4.6875
40
0.0625
100
AcDbArc
50
90
51
180
0
LINE
5
73
100
AcDbEntity
8
boundary
6
ByLayer
62
256
370
-1
100
AcDbLine
10
6.1875
20
4.75
11
-6.1875
21
4.75
0
ARC
5
74
100
AcDbEntity
8
boundary
6
ByLayer
62
256
370
-1
100
AcDbCircle
10
6.1875
20
4.6875
40
0.0625
100
AcDbArc
50
0
51
90
0
CIRCLE
5
75
100
AcDbEntity
8
6-32_through_hole
6
ByLayer
62
256
370
-1
100
AcDbCircle
10
-5.5
20
-4.088
40
0.072
0
ARC
5
76
100
AcDbEntity
8
boundary
6
ByLayer
62
256
370
-1
100
AcDbCircle
10
-6.1875
20
-4.6875
40
0.0625
100
AcDbArc
50
180
51
270
0
LINE
5
77
100
AcDbEntity
8
boundary
6
ByLayer
62
256
370
-1
100
AcDbLine
10
-6.1875
20
-4.75
11
6.1875
21
-4.75
0
ARC
5
78
100
AcDbEntity
8
boundary
6
ByLayer
62
256
370
-1
100
AcDbCircle
10
6.1875
20
-4.6875
40
0.0625
100
AcDbArc
50
270
51
0
0
LINE
5
79
100
AcDbEntity
8
boundary
6
ByLayer
62
256
370
-1
100
AcDbLine
10
-6.25
20
4.6875
11
-6.25
21
-4.6875
0
LINE
5
7A
100
AcDbEntity
8
boundary
6
ByLayer
62
256
370
-1
100
AcDbLine
10
6.25
20
4.6875
11
6.25
21
-4.6875
0
CIRCLE
5
7B
100
AcDbEntity
8
6-32_through_hole
6
ByLayer
62
256
370
-1
100
AcDbCircle
10
5.588
20
-2.25
40
0.072
0
CIRCLE
5
7C
100
AcDbEntity
8
6-32_through_hole
6
ByLayer
62
256
370
-1
100
AcDbCircle
10
-5.588
20
-2.25
40
0.072
0
CIRCLE
5
7D
100
AcDbEntity
8
6-32_through_hole
6
ByLayer
62
256
370
-1
100
AcDbCircle
10
-5.588
20
2.25
40
0.072
0
CIRCLE
5
7E
100
AcDbEntity
8
6-32_through_hole
6
ByLayer
62
256
370
-1
100
AcDbCircle
10
5.588
20
2.25
40
0.072
0
ENDBLK
5
51
330
4F
100
AcDbEntity
8
0
100
AcDbBlockEnd
0
BLOCK
5
53
330
52
100
AcDbEntity
8
0
100
AcDbBlockBegin
2
front_door-0
70
0
10
0
20
0
3
front_door-0
1

0
CIRCLE
5
7F
100
AcDbEntity
8
10-32_thread_insert_hole
6
ByLayer
62
256
370
-1
100
AcDbCircle
10
-4.875
20
3.53125
40
0.13625
0
CIRCLE
5
80
100
AcDbEntity
8
10-32_thread_insert_hole
6
ByLayer
62
256
370
-1
100
AcDbCircle
10
-4.875
20
2.46875
40
0.13625
0
CIRCLE
5
81
100
AcDbEntity
8
10-32_thread_insert_hole
6
ByLayer
62
256
370
-1
100
AcDbCircle
10
-4.875
20
-2.46875
40
0.13625
0
CIRCLE
5
82
100
AcDbEntity
8
10-32_thread_insert_hole
6
ByLayer
62
256
370
-1
100
AcDbCircle
10
-4.875
20
-3.53125
40
0.13625
0
CIRCLE
5
83
100
AcDbEntity
8
8-32_through_hole
6
ByLayer
62
256
370
-1
100
AcDbCircle
10
4.5
20
2
40
0.08475
0
CIRCLE
5
84
100
AcDbEntity
8
8-32_through_hole
6
ByLayer
62
256
370
-1
100
AcDbCircle
10
4.5
20
-2
40
0.08475
0
ARC
5
85
100
AcDbEntity
8
boundary
6
ByLayer
62
256
370
-1
100
AcDbCircle
10
-5.4375
20
5.9375
40
0.0625
100
AcDbArc
50
90
51
180
0
LINE
5
86
100
AcDbEntity
8
boundary
6
ByLayer
62
256
370
-1
100
AcDbLine
10
-5.5
20
5.9375
11
-5.5
21
-5.9375
0
ARC
5
87
100
AcDbEntity
8
boundary
6
ByLayer
62
256
370
-1
100
AcDbCircle
10
-5.4375
20
-5.9375
40
0.0625
100
AcDbArc
50
180
51
270
0
LINE
5
88
100
AcDbEntity
8
boundary
6
ByLayer
62
256
370
-1
100
AcDbLine
10
5.4375
20
6
11
-5.4375
21
6
0
ARC
5
89
100
AcDbEntity
8
boundary
6
ByLayer
62
256
370
-1
100
AcDbCircle
10
5.4375
20
5.9375
40
0.0625
100
AcDbArc
50
0
51
90
0
LINE
5
8A
100
AcDbEntity
8
boundary
6
ByLayer
62
256
370
-1
100
AcDbLine
10
-5.4375
20
-6
11
5.4375
21
-6
0
LINE
5
8B
100
AcDbEntity
8
boundary
6
ByLayer
62
256
370
-1
100
AcDbLine
10
5.5
20
-5.9375
11
5.5
21
5.9375
0
ARC
5
8C
100
AcDbEntity
8
boundary
6
ByLayer
62
256
370
-1
100
AcDbCircle
10
5.4375
20
-5.9375
40
0.0625
100
AcDbArc
50
270
51
0
0
ENDBLK
5
54
330
52
100
AcDbEntity
8
0
100
AcDbBlockEnd
0
BLOCK
5
56
330
55
100
AcDbEntity
8
0
100
AcDbBlockBegin
2
front_left-0
70
0
10
0
20
0
3
front_left-0
1

0
CIRCLE
5
8D
100
AcDbEntity
8
6-32_through_hole
6
ByLayer
62
256
370
-1
100
AcDbCircle
10
0
20
5.588
40
0.072
0
CIRCLE
5
8E
100
AcDbEntity
8
6-32_through_hole
6
ByLayer
62
256
370
-1
100
AcDbCircle
10
-0.088
20
3
40
0.072
0
CIRCLE
5
8F
100
AcDbEntity
8
6-32_through_hole
6
ByLayer
62
256
370
-1
100
AcDbCircle
10
-0.088
20
-3
40
0.072
0
CIRCLE
5
90
100
AcDbEntity
8
6-32_through_hole
6
ByLayer
62
256
370
-1
100
AcDbCircle
10
0
20
-5.588
40
0.072
0
CIRCLE
5
91
100
AcDbEntity
8
10-32_thread_insert_hole
6
ByLayer
62
256
370
-1
100
AcDbCircle
10
0.125
20
3.53125
40
0.13625
0
CIRCLE
5
92
100
AcDbEntity
8
10-32_thread_insert_hole
6
ByLayer
62
256
370
-1
100
AcDbCircle
10
0.125
20
2.46875
40
0.13625
0
CIRCLE
5
93
100
AcDbEntity
8
10-32_thread_insert_hole
6
ByLayer
62
256
370
-1
100
AcDbCircle
10
0.125
20
-2.46875
40
0.13625
0
CIRCLE
5
94
100
AcDbEntity
8
10-32_thread_insert_hole
6
ByLayer
62
256
370
-1
100
AcDbCircle
10
0.125
20
-3.53125
40
0.13625
0
ARC
5
95
100
AcDbEntity
8
boundary
6
ByLayer
62
256
370
-1
100
AcDbCircle
10
-0.6875
20
5.9375
40
0.0625
100
AcDbArc
50
90
51
180
0
LINE
5
96
100
AcDbEntity
8
boundary
6
ByLayer
62
256
370
-1
100
AcDbLine
10
0.6875
20
6
11
-0.6875
21
6
0
ARC
5
97
100
AcDbEntity
8
boundary
6
ByLayer
62
256
370
-1
100
AcDbCircle
10
0.6875
20
5.9375
40
0.0625
100
AcDbArc
50
0
51
90
0
LINE
5
98
100
AcDbEntity
8
boundary
6
ByLayer
62
256
370
-1
100
AcDbLine
10
0.75
20
-5.9375
11
0.75
21
5.9375
0
ARC
5
99
100
AcDbEntity
8
boundary
6
ByLayer
62
256
370
-1
100
AcDbCircle
10
0.6875
20
-5.9375
40
0.0625
100
AcDbArc
50
270
51
0
0
LINE
5
9A
100
AcDbEntity
8
boundary
6
ByLayer
62
256
370
-1
100
AcDbLine
10
-0.75
20
5.9375
11
-0.75
21
-5.9375
0
LINE
5
9B
100
AcDbEntity
8
boundary
6
ByLayer
62
256
370
-1
100
AcDbLine
10
-0.6875
20
-6
11
0.6875
21
-6
0
ARC
5
9C
100
AcDbEntity
8
boundary
6
ByLayer
62
256
370
-1
100
AcDbCircle
10
-0.6875
20
-5.9375
40
0.0625
100
AcDbArc
50
180
51
270
0
ENDBLK
5
57
330
55
100
AcDbEntity
8
0
100
AcDbBlockEnd
0
BLOCK
5
59
330
58
100
AcDbEntity
8
0
100
AcDbBlockBegin
2
rear-0
70
0
10
0
20
0
3
rear-0
1

0
CIRCLE
5
9D
100
AcDbEntity
8
6-32_through_hole
6
ByLayer
62
256
370
-1
100
AcDbCircle
10
-5.588
20
3
40
0.072
0
CIRCLE
5
9E
100
AcDbEntity
8
6-32_through_hole
6
ByLayer
62
256
370
-1
100
AcDbCircle
10
-3
20
5.588
40
0.072
0
CIRCLE
5
9F
100
AcDbEntity
8
6-32_through_hole
6
ByLayer
62
256
370
-1
100
AcDbCircle
10
3
20
5.588
40
0.072
0
CIRCLE
5
A0
100
AcDbEntity
8
6-32_through_hole
6
ByLayer
62
256
370
-1
100
AcDbCircle
10
5.588
20
3
40
0.072
0
CIRCLE
5
A1
100
AcDbEntity
8
6-32_through_hole
6
ByLayer
62
256
370
-1
100
AcDbCircle
10
5.588
20
-3
40
0.072
0
CIRCLE
5
A2
100
AcDbEntity
8
6-32_through_hole
6
ByLayer
62
256
370
-1
100
AcDbCircle
10
-5.588
20
-3
40
0.072
0
CIRCLE
5
A3
100
AcDbEntity
8
6-32_through_hole
6
ByLayer
62
256
370
-1
100
AcDbCircle
10
-3
20
-5.588
40
0.072
0
CIRCLE
5
A4
100
AcDbEntity
8
6-32_through_hole
6
ByLayer
62
256
370
-1
100
AcDbCircle
10
3
20
-5.588
40
0.072
0
ARC
5
A5
100
AcDbEntity
8
boundary
6
ByLayer
62
256
370
-1
100
AcDbCircle
10
-6.1875
20
-5.9375
40
0.0625
100
AcDbArc
50
180
51
270
0
LINE
5
A6
100
AcDbEntity
8
boundary
6
ByLayer
62
256
370
-1
100
AcDbLine
10
-6.25
20
5.9375
11
-6.25
21
-5.9375
0
ARC
5
A7
100
AcDbEntity
8
boundary
6
ByLayer
62
256
370
-1
100
AcDbCircle
10
-6.1875
20
5.9375
40
0.0625
100
AcDbArc
50
90
51
180
0
LINE
5
A8
100
AcDbEntity
8
boundary
6
ByLayer
62
256
370
-1
100
AcDbLine
10
6.1875
20
6
11
-6.1875
21
6
0
ARC
5
A9
100
AcDbEntity
8
boundary
6
ByLayer
62
256
370
-1
100
AcDbCircle
10
6.1875
20
5.9375
40
0.0625
100
AcDbArc
50
0
51
90
0
LINE
5
AA
100
AcDbEntity
8
boundary
6
ByLayer
62
256
370
-1
100
AcDbLine
10
-6.1875
20
-6
11
6.1875
21
-6
0
LINE
5
AB
100
AcDbEntity
8
boundary
6
ByLayer
62
256
370
-1
100
AcDbLine
10
6.25
20
-5.9375
11
6.25
21
5.9375
0
ARC
5
AC
100
AcDbEntity
8
boundary
6
ByLayer
62
256
370
-1
100
AcDbCircle
10
6.1875
20
-5.9375
40
0.0625
100
AcDbArc
50
270
51
0
0
ENDBLK
5
5A
330
58
100
AcDbEntity
8
0
100
AcDbBlockEnd
0
BLOCK
5
5C
330
5B
100
AcDbEntity
8
0
100
AcDbBlockBegin
2
rear-1
70
0
10
0
20
0
3
rear-1
1

0
CIRCLE
5
AD
100
AcDbEntity
8
6-32_through_hole
6
ByLayer
62
256
370
-1
100
AcDbCircle
10
-5.588
20
3
40
0.072
0
CIRCLE
5
AE
100
AcDbEntity
8
6-32_through_hole
6
ByLayer
62
256
370
-1
100
AcDbCircle
10
-3
20
5.588
40
0.072
0
CIRCLE
5
AF
100
AcDbEntity
8
6-32_through_hole
6
ByLayer
62
256
370
-1
100
AcDbCircle
10
3
20
5.588
40
0.072
0
CIRCLE
5
B0
100
AcDbEntity
8
6-32_through_hole
6
ByLayer
62
256
370
-1
100
AcDbCircle
10
5.588
20
3
40
0.072
0
CIRCLE
5
B1
100
AcDbEntity
8
6-32_through_hole
6
ByLayer
62
256
370
-1
100
AcDbCircle
10
5.588
20
-3
40
0.072
0
CIRCLE
5
B2
100
AcDbEntity
8
6-32_through_hole
6
ByLayer
62
256
370
-1
100
AcDbCircle
10
-5.588
20
-3
40
0.072
0
CIRCLE
5
B3
100
AcDbEntity
8
6-32_through_hole
6
ByLayer
62
256
370
-1
100
AcDbCircle
10
-3
20
-5.588
40
0.072
0
CIRCLE
5
B4
100
AcDbEntity
8
6-32_through_hole
6
ByLayer
62
256
370
-1
100
AcDbCircle
10
3
20
-5.588
40
0.072
0
ARC
5
B5
100
AcDbEntity
8
boundary
6
ByLayer
62
256
370
-1
100
AcDbCircle
10
-6.1875
20
-5.9375
40
0.0625
100
AcDbArc
50
180
51
270
0
LINE
5
B6
100
AcDbEntity
8
boundary
6
ByLayer
62
256
370
-1
100
AcDbLine
10
-6.25
20
5.9375
11
-6.25
21
-5.9375
0
ARC
5
B7
100
AcDbEntity
8
boundary
6
ByLayer
62
256
370
-1
100
AcDbCircle
10
-6.1875
20
5.9375
40
0.0625
100
AcDbArc
50
90
51
180
0
LINE
5
B8
100
AcDbEntity
8
boundary
6
ByLayer
62
256
370
-1
100
AcDbLine
10
6.1875
20
6
11
-6.1875
21
6
0
ARC
5
B9
100
AcDbEntity
8
boundary
6
ByLayer
62
256
370
-1
100
AcDbCircle
10
6.1875
20
5.9375
40
0.0625
100
AcDbArc
50
0
51
90
0
LINE
5
BA
100
AcDbEntity
8
boundary
6
ByLayer
62
256
370
-1
100
AcDbLine
10
-6.1875
20
-6
11
6.1875
21
-6
0
LINE
5
BB
100
AcDbEntity
8
boundary
6
ByLayer
62
256
370
-1
100
AcDbLine
10
6.25
20
-5.9375
11
6.25
21
5.9375
0
ARC
5
BC
100
AcDbEntity
8
boundary
6
ByLayer
62
256
370
-1
100
AcDbCircle
10
6.1875
20
-5.9375
40
0.0625
100
AcDbArc
50
270
51
0
0
ENDBLK
5
5D
330
5B
100
AcDbEntity
8
0
100
AcDbBlockEnd
0
BLOCK
5
5F
330
5E
100
AcDbEntity
8
0
100
AcDbBlockBegin
2
roof-0
70
0
10
0
20
0
3
roof-0
1

0
CIRCLE
5
BD
100
AcDbEntity
8
6-32_through_hole
6
ByLayer
62
256
370
-1
100
AcDbCircle
10
-3
20
4.088
40
0.072
0
CIRCLE
5
BE
100
AcDbEntity
8
6-32_through_hole
6
ByLayer
62
256
370
-1
100
AcDbCircle
10
3
20
4.088
40
0.072
0
CIRCLE
5
BF
100
AcDbEntity
8
6-32_through_hole
6
ByLayer
62
256
370
-1
100
AcDbCircle
10
-5.5
20
-4.088
40
0.072
0
CIRCLE
5
C0
100
AcDbEntity
8
6-32_through_hole
6
ByLayer
62
256
370
-1
100
AcDbCircle
10
-5.588
20
2.25
40
0.072
0
CIRCLE
5
C1
100
AcDbEntity
8
6-32_through_hole
6
ByLayer
62
256
370
-1
100
AcDbCircle
10
5.588
20
2.25
40
0.072
0
CIRCLE
5
C2
100
AcDbEntity
8
6-32_through_hole
6
ByLayer
62
256
370
-1
100
AcDbCircle
10
5.588
20
-2.25
40
0.072
0
CIRCLE
5
C3
100
AcDbEntity
8
6-32_through_hole
6
ByLayer
62
256
370
-1
100
AcDbCircle
10
-5.588
20
-2.25
40
0.072
0
CIRCLE
5
C4
100
AcDbEntity
8
camera_hole
6
ByLayer
62
256
370
-1
100
AcDbCircle
10
0
20
0
40
1.45
0
CIRCLE
5
C5
100
AcDbEntity
8
8-32_insert_hole
6
ByLayer
62
256
370
-1
100
AcDbCircle
10
-2.1
20
2.51
40
0.1155
0
CIRCLE
5
C6
100
AcDbEntity
8
8-32_insert_hole
6
ByLayer
62
256
370
-1
100
AcDbCircle
10
-2.1
20
3.51
40
0.1155
0
CIRCLE
5
C7
100
AcDbEntity
8
8-32_insert_hole
6
ByLayer
62
256
370
-1
100
AcDbCircle
10
2.1
20
2.51
40
0.1155
0
CIRCLE
5
C8
100
AcDbEntity
8
8-32_insert_hole
6
ByLayer
62
256
370
-1
100
AcDbCircle
10
2.1
20
3.51
40
0.1155
0
CIRCLE
5
C9
100
AcDbEntity
8
6-32_through_hole
6
ByLayer
62
256
370
-1
100
AcDbCircle
10
-2.5
20
1
40
0.072
0
CIRCLE
5
CA
100
AcDbEntity
8
6-32_through_hole
6
ByLayer
62
256
370
-1
100
AcDbCircle
10
-2.5
20
-1
40
0.072
0
CIRCLE
5
CB
100
AcDbEntity
8
6-32_through_hole
6
ByLayer
62
256
370
-1
100
AcDbCircle
10
2.5
20
1
40
0.072
0
CIRCLE
5
CC
100
AcDbEntity
8
6-32_through_hole
6
ByLayer
62
256
370
-1
100
AcDbCircle
10
2.5
20
-1
40
0.072
0
ENDBLK
5
60
330
5E
100
AcDbEntity
8
0
100
AcDbBlockEnd
0
BLOCK
5
62
330
61
100
AcDbEntity
8
0
100
AcDbBlockBegin
2
side_left-0
70
0
10
0
20
0
3
side_left-0
1

0
CIRCLE
5
CD
100
AcDbEntity
8
6-32_through_hole
6
ByLayer
62
256
370
-1
100
AcDbCircle
10
-4.088
20
3
40
0.072
0
CIRCLE
5
CE
100
AcDbEntity
8
6-32_through_hole
6
ByLayer
62
256
370
-1
100
AcDbCircle
10
-4.088
20
-3
40
0.072
0
ARC
5
CF
100
AcDbEntity
8
boundary
6
ByLayer
62
256
370
-1
100
AcDbCircle
10
-4.4375
20
5.9375
40
0.0625
100
AcDbArc
50
90
51
180
0
LINE
5
D0
100
AcDbEntity
8
boundary
6
ByLayer
62
256
370
-1
100
AcDbLine
10
-4.5
20
5.9375
11
-4.5
21
-5.9375
0
ARC
5
D1
100
AcDbEntity
8
boundary
6
ByLayer
62
256
370
-1
100
AcDbCircle
10
-4.4375
20
-5.9375
40
0.0625
100
AcDbArc
50
180
51
270
0
CIRCLE
5
D2
100
AcDbEntity
8
6-32_through_hole
6
ByLayer
62
256
370
-1
100
AcDbCircle
10
4.088
20
3
40
0.072
0
CIRCLE
5
D3
100
AcDbEntity
8
6-32_through_hole
6
ByLayer
62
256
370
-1
100
AcDbCircle
10
4.088
20
-3
40
0.072
0
ARC
5
D4
100
AcDbEntity
8
boundary
6
ByLayer
62
256
370
-1
100
AcDbCircle
10
4.4375
20
5.9375
40
0.0625
100
AcDbArc
50
0
51
90
0
LINE
5
D5
100
AcDbEntity
8
boundary
6
ByLayer
62
256
370
-1
100
AcDbLine
10
4.5
20
-5.9375
11
4.5
21
5.9375
0
ARC
5
D6
100
AcDbEntity
8
boundary
6
ByLayer
62
256
370
-1
100
AcDbCircle
10
4.4375
20
-5.9375
40
0.0625
100
AcDbArc
50
270
51
0
0
LINE
5
D7
100
AcDbEntity
8
boundary
6
ByLayer
62
256
370
-1
100
AcDbLine
10
-4.4375
20
6
11
4.4375
21
6
0
LINE
5
D8
100
AcDbEntity
8
boundary
6
ByLayer
62
256
370
-1
100
AcDbLine
10
-4.4375
20
-6
11
4.4375
21
-6
0
CIRCLE
5
D9
100
AcDbEntity
8
6-32_through_hole
6
ByLayer
62
256
370
-1
100
AcDbCircle
10
-2.25
20
5.588
40
0.072
0
CIRCLE
5
DA
100
AcDbEntity
8
6-32_through_hole
6
ByLayer
62
256
370
-1
100
AcDbCircle
10
-2.25
20
-5.588
40
0.072
0
CIRCLE
5
DB
100
AcDbEntity
8
6-32_through_hole
6
ByLayer
62
256
370
-1
100
AcDbCircle
10
2.25
20
5.588
40
0.072
0
CIRCLE
5
DC
100
AcDbEntity
8
6-32_through_hole
6
ByLayer
62
256
370
-1
100
AcDbCircle
10
2.25
20
-5.588
40
0.072
0
ENDBLK
5
63
330
61
100
AcDbEntity
8
0
100
AcDbBlockEnd
0
BLOCK
5
65
330
64
100
AcDbEntity
8
0
100
AcDbBlockBegin
2
side_right-0
70
0
10
0
20
0
3
side_right-0
1

0
CIRCLE
5
DD
100
AcDbEntity
8
6-32_through_hole
6
ByLayer
62
256
370
-1
100
AcDbCircle
10
-4.088
20
3
40
0.072
0
CIRCLE
5
DE
100
AcDbEntity
8
6-32_through_hole
6
ByLayer
62
256
370
-1
100
AcDbCircle
10
-4.088
20
-3
40
0.072
0
ARC
5
DF
100
AcDbEntity
8
boundary
6
ByLayer
62
256
370
-1
100
AcDbCircle
10
-4.4375
20
5.9375
40
0.0625
100
AcDbArc
50
90
51
180
0
LINE
5
E0
100
AcDbEntity
8
boundary
6
ByLayer
62
256
370
-1
100
AcDbLine
10
-4.5
20
5.9375
11
-4.5
21
-5.9375
0
ARC
5
E1
100
AcDbEntity
8
boundary
6
ByLayer
62
256
370
-1
100
AcDbCircle
10
-4.4375
20
-5.9375
40
0.0625
100
AcDbArc
50
180
51
270
0
CIRCLE
5
E2
100
AcDbEntity
8
6-32_through_hole
6
ByLayer
62
256
370
-1
100
AcDbCircle
10
4.088
20
3
40
0.072
0
CIRCLE
5
E3
100
AcDbEntity
8
6-32_through_hole
6
ByLayer
62
256
370
-1
100
AcDbCircle
10
4.088
20
-3
40
0.072
0
ARC
5
E4
100
AcDbEntity
8
boundary
6
ByLayer
62
256
370
-1
100
AcDbCircle
10
4.4375
20
5.9375
40
0.0625
100
AcDbArc
50
0
51
90
0
LINE
5
E5
100
AcDbEntity
8
boundary
6
ByLayer
62
256
370
-1
100
AcDbLine
10
4.5
20
-5.9375
11
4.5
21
5.9375
0
ARC
5
E6
100
AcDbEntity
8
boundary
6
ByLayer
62
256
370
-1
100
AcDbCircle
10
4.4375
20
-5.9375
40
0.0625
100
AcDbArc
50
270
51
0
0
LINE
5
E7
100
AcDbEntity
8
boundary
6
ByLayer
62
256
370
-1
100
AcDbLine
10
-4.4375
20
6
11
4.4375
21
6
0
LINE
5
E8
100
AcDbEntity
8
boundary
6
ByLayer
62
256
370
-1
100
AcDbLine
10
-4.4375
20
-6
11
4.4375
21
-6
0
CIRCLE
5
E9
100
AcDbEntity
8
6-32_through_hole
6
ByLayer
62
256
370
-1
100
AcDbCircle
10
-2.25
20
5.588
40
0.072
0
CIRCLE
5
EA
100
AcDbEntity
8
6-32_through_hole
6
ByLayer
62
256
370
-1
100
AcDbCircle
10
-2.25
20
-5.588
40
0.072
0
CIRCLE
5
EB
100
AcDbEntity
8
6-32_through_hole
6
ByLayer
62
256
370
-1
100
AcDbCircle
10
2.25
20
5.588
40
0.072
0
CIRCLE
5
EC
100
AcDbEntity
8
6-32_through_hole
6
ByLayer
62
256
370
-1
100
AcDbCircle
10
2.25
20
-5.588
40
0.072
0
ENDBLK
5
66
330
64
100
AcDbEntity
8
0
100
AcDbBlockEnd
0
BLOCK
5
68
330
67
100
AcDbEntity
8
0
100
AcDbBlockBegin
2
rear-2
70
0
10
0
20
0
3
rear-2
1

0
CIRCLE
5
ED
100
AcDbEntity
8
6-32_through_hole
6
ByLayer
62
256
370
-1
100
AcDbCircle
10
-5.588
20
3
40
0.072
0
CIRCLE
5
EE
100
AcDbEntity
8
6-32_through_hole
6
ByLayer
62
256
370
-1
100
AcDbCircle
10
-3
20
5.588
40
0.072
0
CIRCLE
5
EF
100
AcDbEntity
8
6-32_through_hole
6
ByLayer
62
256
370
-1
100
AcDbCircle
10
3
20
5.588
40
0.072
0
CIRCLE
5
F0
100
AcDbEntity
8
6-32_through_hole
6
ByLayer
62
256
370
-1
100
AcDbCircle
10
5.588
20
3
40
0.072
0
CIRCLE
5
F1
100
AcDbEntity
8
6-32_through_hole
6
ByLayer
62
256
370
-1
100
AcDbCircle
10
5.588
20
-3
40
0.072
0
CIRCLE
5
F2
100
AcDbEntity
8
6-32_through_hole
6
ByLayer
62
256
370
-1
100
AcDbCircle
10
-5.588
20
-3
40
0.072
0
CIRCLE
5
F3
100
AcDbEntity
8
6-32_through_hole
6
ByLayer
62
256
370
-1
100
AcDbCircle
10
-3
20
-5.588
40
0.072
0
CIRCLE
5
F4
100
AcDbEntity
8
6-32_through_hole
6
ByLayer
62
256
370
-1
100
AcDbCircle
10
3
20
-5.588
40
0.072
0
ARC
5
F5
100
AcDbEntity
8
boundary
6
ByLayer
62
256
370
-1
100
AcDbCircle
10
-6.1875
20
-5.9375
40
0.0625
100
AcDbArc
50
180
51
270
0
LINE
5
F6
100
AcDbEntity
8
boundary
6
ByLayer
62
256
370
-1
100
AcDbLine
10
-6.25
20
5.9375
11
-6.25
21
-5.9375
0
ARC
5
F7
100
AcDbEntity
8
boundary
6
ByLayer
62
256
370
-1
100
AcDbCircle
10
-6.1875
20
5.9375
40
0.0625
100
AcDbArc
50
90
51
180
0
LINE
5
F8
100
AcDbEntity
8
boundary
6
ByLayer
62
256
370
-1
100
AcDbLine
10
6.1875
20
6
11
-6.1875
21
6
0
ARC
5
F9
100
AcDbEntity
8
boundary
6
ByLayer
62
256
370
-1
100
AcDbCircle
10
6.1875
20
5.9375
40
0.0625
100
AcDbArc
50
0
51
90
0
LINE
5
FA
100
AcDbEntity
8
boundary
6
ByLayer
62
256
370
-1
100
AcDbLine
10
-6.1875
20
-6
11
6.1875
21
-6
0
LINE
5
FB
100
AcDbEntity
8
boundary
6
ByLayer
62
256
370
-1
100
AcDbLine
10
6.25
20
-5.9375
11
6.25
21
5.9375
0
ARC
5
FC
100
AcDbEntity
8
boundary
6
ByLayer
62
256
370
-1
100
AcDbCircle
10
6.1875
20
-5.9375
40
0.0625
100
AcDbArc
50
270
51
0
0
ENDBLK
5
69
330
67
100
AcDbEntity
8
0
100
AcDbBlockEnd
0
BLOCK
5
6B
330
6A
100
AcDbEntity
8
0
100
AcDbBlockBegin
2
camera_mount_plate-0
70
0
10
0
20
0
3
camera_mount_plate-0
1

0
CIRCLE
5
FD
100
AcDbEntity
8
8-32_insert_hole
6
ByLayer
62
256
370
-1
100
AcDbCircle
10
-2.1
20
-2.875
40
0.1155
0
CIRCLE
5
FE
100
AcDbEntity
8
8-32_insert_hole
6
ByLayer
62
256
370
-1
100
AcDbCircle
10
-2.1
20
-1.875
40
0.1155
0
CIRCLE
5
FF
100
AcDbEntity
8
8-32_insert_hole
6
ByLayer
62
256
370
-1
100
AcDbCircle
10
2.1
20
-2.875
40
0.1155
0
CIRCLE
5
100
100
AcDbEntity
8
8-32_insert_hole
6
ByLayer
62
256
370
-1
100
AcDbCircle
10
2.1
20
-1.875
40
0.1155
0
LINE
5
101
100
AcDbEntity
8
camera_slot
6
ByLayer
62
256
370
-1
100
AcDbLine
10
-0.133
20
3
11
0.133
21
3
0
LINE
5
102
100
AcDbEntity
8
camera_slot
6
ByLayer
62
256
370
-1
100
AcDbLine
10
0.133
20
3
11
0.133
21
-2
0
LINE
5
103
100
AcDbEntity
8
camera_slot
6
ByLayer
62
256
370
-1
100
AcDbLine
10
0.133
20
-2
11
-0.133
21
-2
0
LINE
5
104
100
AcDbEntity
8
camera_slot
6
ByLayer
62
256
370
-1
100
AcDbLine
10
-0.133
20
-2
11
-0.133
21
3
0
ARC
5
105
100
AcDbEntity
8
boundary
6
ByLayer
62
256
370
-1
100
AcDbCircle
10
2.4375
20
3.4375
40
0.0625
100
AcDbArc
50
0
51
90
0
LINE
5
106
100
AcDbEntity
8
boundary
6
ByLayer
62
256
370
-1
100
AcDbLine
10
2.4375
20
3.5
11
-2.4375
21
3.5
0
ARC
5
107
100
AcDbEntity
8
boundary
6
ByLayer
62
256
370
-1
100
AcDbCircle
10
-2.4375
20
3.4375
40
0.0625
100
AcDbArc
50
90
51
180
0
LINE
5
108
100
AcDbEntity
8
boundary
6
ByLayer
62
256
370
-1
100
AcDbLine
10
2.5
20
-3.4375
11
2.5
21
3.4375
0
ARC
5
109
100
AcDbEntity
8
boundary
6
ByLayer
62
256
370
-1
100
AcDbCircle
10
2.4375
20
-3.4375
40
0.0625
100
AcDbArc
50
270
51
0
0
LINE
5
10A
100
AcDbEntity
8
boundary
6
ByLayer
62
256
370
-1
100
AcDbLine
10
-2.5
20
3.4375
11
-2.5
21
-3.4375
0
LINE
5
10B
100
AcDbEntity
8
boundary
6
ByLayer
62
256
370
-1
100
AcDbLine
10
-2.4375
20
-3.5
11
2.4375
21
-3.5
0
ARC
5
10C
100
AcDbEntity
8
boundary
6
ByLayer
62
256
370
-1
100
AcDbCircle
10
-2.4375
20
-3.4375
40
0.0625
100
AcDbArc
50
180
51
270
0
ENDBLK
5
6C
330
6A
100
AcDbEntity
8
0
100
AcDbBlockEnd
0
BLOCK
5
6E
330
6D
100
AcDbEntity
8
0
100
AcDbBlockBegin
2
front_door-1
70
0
10
0
20
0
3
front_door-1
1

0
CIRCLE
5
10D
100
AcDbEntity
8
10-32_thread_insert_hole
6
ByLayer
62
256
370
-1
100
AcDbCircle
10
-4.875
20
3.53125
40
0.13625
0
CIRCLE
5
10E
100
AcDbEntity
8
10-32_thread_insert_hole
6
ByLayer
62
256
370
-1
100
AcDbCircle
10
-4.875
20
2.46875
40
0.13625
0
CIRCLE
5
10F
100
AcDbEntity
8
10-32_thread_insert_hole
6
ByLayer
62
256
370
-1
100
AcDbCircle
10
-4.875
20
-2.46875
40
0.13625
0
CIRCLE
5
110
100
AcDbEntity
8
10-32_thread_insert_hole
6
ByLayer
62
256
370
-1
100
AcDbCircle
10
-4.875
20
-3.53125
40
0.13625
0
CIRCLE
5
111
100
AcDbEntity
8
8-32_through_hole
6
ByLayer
62
256
370
-1
100
AcDbCircle
10
4.5
20
2
40
0.08475
0
CIRCLE
5
112
100
AcDbEntity
8
8-32_through_hole
6
ByLayer
62
256
370
-1
100
AcDbCircle
10
4.5
20
-2
40
0.08475
0
ARC
5
113
100
AcDbEntity
8
boundary
6
ByLayer
62
256
370
-1
100
AcDbCircle
10
-5.4375
20
5.9375
40
0.0625
100
AcDbArc
50
90
51
180
0
LINE
5
114
100
AcDbEntity
8
boundary
6
ByLayer
62
256
370
-1
100
AcDbLine
10
-5.5
20
5.9375
11
-5.5
21
-5.9375
0
ARC
5
115
100
AcDbEntity
8
boundary
6
ByLayer
62
256
370
-1
100
AcDbCircle
10
-5.4375
20
-5.9375
40
0.0625
100
AcDbArc
50
180
51
270
0
LINE
5
116
100
AcDbEntity
8
boundary
6
ByLayer
62
256
370
-1
100
AcDbLine
10
5.4375
20
6
11
-5.4375
21
6
0
ARC
5
117
100
AcDbEntity
8
boundary
6
ByLayer
62
256
370
-1
100
AcDbCircle
10
5.4375
20
5.9375
40
0.0625
100
AcDbArc
50
0
51
90
0
LINE
5
118
100
AcDbEntity
8
boundary
6
ByLayer
62
256
370
-1
100
AcDbLine
10
-5.4375
20
-6
11
5.4375
21
-6
0
LINE
5
119
100
AcDbEntity
8
boundary
6
ByLayer
62
256
370
-1
100
AcDbLine
10
5.5
20
-5.9375
11
5.5
21
5.9375
0
ARC
5
11A
100
AcDbEntity
8
boundary
6
ByLayer
62
256
370
-1
100
AcDbCircle
10
5.4375
20
-5.9375
40
0.0625
100
AcDbArc
50
270
51
0
0
ENDBLK
5
6F
330
6D
100
AcDbEntity
8
0
100
AcDbBlockEnd
0
ENDSEC
0
SECTION
2
ENTITIES
0
LINE
5
11B
100
AcDbEntity
8
material
6
ByLayer
62
256
370
-1
100
AcDbLine
10
0
20
22
11
0
21
0
0
LINE
5
11C
100
AcDbEntity
8
material
6
ByLayer
62
256
370
-1
100
AcDbLine
10
43
20
22
11
0
21
22
0
LINE
5
11D
100
AcDbEntity
8
material
6
ByLayer
62
256
370
-1
100
AcDbLine
10
43
20
0
11
43
21
22
0
LINE
5
11E
100
AcDbEntity
8
material
6
ByLayer
62
256
370
-1
100
AcDbLine
10
0
20
0
11
43
21
0
0
CIRCLE
5
11F
100
AcDbEntity
8
6-32_through_hole
6
ByLayer
62
256
370
-1
100
AcDbCircle
10
3.29
20
8.878
40
0.072
0
CIRCLE
5
120
100
AcDbEntity
8
6-32_through_hole
6
ByLayer
62
256
370
-1
100
AcDbCircle
10
9.29
20
8.878
40
0.072
0
ARC
5
121
100
AcDbEntity
8
boundary
6
ByLayer
62
256
370
-1
100
AcDbCircle
10
0.1025
20
9.4775
40
0.0625
100
AcDbArc
50
90
51
180
0
LINE
5
122
100
AcDbEntity
8
boundary
6
ByLayer
62
256
370
-1
100
AcDbLine
10
12.4775
20
9.54
11
0.1025
21
9.54
0
ARC
5
123
100
AcDbEntity
8
boundary
6
ByLayer
62
256
370
-1
100
AcDbCircle
10
12.4775
20
9.4775
40
0.0625
100
AcDbArc
50
0
51
90
0
CIRCLE
5
124
100
AcDbEntity
8
6-32_through_hole
6
ByLayer
62
256
370
-1
100
AcDbCircle
10
0.79
20
0.702
40
0.072
0
ARC
5
125
100
AcDbEntity
8
boundary
6
ByLayer
62
256
370
-1
100
AcDbCircle
10
0.1025
20
0.1025
40
0.0625
100
AcDbArc
50
180
51
270
0
LINE
5
126
100
AcDbEntity
8
boundary
6
ByLayer
62
256
370
-1
100
AcDbLine
10
0.1025
20
0.04
11
12.4775
21
0.04
0
ARC
5
127
100
AcDbEntity
8
boundary
6
ByLayer
62
256
370
-1
100
AcDbCircle
10
12.4775
20
0.1025
40
0.0625
100
AcDbArc
50
270
51
0
0
LINE
5
128
100
AcDbEntity
8
boundary
6
ByLayer
62
256
370
-1
100
AcDbLine
10
0.04
20
9.4775
11
0.04
21
0.1025
0
LINE
5
129
100
AcDbEntity
8
boundary
6
ByLayer
62
256
370
-1
100
AcDbLine
10
12.54
20
9.4775
11
12.54
21
0.1025
0
CIRCLE
5
12A
100
AcDbEntity
8
6-32_through_hole
6
ByLayer
62
256
370
-1
100
AcDbCircle
10
11.878
20
2.54
40
0.072
0
CIRCLE
5
12B
100
AcDbEntity
8
6-32_through_hole
6
ByLayer
62
256
370
-1
100
AcDbCircle
10
0.702
20
2.54
40
0.072
0
CIRCLE
5
12C
100
AcDbEntity
8
6-32_through_hole
6
ByLayer
62
256
370
-1
100
AcDbCircle
10
0.702
20
7.04
40
0.072
0
CIRCLE
5
12D
100
AcDbEntity
8
6-32_through_hole
6
ByLayer
62
256
370
-1
100
AcDbCircle
10
11.878
20
7.04
40
0.072
0
CIRCLE
5
12E
100
AcDbEntity
8
6-32_through_hole
6
ByLayer
62
256
370
-1
100
AcDbCircle
10
16.19
20
8.878
40
0.072
0
CIRCLE
5
12F
100
AcDbEntity
8
6-32_through_hole
6
ByLayer
62
256
370
-1
100
AcDbCircle
10
22.19
20
8.878
40
0.072
0
CIRCLE
5
130
100
AcDbEntity
8
6-32_through_hole
6
ByLayer
62
256
370
-1
100
AcDbCircle
10
13.69
20
0.702
40
0.072
0
CIRCLE
5
131
100
AcDbEntity
8
6-32_through_hole
6
ByLayer
62
256
370
-1
100
AcDbCircle
10
13.602
20
7.04
40
0.072
0
CIRCLE
5
132
100
AcDbEntity
8
6-32_through_hole
6
ByLayer
62
256
370
-1
100
AcDbCircle
10
24.778
20
7.04
40
0.072
0
CIRCLE
5
133
100
AcDbEntity
8
6-32_through_hole
6
ByLayer
62
256
370
-1
100
AcDbCircle
10
24.778
20
2.54
40
0.072
0
CIRCLE
5
134
100
AcDbEntity
8
6-32_through_hole
6
ByLayer
62
256
370
-1
100
AcDbCircle
10
13.602
20
2.54
40
0.072
0
CIRCLE
5
135
100
AcDbEntity
8
camera_hole
6
ByLayer
62
256
370
-1
100
AcDbCircle
10
19.19
20
4.79
40
1.45
0
CIRCLE
5
136
100
AcDbEntity
8
8-32_insert_hole
6
ByLayer
62
256
370
-1
100
AcDbCircle
10
17.09
20
7.3
40
0.1155
0
CIRCLE
5
137
100
AcDbEntity
8
8-32_insert_hole
6
ByLayer
62
256
370
-1
100
AcDbCircle
10
17.09
20
8.3
40
0.1155
0
CIRCLE
5
138
100
AcDbEntity
8
8-32_insert_hole
6
ByLayer
62
256
370
-1
100
AcDbCircle
10
21.29
20
7.3
40
0.1155
0
CIRCLE
5
139
100
AcDbEntity
8
8-32_insert_hole
6
ByLayer
62
256
370
-1
100
AcDbCircle
10
21.29
20
8.3
40
0.1155
0
CIRCLE
5
13A
100
AcDbEntity
8
6-32_through_hole
6
ByLayer
62
256
370
-1
100
AcDbCircle
10
16.69
20
5.79
40
0.072
0
CIRCLE
5
13B
100
AcDbEntity
8
6-32_through_hole
6
ByLayer
62
256
370
-1
100
AcDbCircle
10
16.69
20
3.79
40
0.072
0
CIRCLE
5
13C
100
AcDbEntity
8
6-32_through_hole
6
ByLayer
62
256
370
-1
100
AcDbCircle
10
21.69
20
5.79
40
0.072
0
CIRCLE
5
13D
100
AcDbEntity
8
6-32_through_hole
6
ByLayer
62
256
370
-1
100
AcDbCircle
10
21.69
20
3.79
40
0.072
0
CIRCLE
5
13E
100
AcDbEntity
8
6-32_through_hole
6
ByLayer
62
256
370
-1
100
AcDbCircle
10
26.502
20
9.04
40
0.072
0
CIRCLE
5
13F
100
AcDbEntity
8
6-32_through_hole
6
ByLayer
62
256
370
-1
100
AcDbCircle
10
29.09
20
11.628
40
0.072
0
CIRCLE
5
140
100
AcDbEntity
8
6-32_through_hole
6
ByLayer
62
256
370
-1
100
AcDbCircle
10
35.09
20
11.628
40
0.072
0
CIRCLE
5
141
100
AcDbEntity
8
6-32_through_hole
6
ByLayer
62
256
370
-1
100
AcDbCircle
10
37.678
20
9.04
40
0.072
0
CIRCLE
5
142
100
AcDbEntity
8
6-32_through_hole
6
ByLayer
62
256
370
-1
100
AcDbCircle
10
37.678
20
3.04
40
0.072
0
CIRCLE
5
143
100
AcDbEntity
8
6-32_through_hole
6
ByLayer
62
256
370
-1
100
AcDbCircle
10
26.502
20
3.04
40
0.072
0
CIRCLE
5
144
100
AcDbEntity
8
6-32_through_hole
6
ByLayer
62
256
370
-1
100
AcDbCircle
10
29.09
20
0.452
40
0.072
0
CIRCLE
5
145
100
AcDbEntity
8
6-32_through_hole
6
ByLayer
62
256
370
-1
100
AcDbCircle
10
35.09
20
0.452
40
0.072
0
ARC
5
146
100
AcDbEntity
8
boundary
6
ByLayer
62
256
370
-1
100
AcDbCircle
10
25.9025
20
0.1025
40
0.0625
100
AcDbArc
50
180
51
270
0
LINE
5
147
100
AcDbEntity
8
boundary
6
ByLayer
62
256
370
-1
100
AcDbLine
10
25.84
20
11.9775
11
25.84
21
0.1025
0
ARC
5
148
100
AcDbEntity
8
boundary
6
ByLayer
62
256
370
-1
100
AcDbCircle
10
25.9025
20
11.9775
40
0.0625
100
AcDbArc
50
90
51
180
0
LINE
5
149
100
AcDbEntity
8
boundary
6
ByLayer
62
256
370
-1
100
AcDbLine
10
38.2775
20
12.04
11
25.9025
21
12.04
0
ARC
5
14A
100
AcDbEntity
8
boundary
6
ByLayer
62
256
370
-1
100
AcDbCircle
10
38.2775
20
11.9775
40
0.0625
100
AcDbArc
50
0
51
90
0
LINE
5
14B
100
AcDbEntity
8
boundary
6
ByLayer
62
256
370
-1
100
AcDbLine
10
25.9025
20
0.04
11
38.2775
21
0.04
0
LINE
5
14C
100
AcDbEntity
8
boundary
6
ByLayer
62
256
370
-1
100
AcDbLine
10
38.34
20
0.1025
11
38.34
21
11.9775
0
ARC
5
14D
100
AcDbEntity
8
boundary
6
ByLayer
62
256
370
-1
100
AcDbCircle
10
38.2775
20
0.1025
40
0.0625
100
AcDbArc
50
270
51
0
0
CIRCLE
5
14E
100
AcDbEntity
8
6-32_through_hole
6
ByLayer
62
256
370
-1
100
AcDbCircle
10
39.49
20
11.628
40
0.072
0
CIRCLE
5
14F
100
AcDbEntity
8
6-32_through_hole
6
ByLayer
62
256
370
-1
100
AcDbCircle
10
39.402
20
9.04
40
0.072
0
CIRCLE
5
150
100
AcDbEntity
8
6-32_through_hole
6
ByLayer
62
256
370
-1
100
AcDbCircle
10
39.402
20
3.04
40
0.072
0
CIRCLE
5
151
100
AcDbEntity
8
6-32_through_hole
6
ByLayer
62
256
370
-1
100
AcDbCircle
10
39.49
20
0.452
40
0.072
0
CIRCLE
5
152
100
AcDbEntity
8
10-32_thread_insert_hole
6
ByLayer
62
256
370
-1
100
AcDbCircle
10
39.615
20
9.57125
40
0.13625
0
CIRCLE
5
153
100
AcDbEntity
8
10-32_thread_insert_hole
6
ByLayer
62
256
370
-1
100
AcDbCircle
10
39.615
20
8.50875
40
0.13625
0
CIRCLE
5
154
100
AcDbEntity
8
10-32_thread_insert_hole
6
ByLayer
62
256
370
-1
100
AcDbCircle
10
39.615
20
3.57125
40
0.13625
0
CIRCLE
5
155
100
AcDbEntity
8
10-32_thread_insert_hole
6
ByLayer
62
256
370
-1
100
AcDbCircle
10
39.615
20
2.50875
40
0.13625
0
ARC
5
156
100
AcDbEntity
8
boundary
6
ByLayer
62
256
370
-1
100
AcDbCircle
10
38.8025
20
11.9775
40
0.0625
100
AcDbArc
50
90
51
180
0
LINE
5
157
100
AcDbEntity
8
boundary
6
ByLayer
62
256
370
-1
100
AcDbLine
10
40.1775
20
12.04
11
38.8025
21
12.04
0
ARC
5
158
100
AcDbEntity
8
boundary
6
ByLayer
62
256
370
-1
100
AcDbCircle
10
40.1775
20
11.9775
40
0.0625
100
AcDbArc
50
0
51
90
0
LINE
5
159
100
AcDbEntity
8
boundary
6
ByLayer
62
256
370
-1
100
AcDbLine
10
40.24
20
0.1025
11
40.24
21
11.9775
0
ARC
5
15A
100
AcDbEntity
8
boundary
6
ByLayer
62
256
370
-1
100
AcDbCircle
10
40.1775
20
0.1025
40
0.0625
100
AcDbArc
50
270
51
0
0
LINE
5
15B
100
AcDbEntity
8
boundary
6
ByLayer
62
256
370
-1
100
AcDbLine
10
38.74
20
11.9775
11
38.74
21
0.1025
0
LINE
5
15C
100
AcDbEntity
8
boundary
6
ByLayer
62
256
370
-1
100
AcDbLine
10
38.8025
20
0.04
11
40.1775
21
0.04
0
ARC
5
15D
100
AcDbEntity
8
boundary
6
ByLayer
62
256
370
-1
100
AcDbCircle
10
38.8025
20
0.1025
40
0.0625
100
AcDbArc
50
180
51
270
0
CIRCLE
5
15E
100
AcDbEntity
8
6-32_through_hole
6
ByLayer
62
256
370
-1
100
AcDbCircle
10
27.84
20
12.752
40
0.072
0
CIRCLE
5
15F
100
AcDbEntity
8
6-32_through_hole
6
ByLayer
62
256
370
-1
100
AcDbCircle
10
33.84
20
12.752
40
0.072
0
ARC
5
160
100
AcDbEntity
8
boundary
6
ByLayer
62
256
370
-1
100
AcDbCircle
10
24.9025
20
12.4025
40
0.0625
100
AcDbArc
50
180
51
270
0
LINE
5
161
100
AcDbEntity
8
boundary
6
ByLayer
62
256
370
-1
100
AcDbLine
10
24.9025
20
12.34
11
36.7775
21
12.34
0
ARC
5
162
100
AcDbEntity
8
boundary
6
ByLayer
62
256
370
-1
100
AcDbCircle
10
36.7775
20
12.4025
40
0.0625
100
AcDbArc
50
270
51
360
0
CIRCLE
5
163
100
AcDbEntity
8
6-32_through_hole
6
ByLayer
62
256
370
-1
100
AcDbCircle
10
27.84
20
20.928
40
0.072
0
CIRCLE
5
164
100
AcDbEntity
8
6-32_through_hole
6
ByLayer
62
256
370
-1
100
AcDbCircle
10
33.84
20
20.928
40
0.072
0
ARC
5
165
100
AcDbEntity
8
boundary
6
ByLayer
62
256
370
-1
100
AcDbCircle
10
24.9025
20
21.2775
40
0.0625
100
AcDbArc
50
90
51
180
0
LINE
5
166
100
AcDbEntity
8
boundary
6
ByLayer
62
256
370
-1
100
AcDbLine
10
36.7775
20
21.34
11
24.9025
21
21.34
0
ARC
5
167
100
AcDbEntity
8
boundary
6
ByLayer
62
256
370
-1
100
AcDbCircle
10
36.7775
20
21.2775
40
0.0625
100
AcDbArc
50
360
51
90
0
LINE
5
168
100
AcDbEntity
8
boundary
6
ByLayer
62
256
370
-1
100
AcDbLine
10
24.84
20
12.4025
11
24.84
21
21.2775
0
LINE
5
169
100
AcDbEntity
8
boundary
6
ByLayer
62
256
370
-1
100
AcDbLine
10
36.84
20
12.4025
11
36.84
21
21.2775
0
CIRCLE
5
16A
100
AcDbEntity
8
6-32_through_hole
6
ByLayer
62
256
370
-1
100
AcDbCircle
10
25.252
20
14.59
40
0.072
0
CIRCLE
5
16B
100
AcDbEntity
8
6-32_through_hole
6
ByLayer
62
256
370
-1
100
AcDbCircle
10
36.428
20
14.59
40
0.072
0
CIRCLE
5
16C
100
AcDbEntity
8
6-32_through_hole
6
ByLayer
62
256
370
-1
100
AcDbCircle
10
25.252
20
19.09
40
0.072
0
CIRCLE
5
16D
100
AcDbEntity
8
6-32_through_hole
6
ByLayer
62
256
370
-1
100
AcDbCircle
10
36.428
20
19.09
40
0.072
0
CIRCLE
5
16E
100
AcDbEntity
8
8-32_insert_hole
6
ByLayer
62
256
370
-1
100
AcDbCircle
10
37.64
20
13.065
40
0.1155
0
CIRCLE
5
16F
100
AcDbEntity
8
8-32_insert_hole
6
ByLayer
62
256
370
-1
100
AcDbCircle
10
37.64
20
14.065
40
0.1155
0
CIRCLE
5
170
100
AcDbEntity
8
8-32_insert_hole
6
ByLayer
62
256
370
-1
100
AcDbCircle
10
41.84
20
13.065
40
0.1155
0
CIRCLE
5
171
100
AcDbEntity
8
8-32_insert_hole
6
ByLayer
62
256
370
-1
100
AcDbCircle
10
41.84
20
14.065
40
0.1155
0
LINE
5
172
100
AcDbEntity
8
camera_slot
6
ByLayer
62
256
370
-1
100
AcDbLine
10
39.607
20
18.94
11
39.873
21
18.94
0
LINE
5
173
100
AcDbEntity
8
camera_slot
6
ByLayer
62
256
370
-1
100
AcDbLine
10
39.873
20
18.94
11
39.873
21
13.94
0
LINE
5
174
100
AcDbEntity
8
camera_slot
6
ByLayer
62
256
370
-1
100
AcDbLine
10
39.873
20
13.94
11
39.607
21
13.94
0
LINE
5
175
100
AcDbEntity
8
camera_slot
6
ByLayer
62
256
370
-1
100
AcDbLine
10
39.607
20
13.94
11
39.607
21
18.94
0
ARC
5
176
100
AcDbEntity
8
boundary
6
ByLayer
62
256
370
-1
100
AcDbCircle
10
42.1775
20
19.3775
40
0.0625
100
AcDbArc
50
0
51
90
0
LINE
5
177
100
AcDbEntity
8
boundary
6
ByLayer
62
256
370
-1
100
AcDbLine
10
42.1775
20
19.44
11
37.3025
21
19.44
0
ARC
5
178
100
AcDbEntity
8
boundary
6
ByLayer
62
256
370
-1
100
AcDbCircle
10
37.3025
20
19.3775
40
0.0625
100
AcDbArc
50
90
51
180
0
LINE
5
179
100
AcDbEntity
8
boundary
6
ByLayer
62
256
370
-1
100
AcDbLine
10
42.24
20
12.5025
11
42.24
21
19.3775
0
ARC
5
17A
100
AcDbEntity
8
boundary
6
ByLayer
62
256
370
-1
100
AcDbCircle
10
42.1775
20
12.5025
40
0.0625
100
AcDbArc
50
270
51
0
0
LINE
5
17B
100
AcDbEntity
8
boundary
6
ByLayer
62
256
370
-1
100
AcDbLine
10
37.24
20
19.3775
11
37.24
21
12.5025
0
LINE
5
17C
100
AcDbEntity
8
boundary
6
ByLayer
62
256
370
-1
100
AcDbLine
10
37.3025
20
12.44
11
42.1775
21
12.44
0
ARC
5
17D
100
AcDbEntity
8
boundary
6
ByLayer
62
256
370
-1
100
AcDbCircle
10
37.3025
20
12.5025
40
0.0625
100
AcDbArc
50
180
51
270
0
ARC
5
17E
100
AcDbEntity
8
boundary
6
ByLayer
62
256
370
-1
100
AcDbCircle
10
13.0025
20
9.4775
40
0.0625
100
AcDbArc
50
90
51
180
0
LINE
5
17F
100
AcDbEntity
8
boundary
6
ByLayer
62
256
370
-1
100
AcDbLine
10
25.3775
20
9.54
11
13.0025
21
9.54
0
ARC
5
180
100
AcDbEntity
8
boundary
6
ByLayer
62
256
370
-1
100
AcDbCircle
10
25.3775
20
9.4775
40
0.0625
100
AcDbArc
50
0
51
90
0
ARC
5
181
100
AcDbEntity
8
boundary
6
ByLayer
62
256
370
-1
100
AcDbCircle
10
25.3775
20
0.1025
40
0.0625
100
AcDbArc
50
270
51
0
0
LINE
5
182
100
AcDbEntity
8
boundary
6
ByLayer
62
256
370
-1
100
AcDbLine
10
13.0025
20
0.04
11
25.3775
21
0.04
0
ARC
5
183
100
AcDbEntity
8
boundary
6
ByLayer
62
256
370
-1
100
AcDbCircle
10
13.0025
20
0.1025
40
0.0625
100
AcDbArc
50
180
51
270
0
LINE
5
184
100
AcDbEntity
8
boundary
6
ByLayer
62
256
370
-1
100
AcDbLine
10
12.94
20
9.4775
11
12.94
21
0.1025
0
LINE
5
185
100
AcDbEntity
8
boundary
6
ByLayer
62
256
370
-1
100
AcDbLine
10
25.44
20
9.4775
11
25.44
21
0.1025
0
CIRCLE
5
186
100
AcDbEntity
8
8-32_insert_hole
6
ByLayer
62
256
370
-1
100
AcDbCircle
10
30.84
20
12.89
40
0.1155
0
CIRCLE
5
187
100
AcDbEntity
8
10-32_thread_insert_hole
6
ByLayer
62
256
370
-1
100
AcDbCircle
10
2.50875
20
10.565
40
0.13625
0
CIRCLE
5
188
100
AcDbEntity
8
10-32_thread_insert_hole
6
ByLayer
62
256
370
-1
100
AcDbCircle
10
3.57125
20
10.565
40
0.13625
0
CIRCLE
5
189
100
AcDbEntity
8
10-32_thread_insert_hole
6
ByLayer
62
256
370
-1
100
AcDbCircle
10
8.50875
20
10.565
40
0.13625
0
CIRCLE
5
18A
100
AcDbEntity
8
10-32_thread_insert_hole
6
ByLayer
62
256
370
-1
100
AcDbCircle
10
9.57125
20
10.565
40
0.13625
0
CIRCLE
5
18B
100
AcDbEntity
8
8-32_through_hole
6
ByLayer
62
256
370
-1
100
AcDbCircle
10
4.04
20
19.94
40
0.08475
0
CIRCLE
5
18C
100
AcDbEntity
8
8-32_through_hole
6
ByLayer
62
256
370
-1
100
AcDbCircle
10
8.04
20
19.94
40
0.08475
0
ARC
5
18D
100
AcDbEntity
8
boundary
6
ByLayer
62
256
370
-1
100
AcDbCircle
10
0.1025
20
10.0025
40
0.0625
100
AcDbArc
50
180
51
270
0
LINE
5
18E
100
AcDbEntity
8
boundary
6
ByLayer
62
256
370
-1
100
AcDbLine
10
0.1025
20
9.94
11
11.9775
21
9.94
0
ARC
5
18F
100
AcDbEntity
8
boundary
6
ByLayer
62
256
370
-1
100
AcDbCircle
10
11.9775
20
10.0025
40
0.0625
100
AcDbArc
50
270
51
360
0
LINE
5
190
100
AcDbEntity
8
boundary
6
ByLayer
62
256
370
-1
100
AcDbLine
10
0.04
20
20.8775
11
0.04
21
10.0025
0
ARC
5
191
100
AcDbEntity
8
boundary
6
ByLayer
62
256
370
-1
100
AcDbCircle
10
0.1025
20
20.8775
40
0.0625
100
AcDbArc
50
90
51
180
0
LINE
5
192
100
AcDbEntity
8
boundary
6
ByLayer
62
256
370
-1
100
AcDbLine
10
12.04
20
10.0025
11
12.04
21
20.8775
0
LINE
5
193
100
AcDbEntity
8
boundary
6
ByLayer
62
256
370
-1
100
AcDbLine
10
11.9775
20
20.94
11
0.1025
21
20.94
0
ARC
5
194
100
AcDbEntity
8
boundary
6
ByLayer
62
256
370
-1
100
AcDbCircle
10
11.9775
20
20.8775
40
0.0625
100
AcDbArc
50
360
51
90
0
CIRCLE
5
195
100
AcDbEntity
8
8-32_insert_hole
6
ByLayer
62
256
370
-1
100
AcDbCircle
10
6.04
20
19.99
40
0.1155
0
CIRCLE
5
196
100
AcDbEntity
8
6-32_through_hole
6
ByLayer
62
256
370
-1
100
AcDbCircle
10
15.44
20
12.352
40
0.072
0
CIRCLE
5
197
100
AcDbEntity
8
6-32_through_hole
6
ByLayer
62
256
370
-1
100
AcDbCircle
10
21.44
20
12.352
40
0.072
0
ARC
5
198
100
AcDbEntity
8
boundary
6
ByLayer
62
256
370
-1
100
AcDbCircle
10
12.5025
20
12.0025
40
0.0625
100
AcDbArc
50
180
51
270
0
LINE
5
199
100
AcDbEntity
8
boundary
6
ByLayer
62
256
370
-1
100
AcDbLine
10
12.5025
20
11.94
11
24.3775
21
11.94
0
ARC
5
19A
100
AcDbEntity
8
boundary
6
ByLayer
62
256
370
-1
100
AcDbCircle
10
24.3775
20
12.0025
40
0.0625
100
AcDbArc
50
270
51
360
0
CIRCLE
5
19B
100
AcDbEntity
8
6-32_through_hole
6
ByLayer
62
256
370
-1
100
AcDbCircle
10
15.44
20
20.528
40
0.072
0
CIRCLE
5
19C
100
AcDbEntity
8
6-32_through_hole
6
ByLayer
62
256
370
-1
100
AcDbCircle
10
21.44
20
20.528
40
0.072
0
ARC
5
19D
100
AcDbEntity
8
boundary
6
ByLayer
62
256
370
-1
100
AcDbCircle
10
12.5025
20
20.8775
40
0.0625
100
AcDbArc
50
90
51
180
0
LINE
5
19E
100
AcDbEntity
8
boundary
6
ByLayer
62
256
370
-1
100
AcDbLine
10
24.3775
20
20.94
11
12.5025
21
20.94
0
ARC
5
19F
100
AcDbEntity
8
boundary
6
ByLayer
62
256
370
-1
100
AcDbCircle
10
24.3775
20
20.8775
40
0.0625
100
AcDbArc
50
360
51
90
0
LINE
5
1A0
100
AcDbEntity
8
boundary
6
ByLayer
62
256
370
-1
100
AcDbLine
10
12.44
20
12.0025
11
12.44
21
20.8775
0
LINE
5
1A1
100
AcDbEntity
8
boundary
6
ByLayer
62
256
370
-1
100
AcDbLine
10
24.44
20
12.0025
11
24.44
21
20.8775
0
CIRCLE
5
1A2
100
AcDbEntity
8
6-32_through_hole
6
ByLayer
62
256
370
-1
100
AcDbCircle
10
12.852
20
14.19
40
0.072
0
CIRCLE
5
1A3
100
AcDbEntity
8
6-32_through_hole
6
ByLayer
62
256
370
-1
100
AcDbCircle
10
24.028
20
14.19
40
0.072
0
CIRCLE
5
1A4
100
AcDbEntity
8
6-32_through_hole
6
ByLayer
62
256
370
-1
100
AcDbCircle
10
12.852
20
18.69
40
0.072
0
CIRCLE
5
1A5
100
AcDbEntity
8
6-32_through_hole
6
ByLayer
62
256
370
-1
100
AcDbCircle
10
24.028
20
18.69
40
0.072
0
ENDSEC
0
SECTION
2
OBJECTS
0
DICTIONARY
5
C
330
0
100
AcDbDictionary
281
1
3
ACAD_GROUP
350
D
0
DICTIONARY
5
D
330
C
100
AcDbDictionary
281
1
0
ENDSEC
0
EOF
