999
dxfrw 0.6.3
  0
SECTION
  2
HEADER
  9
$ACADVER
  1
AC1021
  9
$DWGCODEPAGE
  3
ANSI_1252
  9
$INSBASE
 10
0
 20
0
 30
0
  9
$EXTMIN
 10
-0.05499999999999999
 20
-1.901215363483167
 30
0
  9
$EXTMAX
 10
66
 20
46.6
 30
0
  9
$LIMMIN
 10
0
 20
0
  9
$LIMMAX
 10
420
 20
297
  9
$ORTHOMODE
 70
    0
  9
$REGENMODE
 70
    1
  9
$FILLMODE
 70
    1
  9
$QTEXTMODE
 70
    0
  9
$MIRRTEXT
 70
    0
  9
$LTSCALE
 40
1
  9
$ATTMODE
 70
    0
  9
$TEXTSIZE
 40
2.5
  9
$TRACEWID
 40
15.68
  9
$TEXTSTYLE
  7
STANDARD
  9
$CLAYER
  8
notes
  9
$CELTYPE
  6
BYLAYER
  9
$CECOLOR
 62
  256
  9
$CELTSCALE
 40
1
  9
$DISPSILH
 70
    0
  9
$DIMSCALE
 40
2.5
  9
$DIMASZ
 40
2.5
  9
$DIMEXO
 40
0.625
  9
$DIMDLI
 40
3.75
  9
$DIMRND
 40
0
  9
$DIMDLE
 40
0
  9
$DIMEXE
 40
1.25
  9
$DIMTP
 40
0
  9
$DIMTM
 40
0
  9
$DIMTXT
 40
2.5
  9
$DIMCEN
 40
2.5
  9
$DIMTSZ
 40
0
  9
$DIMTOL
 70
    0
  9
$DIMLIM
 70
    0
  9
$DIMTIH
 70
    0
  9
$DIMTOH
 70
    0
  9
$DIMSE1
 70
    0
  9
$DIMSE2
 70
    0
  9
$DIMTAD
 70
    1
  9
$DIMZIN
 70
    8
  9
$DIMBLK
  1

  9
$DIMASO
 70
    1
  9
$DIMSHO
 70
    1
  9
$DIMPOST
  1

  9
$DIMAPOST
  1

  9
$DIMALT
 70
    0
  9
$DIMALTD
 70
    3
  9
$DIMALTF
 40
0.03937
  9
$DIMLFAC
 40
1
  9
$DIMTOFL
 70
    1
  9
$DIMTVP
 40
0
  9
$DIMTIX
 70
    0
  9
$DIMSOXD
 70
    0
  9
$DIMSAH
 70
    0
  9
$DIMBLK1
  1

  9
$DIMBLK2
  1

  9
$DIMSTYLE
  2
STANDARD
  9
$DIMCLRD
 70
    0
  9
$DIMCLRE
 70
    0
  9
$DIMCLRT
 70
    0
  9
$DIMTFAC
 40
1
  9
$DIMGAP
 40
0.625
  9
$DIMJUST
 70
    0
  9
$DIMSD1
 70
    0
  9
$DIMSD2
 70
    0
  9
$DIMTOLJ
 70
    0
  9
$DIMTZIN
 70
    8
  9
$DIMALTZ
 70
    0
  9
$DIMALTTZ
 70
    0
  9
$DIMUPT
 70
    0
  9
$DIMDEC
 70
    4
  9
$DIMTDEC
 70
    2
  9
$DIMALTU
 70
    2
  9
$DIMALTTD
 70
    3
  9
$DIMTXSTY
  7
STANDARD
  9
$DIMAUNIT
 70
    0
  9
$DIMADEC
 70
    0
  9
$DIMALTRND
 40
0
  9
$DIMAZIN
 70
    0
  9
$DIMDSEP
 70
   44
  9
$DIMATFIT
 70
    3
  9
$DIMFRAC
 70
    0
  9
$DIMLDRBLK
  1
STANDARD
  9
$DIMLUNIT
 70
    2
  9
$DIMLWD
 70
   -2
  9
$DIMLWE
 70
   -2
  9
$DIMTMOVE
 70
    0
  9
$DIMFXL
 40
1
  9
$DIMFXLON
 70
    0
  9
$DIMJOGANG
 40
0.7854
  9
$DIMTFILL
 70
    0
  9
$DIMTFILLCLR
 70
    0
  9
$DIMARCSYM
 70
    0
  9
$DIMLTYPE
  6

  9
$DIMLTEX1
  6

  9
$DIMLTEX2
  6

  9
$LUNITS
 70
    2
  9
$LUPREC
 70
    4
  9
$SKETCHINC
 40
1
  9
$FILLETRAD
 40
0
  9
$AUNITS
 70
    0
  9
$AUPREC
 70
    2
  9
$MENU
  1
.
  9
$ELEVATION
 40
0
  9
$PELEVATION
 40
0
  9
$THICKNESS
 40
0
  9
$LIMCHECK
 70
    0
  9
$CHAMFERA
 40
0
  9
$CHAMFERB
 40
0
  9
$CHAMFERC
 40
0
  9
$CHAMFERD
 40
0
  9
$SKPOLY
 70
    0
  9
$USRTIMER
 70
    1
  9
$ANGBASE
 50
0
  9
$ANGDIR
 70
    0
  9
$PDMODE
 70
   34
  9
$PDSIZE
 40
0
  9
$PLINEWID
 40
0
  9
$SPLFRAME
 70
    0
  9
$SPLINETYPE
 70
    2
  9
$SPLINESEGS
 70
    8
  9
$HANDSEED
  5
20000
  9
$SURFTAB1
 70
    6
  9
$SURFTAB2
 70
    6
  9
$SURFTYPE
 70
    6
  9
$SURFU
 70
    6
  9
$SURFV
 70
    6
  9
$UCSBASE
  2

  9
$UCSNAME
  2

  9
$UCSORG
 10
0
 20
0
 30
0
  9
$UCSXDIR
 10
1
 20
0
 30
0
  9
$UCSYDIR
 10
0
 20
1
 30
0
  9
$UCSORTHOREF
  2

  9
$UCSORTHOVIEW
 70
    0
  9
$UCSORGTOP
 10
0
 20
0
 30
0
  9
$UCSORGBOTTOM
 10
0
 20
0
 30
0
  9
$UCSORGLEFT
 10
0
 20
0
 30
0
  9
$UCSORGRIGHT
 10
0
 20
0
 30
0
  9
$UCSORGFRONT
 10
0
 20
0
 30
0
  9
$UCSORGBACK
 10
0
 20
0
 30
0
  9
$PUCSBASE
  2

  9
$PUCSNAME
  2

  9
$PUCSORG
 10
0
 20
0
 30
0
  9
$PUCSXDIR
 10
1
 20
0
 30
0
  9
$PUCSYDIR
 10
0
 20
1
 30
0
  9
$PUCSORTHOREF
  2

  9
$PUCSORTHOVIEW
 70
    0
  9
$PUCSORGTOP
 10
0
 20
0
 30
0
  9
$PUCSORGBOTTOM
 10
0
 20
0
 30
0
  9
$PUCSORGLEFT
 10
0
 20
0
 30
0
  9
$PUCSORGRIGHT
 10
0
 20
0
 30
0
  9
$PUCSORGFRONT
 10
0
 20
0
 30
0
  9
$PUCSORGBACK
 10
0
 20
0
 30
0
  9
$USERI1
 70
    0
  9
$USERI2
 70
    0
  9
$USERI3
 70
    0
  9
$USERI4
 70
    0
  9
$USERI5
 70
    0
  9
$USERR1
 40
0
  9
$USERR2
 40
0
  9
$USERR3
 40
0
  9
$USERR4
 40
0
  9
$USERR5
 40
0
  9
$WORLDVIEW
 70
    1
  9
$SHADEDGE
 70
    3
  9
$SHADEDIF
 70
   70
  9
$TILEMODE
 70
    1
  9
$MAXACTVP
 70
   64
  9
$PINSBASE
 10
0
 20
0
 30
0
  9
$PLIMCHECK
 70
    0
  9
$PEXTMIN
 10
0
 20
0
 30
0
  9
$PEXTMAX
 10
0
 20
0
 30
0
  9
$PLIMMIN
 10
0
 20
0
  9
$PLIMMAX
 10
297
 20
210
  9
$UNITMODE
 70
    0
  9
$VISRETAIN
 70
    1
  9
$PLINEGEN
 70
    0
  9
$PSLTSCALE
 70
    1
  9
$TREEDEPTH
 70
 3020
  9
$CMLSTYLE
  2
Standard
  9
$CMLJUST
 70
    0
  9
$CMLSCALE
 40
20
  9
$PROXYGRAPHICS
 70
    1
  9
$MEASUREMENT
 70
    1
  9
$CELWEIGHT
370
   -1
  9
$ENDCAPS
280
    0
  9
$JOINSTYLE
280
    0
  9
$LWDISPLAY
290
    0
  9
$INSUNITS
 70
    0
  9
$HYPERLINKBASE
  1

  9
$STYLESHEET
  1

  9
$XEDIT
290
    1
  9
$CEPSNTYPE
380
    0
  9
$PSTYLEMODE
290
    1
  9
$EXTNAMES
290
    1
  9
$PSVPSCALE
 40
0
  9
$OLESTARTUP
290
    0
  9
$SORTENTS
280
  127
  9
$INDEXCTL
280
    0
  9
$HIDETEXT
280
    1
  9
$XCLIPFRAME
290
    0
  9
$HALOGAP
280
    0
  9
$OBSCOLOR
 70
  257
  9
$OBSLTYPE
280
    0
  9
$INTERSECTIONDISPLAY
280
    0
  9
$INTERSECTIONCOLOR
 70
  257
  9
$DIMASSOC
280
    1
  9
$PROJECTNAME
  1

  9
$CAMERADISPLAY
290
    0
  9
$LENSLENGTH
 40
50
  9
$CAMERAHEIGHT
 40
0
  9
$STEPSPERSEC
 40
2
  9
$STEPSIZE
 40
50
  9
$3DDWFPREC
 40
2
  9
$PSOLWIDTH
 40
5
  9
$PSOLHEIGHT
 40
80
  9
$LOFTANG1
 40
1.570796326794897
  9
$LOFTANG2
 40
1.570796326794897
  9
$LOFTMAG1
 40
0
  9
$LOFTMAG2
 40
0
  9
$LOFTPARAM
 70
    7
  9
$LOFTNORMALS
280
    1
  9
$LATITUDE
 40
1
  9
$LONGITUDE
 40
1
  9
$NORTHDIRECTION
 40
0
  9
$TIMEZONE
 70
-8000
  9
$LIGHTGLYPHDISPLAY
280
    1
  9
$TILEMODELIGHTSYNCH
280
    1
  9
$SOLIDHIST
280
    1
  9
$SHOWHIST
280
    1
  9
$DWFFRAME
280
    2
  9
$DGNFRAME
280
    0
  9
$REALWORLDSCALE
290
    1
  9
$INTERFERECOLOR
 62
    1
  9
$CSHADOW
280
    0
  9
$SHADOWPLANELOCATION
 40
0
  0
ENDSEC
  0
SECTION
  2
CLASSES
  0
ENDSEC
  0
SECTION
  2
TABLES
  0
TABLE
  2
VPORT
  5
8
330
0
100
AcDbSymbolTable
 70
    1
  0
VPORT
  5
31
330
2
100
AcDbSymbolTableRecord
100
AcDbViewportTableRecord
  2
*ACTIVE
 70
    0
 10
0
 20
0
 11
1
 21
1
 12
34.91318346925199
 22
15.82311133555727
 13
0
 23
0
 14
10
 24
10
 15
10
 25
10
 16
0
 26
0
 36
1
 17
0
 27
0
 37
0
 40
53.7670897621175
 41
1.86090775988287
 42
50
 43
0
 44
0
 50
0
 51
0
 71
    0
 72
  100
 73
    1
 74
    3
 75
    0
 76
    1
 77
    0
 78
    0
281
    0
 65
    1
110
0
120
0
130
0
111
1
121
0
131
0
112
0
122
1
132
0
 79
    0
146
0
348
10020
 60
    7
 61
    5
292
1
282
    1
141
0
142
0
 63
  250
421
3358443
  0
ENDTAB
  0
TABLE
  2
LTYPE
  5
5
330
0
100
AcDbSymbolTable
 70
    4
  0
LTYPE
  5
14
330
5
100
AcDbSymbolTableRecord
100
AcDbLinetypeTableRecord
  2
ByBlock
 70
    0
  3

 72
   65
 73
    0
 40
0
  0
LTYPE
  5
15
330
5
100
AcDbSymbolTableRecord
100
AcDbLinetypeTableRecord
  2
ByLayer
 70
    0
  3

 72
   65
 73
    0
 40
0
  0
LTYPE
  5
16
330
5
100
AcDbSymbolTableRecord
100
AcDbLinetypeTableRecord
  2
Continuous
 70
    0
  3
Solid line
 72
   65
 73
    0
 40
0
  0
LTYPE
  5
32
330
5
100
AcDbSymbolTableRecord
100
AcDbLinetypeTableRecord
  2
DOT
 70
    0
  3
Dot . . . . . . . . . . . . . . . . . . . . . .
 72
   65
 73
    2
 40
6.35
 49
0
 74
    0
 49
-6.35
 74
    0
  0
LTYPE
  5
33
330
5
100
AcDbSymbolTableRecord
100
AcDbLinetypeTableRecord
  2
DOTTINY
 70
    0
  3
Dot (.15x) .....................................
 72
   65
 73
    2
 40
0.9525
 49
0
 74
    0
 49
-0.9525
 74
    0
  0
LTYPE
  5
34
330
5
100
AcDbSymbolTableRecord
100
AcDbLinetypeTableRecord
  2
DOT2
 70
    0
  3
Dot (.5x) .....................................
 72
   65
 73
    2
 40
3.175
 49
0
 74
    0
 49
-3.175
 74
    0
  0
LTYPE
  5
35
330
5
100
AcDbSymbolTableRecord
100
AcDbLinetypeTableRecord
  2
DOTX2
 70
    0
  3
Dot (2x) .  .  .  .  .  .  .  .  .  .  .  .  .
 72
   65
 73
    2
 40
12.7
 49
0
 74
    0
 49
-12.7
 74
    0
  0
LTYPE
  5
36
330
5
100
AcDbSymbolTableRecord
100
AcDbLinetypeTableRecord
  2
DASHED
 70
    0
  3
Dashed _ _ _ _ _ _ _ _ _ _ _ _ _ _ _ _ _
 72
   65
 73
    2
 40
19.05
 49
12.7
 74
    0
 49
-6.35
 74
    0
  0
LTYPE
  5
37
330
5
100
AcDbSymbolTableRecord
100
AcDbLinetypeTableRecord
  2
DASHEDTINY
 70
    0
  3
Dashed (.15x) _ _ _ _ _ _ _ _ _ _ _ _ _ _ _ _ _
 72
   65
 73
    2
 40
2.8575
 49
1.905
 74
    0
 49
-0.9525
 74
    0
  0
LTYPE
  5
38
330
5
100
AcDbSymbolTableRecord
100
AcDbLinetypeTableRecord
  2
DASHED2
 70
    0
  3
Dashed (.5x) _ _ _ _ _ _ _ _ _ _ _ _ _ _ _ _ _
 72
   65
 73
    2
 40
9.524999999999999
 49
6.35
 74
    0
 49
-3.175
 74
    0
  0
LTYPE
  5
39
330
5
100
AcDbSymbolTableRecord
100
AcDbLinetypeTableRecord
  2
DASHEDX2
 70
    0
  3
Dashed (2x) ____  ____  ____  ____  ____  ___
 72
   65
 73
    2
 40
38.09999999999999
 49
25.4
 74
    0
 49
-12.7
 74
    0
  0
LTYPE
  5
3A
330
5
100
AcDbSymbolTableRecord
100
AcDbLinetypeTableRecord
  2
DASHDOT
 70
    0
  3
Dash dot __ . __ . __ . __ . __ . __ . __ . __
 72
   65
 73
    4
 40
25.4
 49
12.7
 74
    0
 49
-6.35
 74
    0
 49
0
 74
    0
 49
-6.35
 74
    0
  0
LTYPE
  5
3B
330
5
100
AcDbSymbolTableRecord
100
AcDbLinetypeTableRecord
  2
DASHDOTTINY
 70
    0
  3
Dash dot (.15x) _._._._._._._._._._._._._._._.
 72
   65
 73
    4
 40
3.81
 49
1.905
 74
    0
 49
-0.9525
 74
    0
 49
0
 74
    0
 49
-0.9525
 74
    0
  0
LTYPE
  5
3C
330
5
100
AcDbSymbolTableRecord
100
AcDbLinetypeTableRecord
  2
DASHDOT2
 70
    0
  3
Dash dot (.5x) _._._._._._._._._._._._._._._.
 72
   65
 73
    4
 40
12.7
 49
6.35
 74
    0
 49
-3.175
 74
    0
 49
0
 74
    0
 49
-3.175
 74
    0
  0
LTYPE
  5
3D
330
5
100
AcDbSymbolTableRecord
100
AcDbLinetypeTableRecord
  2
DASHDOTX2
 70
    0
  3
Dash dot (2x) ____  .  ____  .  ____  .  ___
 72
   65
 73
    4
 40
50.8
 49
25.4
 74
    0
 49
-12.7
 74
    0
 49
0
 74
    0
 49
-12.7
 74
    0
  0
LTYPE
  5
3E
330
5
100
AcDbSymbolTableRecord
100
AcDbLinetypeTableRecord
  2
DIVIDE
 70
    0
  3
Divide ____ . . ____ . . ____ . . ____ . . ____
 72
   65
 73
    6
 40
31.75
 49
12.7
 74
    0
 49
-6.35
 74
    0
 49
0
 74
    0
 49
-6.35
 74
    0
 49
0
 74
    0
 49
-6.35
 74
    0
  0
LTYPE
  5
3F
330
5
100
AcDbSymbolTableRecord
100
AcDbLinetypeTableRecord
  2
DIVIDETINY
 70
    0
  3
Divide (.15x) __..__..__..__..__..__..__..__.._
 72
   65
 73
    6
 40
4.7625
 49
1.905
 74
    0
 49
-0.9525
 74
    0
 49
0
 74
    0
 49
-0.9525
 74
    0
 49
0
 74
    0
 49
-0.9525
 74
    0
  0
LTYPE
  5
40
330
5
100
AcDbSymbolTableRecord
100
AcDbLinetypeTableRecord
  2
DIVIDE2
 70
    0
  3
Divide (.5x) __..__..__..__..__..__..__..__.._
 72
   65
 73
    6
 40
15.875
 49
6.35
 74
    0
 49
-3.175
 74
    0
 49
0
 74
    0
 49
-3.175
 74
    0
 49
0
 74
    0
 49
-3.175
 74
    0
  0
LTYPE
  5
41
330
5
100
AcDbSymbolTableRecord
100
AcDbLinetypeTableRecord
  2
DIVIDEX2
 70
    0
  3
Divide (2x) ________  .  .  ________  .  .  _
 72
   65
 73
    6
 40
63.5
 49
25.4
 74
    0
 49
-12.7
 74
    0
 49
0
 74
    0
 49
-12.7
 74
    0
 49
0
 74
    0
 49
-12.7
 74
    0
  0
LTYPE
  5
42
330
5
100
AcDbSymbolTableRecord
100
AcDbLinetypeTableRecord
  2
BORDER
 70
    0
  3
Border __ __ . __ __ . __ __ . __ __ . __ __ .
 72
   65
 73
    6
 40
44.45
 49
12.7
 74
    0
 49
-6.35
 74
    0
 49
12.7
 74
    0
 49
-6.35
 74
    0
 49
0
 74
    0
 49
-6.35
 74
    0
  0
LTYPE
  5
43
330
5
100
AcDbSymbolTableRecord
100
AcDbLinetypeTableRecord
  2
BORDERTINY
 70
    0
  3
Border (.15x) __.__.__.__.__.__.__.__.__.__.__.
 72
   65
 73
    6
 40
6.6675
 49
1.905
 74
    0
 49
-0.9525
 74
    0
 49
1.905
 74
    0
 49
-0.9525
 74
    0
 49
0
 74
    0
 49
-0.9525
 74
    0
  0
LTYPE
  5
44
330
5
100
AcDbSymbolTableRecord
100
AcDbLinetypeTableRecord
  2
BORDER2
 70
    0
  3
Border (.5x) __.__.__.__.__.__.__.__.__.__.__.
 72
   65
 73
    6
 40
22.225
 49
6.35
 74
    0
 49
-3.175
 74
    0
 49
6.35
 74
    0
 49
-3.175
 74
    0
 49
0
 74
    0
 49
-3.175
 74
    0
  0
LTYPE
  5
45
330
5
100
AcDbSymbolTableRecord
100
AcDbLinetypeTableRecord
  2
BORDERX2
 70
    0
  3
Border (2x) ____  ____  .  ____  ____  .  ___
 72
   65
 73
    6
 40
88.89999999999999
 49
25.4
 74
    0
 49
-12.7
 74
    0
 49
25.4
 74
    0
 49
-12.7
 74
    0
 49
0
 74
    0
 49
-12.7
 74
    0
  0
LTYPE
  5
46
330
5
100
AcDbSymbolTableRecord
100
AcDbLinetypeTableRecord
  2
CENTER
 70
    0
  3
Center ____ _ ____ _ ____ _ ____ _ ____ _ ____
 72
   65
 73
    4
 40
50.8
 49
31.75
 74
    0
 49
-6.35
 74
    0
 49
6.35
 74
    0
 49
-6.35
 74
    0
  0
LTYPE
  5
47
330
5
100
AcDbSymbolTableRecord
100
AcDbLinetypeTableRecord
  2
CENTERTINY
 70
    0
  3
Center (.15x) ___ _ ___ _ ___ _ ___ _ ___ _ ___
 72
   65
 73
    4
 40
7.619999999999999
 49
4.7625
 74
    0
 49
-0.9525
 74
    0
 49
0.9525
 74
    0
 49
-0.9525
 74
    0
  0
LTYPE
  5
48
330
5
100
AcDbSymbolTableRecord
100
AcDbLinetypeTableRecord
  2
CENTER2
 70
    0
  3
Center (.5x) ___ _ ___ _ ___ _ ___ _ ___ _ ___
 72
   65
 73
    4
 40
28.575
 49
19.05
 74
    0
 49
-3.175
 74
    0
 49
3.175
 74
    0
 49
-3.175
 74
    0
  0
LTYPE
  5
49
330
5
100
AcDbSymbolTableRecord
100
AcDbLinetypeTableRecord
  2
CENTERX2
 70
    0
  3
Center (2x) ________  __  ________  __  _____
 72
   65
 73
    4
 40
101.6
 49
63.5
 74
    0
 49
-12.7
 74
    0
 49
12.7
 74
    0
 49
-12.7
 74
    0
  0
ENDTAB
  0
TABLE
  2
LAYER
  5
2
330
0
100
AcDbSymbolTable
 70
    1
  0
LAYER
  5
10
330
2
100
AcDbSymbolTableRecord
100
AcDbLayerTableRecord
  2
0
 70
    0
 62
    7
  6
CONTINUOUS
370
    0
390
F
  0
LAYER
  5
4A
330
2
100
AcDbSymbolTableRecord
100
AcDbLayerTableRecord
  2
boundary
 70
    0
 62
    5
  6
CONTINUOUS
370
    0
390
F
  0
LAYER
  5
4B
330
2
100
AcDbSymbolTableRecord
100
AcDbLayerTableRecord
  2
notes
 70
    0
 62
    7
  6
CONTINUOUS
370
    0
390
F
  0
LAYER
  5
4C
330
2
100
AcDbSymbolTableRecord
100
AcDbLayerTableRecord
  2
holes
 70
    0
 62
    3
  6
CONTINUOUS
370
    0
390
F
  0
ENDTAB
  0
TABLE
  2
STYLE
  5
3
330
0
100
AcDbSymbolTable
 70
    3
  0
STYLE
  5
4D
330
2
100
AcDbSymbolTableRecord
100
AcDbTextStyleTableRecord
  2
Standard
 70
    0
 40
0
 41
1
 50
0
 71
    0
 42
1
  3
txt
  4

  0
ENDTAB
  0
TABLE
  2
VIEW
  5
6
330
0
100
AcDbSymbolTable
 70
    0
  0
ENDTAB
  0
TABLE
  2
UCS
  5
7
330
0
100
AcDbSymbolTable
 70
    0
  0
ENDTAB
  0
TABLE
  2
APPID
  5
9
330
0
100
AcDbSymbolTable
 70
    1
  0
APPID
  5
12
330
9
100
AcDbSymbolTableRecord
100
AcDbRegAppTableRecord
  2
ACAD
 70
    0
  0
APPID
  5
4E
330
9
100
AcDbSymbolTableRecord
100
AcDbRegAppTableRecord
  2
LibreCad
 70
    0
  0
ENDTAB
  0
TABLE
  2
DIMSTYLE
  5
A
330
0
100
AcDbSymbolTable
 70
    1
100
AcDbDimStyleTable
 71
    1
  0
DIMSTYLE
105
4F
330
A
100
AcDbSymbolTableRecord
100
AcDbDimStyleTableRecord
  2
Standard
 70
    0
 40
1
 41
0.2
 42
0.025
 43
0.38
 44
0.05
 45
0
 46
0
 47
0
 48
0
 49
0.04
140
0.2
141
0.09
142
0
143
25.4
144
1
145
0
146
1
147
0.025
148
0
 71
    0
 72
    0
 73
    0
 74
    1
 75
    0
 76
    0
 77
    0
 78
    1
 79
    0
170
    0
171
    2
172
    0
173
    0
174
    0
175
    0
176
    0
177
    0
178
    0
179
    2
271
    4
272
    4
273
    2
274
    2
275
    0
276
    0
277
    2
278
    0
279
    0
280
    0
281
    0
282
    0
283
    1
284
    0
285
    0
286
    0
288
    0
289
    3
340
standard
341

371
   -2
372
   -2
  0
ENDTAB
  0
TABLE
  2
BLOCK_RECORD
  5
1
330
0
100
AcDbSymbolTable
 70
    2
  0
BLOCK_RECORD
  5
1F
330
1
100
AcDbSymbolTableRecord
100
AcDbBlockTableRecord
  2
*Model_Space
 70
    0
280
    1
281
    0
  0
BLOCK_RECORD
  5
1E
330
1
100
AcDbSymbolTableRecord
100
AcDbBlockTableRecord
  2
*Paper_Space
 70
    0
280
    1
281
    0
  0
BLOCK_RECORD
  5
50
330
1
100
AcDbSymbolTableRecord
100
AcDbBlockTableRecord
  2
*D1
 70
    0
280
    1
281
    0
  0
BLOCK_RECORD
  5
53
330
1
100
AcDbSymbolTableRecord
100
AcDbBlockTableRecord
  2
layout1
 70
    0
280
    1
281
    0
  0
BLOCK_RECORD
  5
56
330
1
100
AcDbSymbolTableRecord
100
AcDbBlockTableRecord
  2
layout2
 70
    0
280
    1
281
    0
  0
BLOCK_RECORD
  5
59
330
1
100
AcDbSymbolTableRecord
100
AcDbBlockTableRecord
  2
layout1-0
 70
    0
280
    1
281
    0
  0
BLOCK_RECORD
  5
5C
330
1
100
AcDbSymbolTableRecord
100
AcDbBlockTableRecord
  2
layout2-0
 70
    0
280
    1
281
    0
  0
ENDTAB
  0
ENDSEC
  0
SECTION
  2
BLOCKS
  0
BLOCK
  5
20
330
1F
100
AcDbEntity
  8
0
100
AcDbBlockBegin
  2
*Model_Space
 70
    0
 10
0
 20
0
 30
0
  3
*Model_Space
  1

  0
ENDBLK
  5
21
330
1F
100
AcDbEntity
  8
0
100
AcDbBlockEnd
  0
BLOCK
  5
1C
330
1B
100
AcDbEntity
  8
0
100
AcDbBlockBegin
  2
*Paper_Space
 70
    0
 10
0
 20
0
 30
0
  3
*Paper_Space
  1

  0
ENDBLK
  5
1D
330
1F
100
AcDbEntity
  8
0
100
AcDbBlockEnd
  0
BLOCK
  5
51
330
50
100
AcDbEntity
  8
0
100
AcDbBlockBegin
  2
*D1
 70
    1
 10
0
 20
0
  3
*D1
  1

  0
LINE
  5
5F
100
AcDbEntity
  8
notes
  6
ByBlock
 62
    0
370
   -2
100
AcDbLine
 10
0.1999999999999993
 20
-0.2087225170949726
 11
12.2
 21
-0.2087225170949726
  0
SOLID
  5
60
100
AcDbEntity
  8
notes
  6
ByBlock
 62
    0
370
   -2
100
AcDbTrace
 10
0.1999999999999993
 20
-0.2087225170949726
 30
0
 11
0.3999999999999993
 21
-0.1754197444731454
 31
0
 12
0.3999999999999993
 22
-0.2420252897167999
 32
0
 13
0.3999999999999993
 23
-0.2420252897167999
 33
0
  0
SOLID
  5
61
100
AcDbEntity
  8
notes
  6
ByBlock
 62
    0
370
   -2
100
AcDbTrace
 10
12.2
 20
-0.2087225170949726
 30
0
 11
12
 21
-0.2420252897167999
 31
0
 12
12
 22
-0.1754197444731454
 32
0
 13
12
 23
-0.1754197444731454
 33
0
  0
MTEXT
  5
62
100
AcDbEntity
  8
notes
  6
CONTINUOUS
 62
    0
370
   -2
100
AcDbMText
 10
6.199999999999999
 20
-0.08372251709497264
 30
0
 40
0.2
 41
0.8888888888888888
 71
    5
 72
    1
  1
12.0000
  7
standard
210
0
220
0
230
1
 50
0
 73
    2
 44
1
  0
LINE
  5
63
100
AcDbEntity
  8
notes
  6
ByBlock
 62
    0
370
   -2
100
AcDbLine
 10
0.1999999999999999
 20
0.2374999999999993
 11
0.1999999999999992
 21
-0.2587225170949726
  0
LINE
  5
64
100
AcDbEntity
  8
notes
  6
ByBlock
 62
    0
370
   -2
100
AcDbLine
 10
12.2
 20
0.2374999999999993
 11
12.2
 21
-0.2587225170949726
  0
ENDBLK
  5
52
330
50
100
AcDbEntity
  8
0
100
AcDbBlockEnd
  0
BLOCK
  5
54
330
53
100
AcDbEntity
  8
0
100
AcDbBlockBegin
  2
layout1
 70
    0
 10
0
 20
0
  3
layout1
  1

  0
CIRCLE
  5
65
100
AcDbEntity
  8
holes
  6
ByLayer
 62
  256
370
   -1
100
AcDbCircle
 10
10.725
 20
10.72125
 40
0.13625
  0
CIRCLE
  5
66
100
AcDbEntity
  8
holes
  6
ByLayer
 62
  256
370
   -1
100
AcDbCircle
 10
10.725
 20
9.65875
 40
0.13625
  0
CIRCLE
  5
67
100
AcDbEntity
  8
holes
  6
ByLayer
 62
  256
370
   -1
100
AcDbCircle
 10
10.725
 20
4.72125
 40
0.13625
  0
CIRCLE
  5
68
100
AcDbEntity
  8
holes
  6
ByLayer
 62
  256
370
   -1
100
AcDbCircle
 10
10.725
 20
3.65875
 40
0.13625
  0
ARC
  5
69
100
AcDbEntity
  8
boundary
  6
ByLayer
 62
  256
370
   -1
100
AcDbCircle
 10
10.1625
 20
13.1275
 40
0.0625
100
AcDbArc
 50
90
 51
180
  0
LINE
  5
6A
100
AcDbEntity
  8
boundary
  6
ByLayer
 62
  256
370
   -1
100
AcDbLine
 10
21.0375
 20
13.19
 11
10.1625
 21
13.19
  0
ARC
  5
6B
100
AcDbEntity
  8
boundary
  6
ByLayer
 62
  256
370
   -1
100
AcDbCircle
 10
21.0375
 20
13.1275
 40
0.0625
100
AcDbArc
 50
0
 51
90
  0
LINE
  5
6C
100
AcDbEntity
  8
boundary
  6
ByLayer
 62
  256
370
   -1
100
AcDbLine
 10
21.1
 20
1.2625
 11
21.1
 21
13.1275
  0
ARC
  5
6D
100
AcDbEntity
  8
boundary
  6
ByLayer
 62
  256
370
   -1
100
AcDbCircle
 10
21.0375
 20
1.2625
 40
0.0625
100
AcDbArc
 50
270
 51
0
  0
LINE
  5
6E
100
AcDbEntity
  8
boundary
  6
ByLayer
 62
  256
370
   -1
100
AcDbLine
 10
21.0375
 20
1.2
 11
10.1625
 21
1.2
  0
LINE
  5
6F
100
AcDbEntity
  8
boundary
  6
ByLayer
 62
  256
370
   -1
100
AcDbLine
 10
10.1
 20
13.1275
 11
10.1
 21
1.2625
  0
ARC
  5
70
100
AcDbEntity
  8
boundary
  6
ByLayer
 62
  256
370
   -1
100
AcDbCircle
 10
10.1625
 20
1.2625
 40
0.0625
100
AcDbArc
 50
180
 51
270
  0
CIRCLE
  5
71
100
AcDbEntity
  8
holes
  6
ByLayer
 62
  256
370
   -1
100
AcDbCircle
 10
12.56875
 20
14.475
 40
0.13625
  0
CIRCLE
  5
72
100
AcDbEntity
  8
holes
  6
ByLayer
 62
  256
370
   -1
100
AcDbCircle
 10
13.63125
 20
14.475
 40
0.13625
  0
CIRCLE
  5
73
100
AcDbEntity
  8
holes
  6
ByLayer
 62
  256
370
   -1
100
AcDbCircle
 10
18.56875
 20
14.475
 40
0.13625
  0
CIRCLE
  5
74
100
AcDbEntity
  8
holes
  6
ByLayer
 62
  256
370
   -1
100
AcDbCircle
 10
19.63125
 20
14.475
 40
0.13625
  0
ARC
  5
75
100
AcDbEntity
  8
boundary
  6
ByLayer
 62
  256
370
   -1
100
AcDbCircle
 10
10.1625
 20
13.6625
 40
0.0625
100
AcDbArc
 50
180
 51
270
  0
LINE
  5
76
100
AcDbEntity
  8
boundary
  6
ByLayer
 62
  256
370
   -1
100
AcDbLine
 10
10.1
 20
15.0375
 11
10.1
 21
13.6625
  0
ARC
  5
77
100
AcDbEntity
  8
boundary
  6
ByLayer
 62
  256
370
   -1
100
AcDbCircle
 10
10.1625
 20
15.0375
 40
0.0625
100
AcDbArc
 50
90
 51
180
  0
LINE
  5
78
100
AcDbEntity
  8
boundary
  6
ByLayer
 62
  256
370
   -1
100
AcDbLine
 10
22.0375
 20
15.1
 11
10.1625
 21
15.1
  0
ARC
  5
79
100
AcDbEntity
  8
boundary
  6
ByLayer
 62
  256
370
   -1
100
AcDbCircle
 10
22.0375
 20
15.0375
 40
0.0625
100
AcDbArc
 50
360
 51
90
  0
LINE
  5
7A
100
AcDbEntity
  8
boundary
  6
ByLayer
 62
  256
370
   -1
100
AcDbLine
 10
10.1625
 20
13.6
 11
22.0375
 21
13.6
  0
LINE
  5
7B
100
AcDbEntity
  8
boundary
  6
ByLayer
 62
  256
370
   -1
100
AcDbLine
 10
22.1
 20
13.6625
 11
22.1
 21
15.0375
  0
ARC
  5
7C
100
AcDbEntity
  8
boundary
  6
ByLayer
 62
  256
370
   -1
100
AcDbCircle
 10
22.0375
 20
13.6625
 40
0.0625
100
AcDbArc
 50
270
 51
360
  0
ARC
  5
7D
100
AcDbEntity
  8
boundary
  6
ByLayer
 62
  256
370
   -1
100
AcDbCircle
 10
21.5625
 20
13.1375
 40
0.0625
100
AcDbArc
 50
90
 51
180
  0
LINE
  5
7E
100
AcDbEntity
  8
boundary
  6
ByLayer
 62
  256
370
   -1
100
AcDbLine
 10
21.5
 20
13.1375
 11
21.5
 21
1.2625
  0
ARC
  5
7F
100
AcDbEntity
  8
boundary
  6
ByLayer
 62
  256
370
   -1
100
AcDbCircle
 10
21.5625
 20
1.2625
 40
0.0625
100
AcDbArc
 50
180
 51
270
  0
ARC
  5
80
100
AcDbEntity
  8
boundary
  6
ByLayer
 62
  256
370
   -1
100
AcDbCircle
 10
30.4375
 20
13.1375
 40
0.0625
100
AcDbArc
 50
0
 51
90
  0
LINE
  5
81
100
AcDbEntity
  8
boundary
  6
ByLayer
 62
  256
370
   -1
100
AcDbLine
 10
30.5
 20
1.2625
 11
30.5
 21
13.1375
  0
ARC
  5
82
100
AcDbEntity
  8
boundary
  6
ByLayer
 62
  256
370
   -1
100
AcDbCircle
 10
30.4375
 20
1.2625
 40
0.0625
100
AcDbArc
 50
270
 51
0
  0
LINE
  5
83
100
AcDbEntity
  8
boundary
  6
ByLayer
 62
  256
370
   -1
100
AcDbLine
 10
21.5625
 20
13.2
 11
30.4375
 21
13.2
  0
LINE
  5
84
100
AcDbEntity
  8
boundary
  6
ByLayer
 62
  256
370
   -1
100
AcDbLine
 10
21.5625
 20
1.2
 11
30.4375
 21
1.2
  0
ARC
  5
85
100
AcDbEntity
  8
boundary
  6
ByLayer
 62
  256
370
   -1
100
AcDbCircle
 10
0.2625
 20
13.9375
 40
0.0625
100
AcDbArc
 50
90
 51
180
  0
LINE
  5
86
100
AcDbEntity
  8
boundary
  6
ByLayer
 62
  256
370
   -1
100
AcDbLine
 10
0.2
 20
1.5625
 11
0.2
 21
13.9375
  0
ARC
  5
87
100
AcDbEntity
  8
boundary
  6
ByLayer
 62
  256
370
   -1
100
AcDbCircle
 10
0.2625
 20
1.5625
 40
0.0625
100
AcDbArc
 50
180
 51
270
  0
ARC
  5
88
100
AcDbEntity
  8
boundary
  6
ByLayer
 62
  256
370
   -1
100
AcDbCircle
 10
9.637499999999999
 20
13.9375
 40
0.0625
100
AcDbArc
 50
360
 51
90
  0
LINE
  5
89
100
AcDbEntity
  8
boundary
  6
ByLayer
 62
  256
370
   -1
100
AcDbLine
 10
9.699999999999999
 20
13.9375
 11
9.699999999999999
 21
1.5625
  0
ARC
  5
8A
100
AcDbEntity
  8
boundary
  6
ByLayer
 62
  256
370
   -1
100
AcDbCircle
 10
9.637499999999999
 20
1.5625
 40
0.0625
100
AcDbArc
 50
270
 51
360
  0
LINE
  5
8B
100
AcDbEntity
  8
boundary
  6
ByLayer
 62
  256
370
   -1
100
AcDbLine
 10
0.2625
 20
14
 11
9.637499999999999
 21
14
  0
LINE
  5
8C
100
AcDbEntity
  8
boundary
  6
ByLayer
 62
  256
370
   -1
100
AcDbLine
 10
0.2625
 20
1.5
 11
9.637499999999999
 21
1.5
  0
ENDBLK
  5
55
330
53
100
AcDbEntity
  8
0
100
AcDbBlockEnd
  0
BLOCK
  5
57
330
56
100
AcDbEntity
  8
0
100
AcDbBlockBegin
  2
layout2
 70
    0
 10
0
 20
0
  3
layout2
  1

  0
ARC
  5
8D
100
AcDbEntity
  8
boundary
  6
ByLayer
 62
  256
370
   -1
100
AcDbCircle
 10
12.1375
 20
1.762499999999999
 40
0.0625
100
AcDbArc
 50
270
 51
360
  0
LINE
  5
8E
100
AcDbEntity
  8
boundary
  6
ByLayer
 62
  256
370
   -1
100
AcDbLine
 10
0.2625
 20
1.699999999999999
 11
12.1375
 21
1.699999999999999
  0
ARC
  5
8F
100
AcDbEntity
  8
boundary
  6
ByLayer
 62
  256
370
   -1
100
AcDbCircle
 10
0.2625
 20
1.762499999999999
 40
0.0625
100
AcDbArc
 50
180
 51
270
  0
LINE
  5
90
100
AcDbEntity
  8
boundary
  6
ByLayer
 62
  256
370
   -1
100
AcDbLine
 10
0.2
 20
14.1375
 11
0.2
 21
1.762499999999999
  0
ARC
  5
91
100
AcDbEntity
  8
boundary
  6
ByLayer
 62
  256
370
   -1
100
AcDbCircle
 10
0.2625
 20
14.1375
 40
0.0625
100
AcDbArc
 50
90
 51
180
  0
LINE
  5
92
100
AcDbEntity
  8
boundary
  6
ByLayer
 62
  256
370
   -1
100
AcDbLine
 10
12.2
 20
1.762499999999999
 11
12.2
 21
14.1375
  0
LINE
  5
93
100
AcDbEntity
  8
boundary
  6
ByLayer
 62
  256
370
   -1
100
AcDbLine
 10
12.1375
 20
14.2
 11
0.2625
 21
14.2
  0
ARC
  5
94
100
AcDbEntity
  8
boundary
  6
ByLayer
 62
  256
370
   -1
100
AcDbCircle
 10
12.1375
 20
14.1375
 40
0.0625
100
AcDbArc
 50
360
 51
90
  0
ARC
  5
95
100
AcDbEntity
  8
boundary
  6
ByLayer
 62
  256
370
   -1
100
AcDbCircle
 10
12.6625
 20
13.6375
 40
0.0625
100
AcDbArc
 50
90
 51
180
  0
LINE
  5
96
100
AcDbEntity
  8
boundary
  6
ByLayer
 62
  256
370
   -1
100
AcDbLine
 10
12.6
 20
13.6375
 11
12.6
 21
1.762499999999999
  0
ARC
  5
97
100
AcDbEntity
  8
boundary
  6
ByLayer
 62
  256
370
   -1
100
AcDbCircle
 10
12.6625
 20
1.762499999999999
 40
0.0625
100
AcDbArc
 50
180
 51
270
  0
ARC
  5
98
100
AcDbEntity
  8
boundary
  6
ByLayer
 62
  256
370
   -1
100
AcDbCircle
 10
21.5375
 20
13.6375
 40
0.0625
100
AcDbArc
 50
0
 51
90
  0
LINE
  5
99
100
AcDbEntity
  8
boundary
  6
ByLayer
 62
  256
370
   -1
100
AcDbLine
 10
21.6
 20
1.762499999999999
 11
21.6
 21
13.6375
  0
ARC
  5
9A
100
AcDbEntity
  8
boundary
  6
ByLayer
 62
  256
370
   -1
100
AcDbCircle
 10
21.5375
 20
1.762499999999999
 40
0.0625
100
AcDbArc
 50
270
 51
0
  0
LINE
  5
9B
100
AcDbEntity
  8
boundary
  6
ByLayer
 62
  256
370
   -1
100
AcDbLine
 10
12.6625
 20
13.7
 11
21.5375
 21
13.7
  0
LINE
  5
9C
100
AcDbEntity
  8
boundary
  6
ByLayer
 62
  256
370
   -1
100
AcDbLine
 10
12.6625
 20
1.699999999999999
 11
21.5375
 21
1.699999999999999
  0
ARC
  5
9D
100
AcDbEntity
  8
boundary
  6
ByLayer
 62
  256
370
   -1
100
AcDbCircle
 10
22.0625
 20
1.762499999999999
 40
0.0625
100
AcDbArc
 50
180
 51
270
  0
LINE
  5
9E
100
AcDbEntity
  8
boundary
  6
ByLayer
 62
  256
370
   -1
100
AcDbLine
 10
22
 20
14.1375
 11
22
 21
1.762499999999999
  0
ARC
  5
9F
100
AcDbEntity
  8
boundary
  6
ByLayer
 62
  256
370
   -1
100
AcDbCircle
 10
22.0625
 20
14.1375
 40
0.0625
100
AcDbArc
 50
90
 51
180
  0
ARC
  5
A0
100
AcDbEntity
  8
boundary
  6
ByLayer
 62
  256
370
   -1
100
AcDbCircle
 10
31.4375
 20
14.1375
 40
0.0625
100
AcDbArc
 50
360
 51
90
  0
LINE
  5
A1
100
AcDbEntity
  8
boundary
  6
ByLayer
 62
  256
370
   -1
100
AcDbLine
 10
31.5
 20
1.762499999999999
 11
31.5
 21
14.1375
  0
ARC
  5
A2
100
AcDbEntity
  8
boundary
  6
ByLayer
 62
  256
370
   -1
100
AcDbCircle
 10
31.4375
 20
1.762499999999999
 40
0.0625
100
AcDbArc
 50
270
 51
360
  0
LINE
  5
A3
100
AcDbEntity
  8
boundary
  6
ByLayer
 62
  256
370
   -1
100
AcDbLine
 10
22.0625
 20
1.699999999999999
 11
31.4375
 21
1.699999999999999
  0
LINE
  5
A4
100
AcDbEntity
  8
boundary
  6
ByLayer
 62
  256
370
   -1
100
AcDbLine
 10
22.0625
 20
14.2
 11
31.4375
 21
14.2
  0
ENDBLK
  5
58
330
56
100
AcDbEntity
  8
0
100
AcDbBlockEnd
  0
BLOCK
  5
5A
330
59
100
AcDbEntity
  8
0
100
AcDbBlockBegin
  2
layout1-0
 70
    0
 10
0
 20
0
  3
layout1-0
  1

  0
CIRCLE
  5
A5
100
AcDbEntity
  8
holes
  6
ByLayer
 62
  256
370
   -1
100
AcDbCircle
 10
10.725
 20
10.72125
 40
0.13625
  0
CIRCLE
  5
A6
100
AcDbEntity
  8
holes
  6
ByLayer
 62
  256
370
   -1
100
AcDbCircle
 10
10.725
 20
9.65875
 40
0.13625
  0
CIRCLE
  5
A7
100
AcDbEntity
  8
holes
  6
ByLayer
 62
  256
370
   -1
100
AcDbCircle
 10
10.725
 20
4.72125
 40
0.13625
  0
CIRCLE
  5
A8
100
AcDbEntity
  8
holes
  6
ByLayer
 62
  256
370
   -1
100
AcDbCircle
 10
10.725
 20
3.65875
 40
0.13625
  0
ARC
  5
A9
100
AcDbEntity
  8
boundary
  6
ByLayer
 62
  256
370
   -1
100
AcDbCircle
 10
10.1625
 20
13.1275
 40
0.0625
100
AcDbArc
 50
90
 51
180
  0
LINE
  5
AA
100
AcDbEntity
  8
boundary
  6
ByLayer
 62
  256
370
   -1
100
AcDbLine
 10
21.0375
 20
13.19
 11
10.1625
 21
13.19
  0
ARC
  5
AB
100
AcDbEntity
  8
boundary
  6
ByLayer
 62
  256
370
   -1
100
AcDbCircle
 10
21.0375
 20
13.1275
 40
0.0625
100
AcDbArc
 50
0
 51
90
  0
LINE
  5
AC
100
AcDbEntity
  8
boundary
  6
ByLayer
 62
  256
370
   -1
100
AcDbLine
 10
21.1
 20
1.2625
 11
21.1
 21
13.1275
  0
ARC
  5
AD
100
AcDbEntity
  8
boundary
  6
ByLayer
 62
  256
370
   -1
100
AcDbCircle
 10
21.0375
 20
1.2625
 40
0.0625
100
AcDbArc
 50
270
 51
0
  0
LINE
  5
AE
100
AcDbEntity
  8
boundary
  6
ByLayer
 62
  256
370
   -1
100
AcDbLine
 10
21.0375
 20
1.2
 11
10.1625
 21
1.2
  0
LINE
  5
AF
100
AcDbEntity
  8
boundary
  6
ByLayer
 62
  256
370
   -1
100
AcDbLine
 10
10.1
 20
13.1275
 11
10.1
 21
1.2625
  0
ARC
  5
B0
100
AcDbEntity
  8
boundary
  6
ByLayer
 62
  256
370
   -1
100
AcDbCircle
 10
10.1625
 20
1.2625
 40
0.0625
100
AcDbArc
 50
180
 51
270
  0
CIRCLE
  5
B1
100
AcDbEntity
  8
holes
  6
ByLayer
 62
  256
370
   -1
100
AcDbCircle
 10
12.56875
 20
14.475
 40
0.13625
  0
CIRCLE
  5
B2
100
AcDbEntity
  8
holes
  6
ByLayer
 62
  256
370
   -1
100
AcDbCircle
 10
13.63125
 20
14.475
 40
0.13625
  0
CIRCLE
  5
B3
100
AcDbEntity
  8
holes
  6
ByLayer
 62
  256
370
   -1
100
AcDbCircle
 10
18.56875
 20
14.475
 40
0.13625
  0
CIRCLE
  5
B4
100
AcDbEntity
  8
holes
  6
ByLayer
 62
  256
370
   -1
100
AcDbCircle
 10
19.63125
 20
14.475
 40
0.13625
  0
ARC
  5
B5
100
AcDbEntity
  8
boundary
  6
ByLayer
 62
  256
370
   -1
100
AcDbCircle
 10
10.1625
 20
13.6625
 40
0.0625
100
AcDbArc
 50
180
 51
270
  0
LINE
  5
B6
100
AcDbEntity
  8
boundary
  6
ByLayer
 62
  256
370
   -1
100
AcDbLine
 10
10.1
 20
15.0375
 11
10.1
 21
13.6625
  0
ARC
  5
B7
100
AcDbEntity
  8
boundary
  6
ByLayer
 62
  256
370
   -1
100
AcDbCircle
 10
10.1625
 20
15.0375
 40
0.0625
100
AcDbArc
 50
90
 51
180
  0
LINE
  5
B8
100
AcDbEntity
  8
boundary
  6
ByLayer
 62
  256
370
   -1
100
AcDbLine
 10
22.0375
 20
15.1
 11
10.1625
 21
15.1
  0
ARC
  5
B9
100
AcDbEntity
  8
boundary
  6
ByLayer
 62
  256
370
   -1
100
AcDbCircle
 10
22.0375
 20
15.0375
 40
0.0625
100
AcDbArc
 50
360
 51
90
  0
LINE
  5
BA
100
AcDbEntity
  8
boundary
  6
ByLayer
 62
  256
370
   -1
100
AcDbLine
 10
10.1625
 20
13.6
 11
22.0375
 21
13.6
  0
LINE
  5
BB
100
AcDbEntity
  8
boundary
  6
ByLayer
 62
  256
370
   -1
100
AcDbLine
 10
22.1
 20
13.6625
 11
22.1
 21
15.0375
  0
ARC
  5
BC
100
AcDbEntity
  8
boundary
  6
ByLayer
 62
  256
370
   -1
100
AcDbCircle
 10
22.0375
 20
13.6625
 40
0.0625
100
AcDbArc
 50
270
 51
360
  0
ARC
  5
BD
100
AcDbEntity
  8
boundary
  6
ByLayer
 62
  256
370
   -1
100
AcDbCircle
 10
21.5625
 20
13.1375
 40
0.0625
100
AcDbArc
 50
90
 51
180
  0
LINE
  5
BE
100
AcDbEntity
  8
boundary
  6
ByLayer
 62
  256
370
   -1
100
AcDbLine
 10
21.5
 20
13.1375
 11
21.5
 21
1.2625
  0
ARC
  5
BF
100
AcDbEntity
  8
boundary
  6
ByLayer
 62
  256
370
   -1
100
AcDbCircle
 10
21.5625
 20
1.2625
 40
0.0625
100
AcDbArc
 50
180
 51
270
  0
ARC
  5
C0
100
AcDbEntity
  8
boundary
  6
ByLayer
 62
  256
370
   -1
100
AcDbCircle
 10
30.4375
 20
13.1375
 40
0.0625
100
AcDbArc
 50
0
 51
90
  0
LINE
  5
C1
100
AcDbEntity
  8
boundary
  6
ByLayer
 62
  256
370
   -1
100
AcDbLine
 10
30.5
 20
1.2625
 11
30.5
 21
13.1375
  0
ARC
  5
C2
100
AcDbEntity
  8
boundary
  6
ByLayer
 62
  256
370
   -1
100
AcDbCircle
 10
30.4375
 20
1.2625
 40
0.0625
100
AcDbArc
 50
270
 51
0
  0
LINE
  5
C3
100
AcDbEntity
  8
boundary
  6
ByLayer
 62
  256
370
   -1
100
AcDbLine
 10
21.5625
 20
13.2
 11
30.4375
 21
13.2
  0
LINE
  5
C4
100
AcDbEntity
  8
boundary
  6
ByLayer
 62
  256
370
   -1
100
AcDbLine
 10
21.5625
 20
1.2
 11
30.4375
 21
1.2
  0
ARC
  5
C5
100
AcDbEntity
  8
boundary
  6
ByLayer
 62
  256
370
   -1
100
AcDbCircle
 10
0.2625000000000028
 20
13.9375
 40
0.0625
100
AcDbArc
 50
90
 51
180
  0
LINE
  5
C6
100
AcDbEntity
  8
boundary
  6
ByLayer
 62
  256
370
   -1
100
AcDbLine
 10
0.2000000000000028
 20
1.5625
 11
0.2000000000000028
 21
13.9375
  0
ARC
  5
C7
100
AcDbEntity
  8
boundary
  6
ByLayer
 62
  256
370
   -1
100
AcDbCircle
 10
0.2625000000000028
 20
1.5625
 40
0.0625
100
AcDbArc
 50
180
 51
270
  0
ARC
  5
C8
100
AcDbEntity
  8
boundary
  6
ByLayer
 62
  256
370
   -1
100
AcDbCircle
 10
9.637499999999999
 20
13.9375
 40
0.0625
100
AcDbArc
 50
360
 51
90
  0
LINE
  5
C9
100
AcDbEntity
  8
boundary
  6
ByLayer
 62
  256
370
   -1
100
AcDbLine
 10
9.699999999999999
 20
13.9375
 11
9.699999999999999
 21
1.5625
  0
ARC
  5
CA
100
AcDbEntity
  8
boundary
  6
ByLayer
 62
  256
370
   -1
100
AcDbCircle
 10
9.637499999999999
 20
1.5625
 40
0.0625
100
AcDbArc
 50
270
 51
360
  0
LINE
  5
CB
100
AcDbEntity
  8
boundary
  6
ByLayer
 62
  256
370
   -1
100
AcDbLine
 10
0.2625000000000028
 20
14
 11
9.637499999999999
 21
14
  0
LINE
  5
CC
100
AcDbEntity
  8
boundary
  6
ByLayer
 62
  256
370
   -1
100
AcDbLine
 10
0.2625000000000028
 20
1.5
 11
9.637499999999999
 21
1.5
  0
ENDBLK
  5
5B
330
59
100
AcDbEntity
  8
0
100
AcDbBlockEnd
  0
BLOCK
  5
5D
330
5C
100
AcDbEntity
  8
0
100
AcDbBlockBegin
  2
layout2-0
 70
    0
 10
0
 20
0
  3
layout2-0
  1

  0
ARC
  5
CD
100
AcDbEntity
  8
boundary
  6
ByLayer
 62
  256
370
   -1
100
AcDbCircle
 10
12.1375
 20
1.762499999999999
 40
0.0625
100
AcDbArc
 50
270
 51
360
  0
LINE
  5
CE
100
AcDbEntity
  8
boundary
  6
ByLayer
 62
  256
370
   -1
100
AcDbLine
 10
0.2625000000000028
 20
1.699999999999999
 11
12.1375
 21
1.699999999999999
  0
ARC
  5
CF
100
AcDbEntity
  8
boundary
  6
ByLayer
 62
  256
370
   -1
100
AcDbCircle
 10
0.2625000000000028
 20
1.762499999999999
 40
0.0625
100
AcDbArc
 50
180
 51
270
  0
LINE
  5
D0
100
AcDbEntity
  8
boundary
  6
ByLayer
 62
  256
370
   -1
100
AcDbLine
 10
0.2000000000000028
 20
14.1375
 11
0.2000000000000028
 21
1.762499999999999
  0
ARC
  5
D1
100
AcDbEntity
  8
boundary
  6
ByLayer
 62
  256
370
   -1
100
AcDbCircle
 10
0.2625000000000028
 20
14.1375
 40
0.0625
100
AcDbArc
 50
90
 51
180
  0
LINE
  5
D2
100
AcDbEntity
  8
boundary
  6
ByLayer
 62
  256
370
   -1
100
AcDbLine
 10
12.2
 20
1.762499999999999
 11
12.2
 21
14.1375
  0
LINE
  5
D3
100
AcDbEntity
  8
boundary
  6
ByLayer
 62
  256
370
   -1
100
AcDbLine
 10
12.1375
 20
14.2
 11
0.2625000000000028
 21
14.2
  0
ARC
  5
D4
100
AcDbEntity
  8
boundary
  6
ByLayer
 62
  256
370
   -1
100
AcDbCircle
 10
12.1375
 20
14.1375
 40
0.0625
100
AcDbArc
 50
360
 51
90
  0
ARC
  5
D5
100
AcDbEntity
  8
boundary
  6
ByLayer
 62
  256
370
   -1
100
AcDbCircle
 10
12.6625
 20
13.6375
 40
0.0625
100
AcDbArc
 50
90
 51
180
  0
LINE
  5
D6
100
AcDbEntity
  8
boundary
  6
ByLayer
 62
  256
370
   -1
100
AcDbLine
 10
12.6
 20
13.6375
 11
12.6
 21
1.762499999999999
  0
ARC
  5
D7
100
AcDbEntity
  8
boundary
  6
ByLayer
 62
  256
370
   -1
100
AcDbCircle
 10
12.6625
 20
1.762499999999999
 40
0.0625
100
AcDbArc
 50
180
 51
270
  0
ARC
  5
D8
100
AcDbEntity
  8
boundary
  6
ByLayer
 62
  256
370
   -1
100
AcDbCircle
 10
21.5375
 20
13.6375
 40
0.0625
100
AcDbArc
 50
0
 51
90
  0
LINE
  5
D9
100
AcDbEntity
  8
boundary
  6
ByLayer
 62
  256
370
   -1
100
AcDbLine
 10
21.6
 20
1.762499999999999
 11
21.6
 21
13.6375
  0
ARC
  5
DA
100
AcDbEntity
  8
boundary
  6
ByLayer
 62
  256
370
   -1
100
AcDbCircle
 10
21.5375
 20
1.762499999999999
 40
0.0625
100
AcDbArc
 50
270
 51
0
  0
LINE
  5
DB
100
AcDbEntity
  8
boundary
  6
ByLayer
 62
  256
370
   -1
100
AcDbLine
 10
12.6625
 20
13.7
 11
21.5375
 21
13.7
  0
LINE
  5
DC
100
AcDbEntity
  8
boundary
  6
ByLayer
 62
  256
370
   -1
100
AcDbLine
 10
12.6625
 20
1.699999999999999
 11
21.5375
 21
1.699999999999999
  0
ARC
  5
DD
100
AcDbEntity
  8
boundary
  6
ByLayer
 62
  256
370
   -1
100
AcDbCircle
 10
22.0625
 20
1.762499999999999
 40
0.0625
100
AcDbArc
 50
180
 51
270
  0
LINE
  5
DE
100
AcDbEntity
  8
boundary
  6
ByLayer
 62
  256
370
   -1
100
AcDbLine
 10
22
 20
14.1375
 11
22
 21
1.762499999999999
  0
ARC
  5
DF
100
AcDbEntity
  8
boundary
  6
ByLayer
 62
  256
370
   -1
100
AcDbCircle
 10
22.0625
 20
14.1375
 40
0.0625
100
AcDbArc
 50
90
 51
180
  0
ARC
  5
E0
100
AcDbEntity
  8
boundary
  6
ByLayer
 62
  256
370
   -1
100
AcDbCircle
 10
31.4375
 20
14.1375
 40
0.0625
100
AcDbArc
 50
360
 51
90
  0
LINE
  5
E1
100
AcDbEntity
  8
boundary
  6
ByLayer
 62
  256
370
   -1
100
AcDbLine
 10
31.5
 20
1.762499999999999
 11
31.5
 21
14.1375
  0
ARC
  5
E2
100
AcDbEntity
  8
boundary
  6
ByLayer
 62
  256
370
   -1
100
AcDbCircle
 10
31.4375
 20
1.762499999999999
 40
0.0625
100
AcDbArc
 50
270
 51
360
  0
LINE
  5
E3
100
AcDbEntity
  8
boundary
  6
ByLayer
 62
  256
370
   -1
100
AcDbLine
 10
22.0625
 20
1.699999999999999
 11
31.4375
 21
1.699999999999999
  0
LINE
  5
E4
100
AcDbEntity
  8
boundary
  6
ByLayer
 62
  256
370
   -1
100
AcDbLine
 10
22.0625
 20
14.2
 11
31.4375
 21
14.2
  0
ENDBLK
  5
5E
330
5C
100
AcDbEntity
  8
0
100
AcDbBlockEnd
  0
ENDSEC
  0
SECTION
  2
ENTITIES
  0
ARC
  5
E5
100
AcDbEntity
  8
boundary
  6
ByLayer
 62
  256
370
   -1
100
AcDbCircle
 10
12.1375
 20
0.2624999999999993
 40
0.0625
100
AcDbArc
 50
270
 51
360
  0
LINE
  5
E6
100
AcDbEntity
  8
boundary
  6
ByLayer
 62
  256
370
   -1
100
AcDbLine
 10
0.2625
 20
0.1999999999999993
 11
12.1375
 21
0.1999999999999993
  0
ARC
  5
E7
100
AcDbEntity
  8
boundary
  6
ByLayer
 62
  256
370
   -1
100
AcDbCircle
 10
0.2625
 20
0.2624999999999993
 40
0.0625
100
AcDbArc
 50
180
 51
270
  0
LINE
  5
E8
100
AcDbEntity
  8
boundary
  6
ByLayer
 62
  256
370
   -1
100
AcDbLine
 10
0.2
 20
12.6375
 11
0.2
 21
0.2624999999999993
  0
ARC
  5
E9
100
AcDbEntity
  8
boundary
  6
ByLayer
 62
  256
370
   -1
100
AcDbCircle
 10
0.2625
 20
12.6375
 40
0.0625
100
AcDbArc
 50
90
 51
180
  0
LINE
  5
EA
100
AcDbEntity
  8
boundary
  6
ByLayer
 62
  256
370
   -1
100
AcDbLine
 10
12.2
 20
0.2624999999999993
 11
12.2
 21
12.6375
  0
LINE
  5
EB
100
AcDbEntity
  8
boundary
  6
ByLayer
 62
  256
370
   -1
100
AcDbLine
 10
12.1375
 20
12.7
 11
0.2625
 21
12.7
  0
ARC
  5
EC
100
AcDbEntity
  8
boundary
  6
ByLayer
 62
  256
370
   -1
100
AcDbCircle
 10
12.1375
 20
12.6375
 40
0.0625
100
AcDbArc
 50
360
 51
90
  0
ARC
  5
ED
100
AcDbEntity
  8
boundary
  6
ByLayer
 62
  256
370
   -1
100
AcDbCircle
 10
12.6625
 20
12.1375
 40
0.0625
100
AcDbArc
 50
90
 51
180
  0
LINE
  5
EE
100
AcDbEntity
  8
boundary
  6
ByLayer
 62
  256
370
   -1
100
AcDbLine
 10
12.6
 20
12.1375
 11
12.6
 21
0.2624999999999993
  0
ARC
  5
EF
100
AcDbEntity
  8
boundary
  6
ByLayer
 62
  256
370
   -1
100
AcDbCircle
 10
12.6625
 20
0.2624999999999993
 40
0.0625
100
AcDbArc
 50
180
 51
270
  0
ARC
  5
F0
100
AcDbEntity
  8
boundary
  6
ByLayer
 62
  256
370
   -1
100
AcDbCircle
 10
21.5375
 20
12.1375
 40
0.0625
100
AcDbArc
 50
0
 51
90
  0
LINE
  5
F1
100
AcDbEntity
  8
boundary
  6
ByLayer
 62
  256
370
   -1
100
AcDbLine
 10
21.6
 20
0.2624999999999993
 11
21.6
 21
12.1375
  0
ARC
  5
F2
100
AcDbEntity
  8
boundary
  6
ByLayer
 62
  256
370
   -1
100
AcDbCircle
 10
21.5375
 20
0.2624999999999993
 40
0.0625
100
AcDbArc
 50
270
 51
0
  0
LINE
  5
F3
100
AcDbEntity
  8
boundary
  6
ByLayer
 62
  256
370
   -1
100
AcDbLine
 10
12.6625
 20
12.2
 11
21.5375
 21
12.2
  0
LINE
  5
F4
100
AcDbEntity
  8
boundary
  6
ByLayer
 62
  256
370
   -1
100
AcDbLine
 10
12.6625
 20
0.1999999999999993
 11
21.5375
 21
0.1999999999999993
  0
ARC
  5
F5
100
AcDbEntity
  8
boundary
  6
ByLayer
 62
  256
370
   -1
100
AcDbCircle
 10
22.0625
 20
0.2624999999999993
 40
0.0625
100
AcDbArc
 50
180
 51
270
  0
LINE
  5
F6
100
AcDbEntity
  8
boundary
  6
ByLayer
 62
  256
370
   -1
100
AcDbLine
 10
22
 20
12.6375
 11
22
 21
0.2624999999999993
  0
ARC
  5
F7
100
AcDbEntity
  8
boundary
  6
ByLayer
 62
  256
370
   -1
100
AcDbCircle
 10
22.0625
 20
12.6375
 40
0.0625
100
AcDbArc
 50
90
 51
180
  0
ARC
  5
F8
100
AcDbEntity
  8
boundary
  6
ByLayer
 62
  256
370
   -1
100
AcDbCircle
 10
31.4375
 20
12.6375
 40
0.0625
100
AcDbArc
 50
360
 51
90
  0
LINE
  5
F9
100
AcDbEntity
  8
boundary
  6
ByLayer
 62
  256
370
   -1
100
AcDbLine
 10
31.5
 20
0.2624999999999993
 11
31.5
 21
12.6375
  0
ARC
  5
FA
100
AcDbEntity
  8
boundary
  6
ByLayer
 62
  256
370
   -1
100
AcDbCircle
 10
31.4375
 20
0.2624999999999993
 40
0.0625
100
AcDbArc
 50
270
 51
360
  0
LINE
  5
FB
100
AcDbEntity
  8
boundary
  6
ByLayer
 62
  256
370
   -1
100
AcDbLine
 10
22.0625
 20
0.1999999999999993
 11
31.4375
 21
0.1999999999999993
  0
LINE
  5
FC
100
AcDbEntity
  8
boundary
  6
ByLayer
 62
  256
370
   -1
100
AcDbLine
 10
22.0625
 20
12.7
 11
31.4375
 21
12.7
  0
ARC
  5
FD
100
AcDbEntity
  8
boundary
  6
ByLayer
 62
  256
370
   -1
100
AcDbCircle
 10
10.1625
 20
25.1275
 40
0.0625
100
AcDbArc
 50
90
 51
180
  0
LINE
  5
FE
100
AcDbEntity
  8
boundary
  6
ByLayer
 62
  256
370
   -1
100
AcDbLine
 10
21.0375
 20
25.19
 11
10.1625
 21
25.19
  0
ARC
  5
FF
100
AcDbEntity
  8
boundary
  6
ByLayer
 62
  256
370
   -1
100
AcDbCircle
 10
21.0375
 20
25.1275
 40
0.0625
100
AcDbArc
 50
0
 51
90
  0
LINE
  5
100
100
AcDbEntity
  8
boundary
  6
ByLayer
 62
  256
370
   -1
100
AcDbLine
 10
21.1
 20
13.2625
 11
21.1
 21
25.1275
  0
ARC
  5
101
100
AcDbEntity
  8
boundary
  6
ByLayer
 62
  256
370
   -1
100
AcDbCircle
 10
21.0375
 20
13.2625
 40
0.0625
100
AcDbArc
 50
270
 51
0
  0
LINE
  5
102
100
AcDbEntity
  8
boundary
  6
ByLayer
 62
  256
370
   -1
100
AcDbLine
 10
21.0375
 20
13.2
 11
10.1625
 21
13.2
  0
LINE
  5
103
100
AcDbEntity
  8
boundary
  6
ByLayer
 62
  256
370
   -1
100
AcDbLine
 10
10.1
 20
25.1275
 11
10.1
 21
13.2625
  0
ARC
  5
104
100
AcDbEntity
  8
boundary
  6
ByLayer
 62
  256
370
   -1
100
AcDbCircle
 10
10.1625
 20
13.2625
 40
0.0625
100
AcDbArc
 50
180
 51
270
  0
ARC
  5
105
100
AcDbEntity
  8
boundary
  6
ByLayer
 62
  256
370
   -1
100
AcDbCircle
 10
10.1625
 20
25.6625
 40
0.0625
100
AcDbArc
 50
180
 51
270
  0
LINE
  5
106
100
AcDbEntity
  8
boundary
  6
ByLayer
 62
  256
370
   -1
100
AcDbLine
 10
10.1
 20
27.0375
 11
10.1
 21
25.6625
  0
ARC
  5
107
100
AcDbEntity
  8
boundary
  6
ByLayer
 62
  256
370
   -1
100
AcDbCircle
 10
10.1625
 20
27.0375
 40
0.0625
100
AcDbArc
 50
90
 51
180
  0
LINE
  5
108
100
AcDbEntity
  8
boundary
  6
ByLayer
 62
  256
370
   -1
100
AcDbLine
 10
22.0375
 20
27.1
 11
10.1625
 21
27.1
  0
ARC
  5
109
100
AcDbEntity
  8
boundary
  6
ByLayer
 62
  256
370
   -1
100
AcDbCircle
 10
22.0375
 20
27.0375
 40
0.0625
100
AcDbArc
 50
360
 51
90
  0
LINE
  5
10A
100
AcDbEntity
  8
boundary
  6
ByLayer
 62
  256
370
   -1
100
AcDbLine
 10
10.1625
 20
25.6
 11
22.0375
 21
25.6
  0
LINE
  5
10B
100
AcDbEntity
  8
boundary
  6
ByLayer
 62
  256
370
   -1
100
AcDbLine
 10
22.1
 20
25.6625
 11
22.1
 21
27.0375
  0
ARC
  5
10C
100
AcDbEntity
  8
boundary
  6
ByLayer
 62
  256
370
   -1
100
AcDbCircle
 10
22.0375
 20
25.6625
 40
0.0625
100
AcDbArc
 50
270
 51
360
  0
ARC
  5
10D
100
AcDbEntity
  8
boundary
  6
ByLayer
 62
  256
370
   -1
100
AcDbCircle
 10
21.5625
 20
25.1375
 40
0.0625
100
AcDbArc
 50
90
 51
180
  0
LINE
  5
10E
100
AcDbEntity
  8
boundary
  6
ByLayer
 62
  256
370
   -1
100
AcDbLine
 10
21.5
 20
25.1375
 11
21.5
 21
13.2625
  0
ARC
  5
10F
100
AcDbEntity
  8
boundary
  6
ByLayer
 62
  256
370
   -1
100
AcDbCircle
 10
21.5625
 20
13.2625
 40
0.0625
100
AcDbArc
 50
180
 51
270
  0
ARC
  5
110
100
AcDbEntity
  8
boundary
  6
ByLayer
 62
  256
370
   -1
100
AcDbCircle
 10
30.4375
 20
25.1375
 40
0.0625
100
AcDbArc
 50
0
 51
90
  0
LINE
  5
111
100
AcDbEntity
  8
boundary
  6
ByLayer
 62
  256
370
   -1
100
AcDbLine
 10
30.5
 20
13.2625
 11
30.5
 21
25.1375
  0
ARC
  5
112
100
AcDbEntity
  8
boundary
  6
ByLayer
 62
  256
370
   -1
100
AcDbCircle
 10
30.4375
 20
13.2625
 40
0.0625
100
AcDbArc
 50
270
 51
0
  0
LINE
  5
113
100
AcDbEntity
  8
boundary
  6
ByLayer
 62
  256
370
   -1
100
AcDbLine
 10
21.5625
 20
25.2
 11
30.4375
 21
25.2
  0
LINE
  5
114
100
AcDbEntity
  8
boundary
  6
ByLayer
 62
  256
370
   -1
100
AcDbLine
 10
21.5625
 20
13.2
 11
30.4375
 21
13.2
  0
ARC
  5
115
100
AcDbEntity
  8
boundary
  6
ByLayer
 62
  256
370
   -1
100
AcDbCircle
 10
0.2625000000000002
 20
25.9375
 40
0.0625
100
AcDbArc
 50
90
 51
180
  0
LINE
  5
116
100
AcDbEntity
  8
boundary
  6
ByLayer
 62
  256
370
   -1
100
AcDbLine
 10
0.2000000000000002
 20
13.5625
 11
0.2000000000000002
 21
25.9375
  0
ARC
  5
117
100
AcDbEntity
  8
boundary
  6
ByLayer
 62
  256
370
   -1
100
AcDbCircle
 10
0.2625000000000002
 20
13.5625
 40
0.0625
100
AcDbArc
 50
180
 51
270
  0
ARC
  5
118
100
AcDbEntity
  8
boundary
  6
ByLayer
 62
  256
370
   -1
100
AcDbCircle
 10
9.637499999999999
 20
25.9375
 40
0.0625
100
AcDbArc
 50
360
 51
90
  0
LINE
  5
119
100
AcDbEntity
  8
boundary
  6
ByLayer
 62
  256
370
   -1
100
AcDbLine
 10
9.699999999999999
 20
25.9375
 11
9.699999999999999
 21
13.5625
  0
ARC
  5
11A
100
AcDbEntity
  8
boundary
  6
ByLayer
 62
  256
370
   -1
100
AcDbCircle
 10
9.637499999999999
 20
13.5625
 40
0.0625
100
AcDbArc
 50
270
 51
360
  0
LINE
  5
11B
100
AcDbEntity
  8
boundary
  6
ByLayer
 62
  256
370
   -1
100
AcDbLine
 10
0.2625000000000002
 20
26
 11
9.637499999999999
 21
26
  0
LINE
  5
11C
100
AcDbEntity
  8
boundary
  6
ByLayer
 62
  256
370
   -1
100
AcDbLine
 10
0.2625000000000002
 20
13.5
 11
9.637499999999999
 21
13.5
  0
ARC
  5
11D
100
AcDbEntity
  8
boundary
  6
ByLayer
 62
  256
370
   -1
100
AcDbCircle
 10
32.0625
 20
0.2624999999999993
 40
0.0625
100
AcDbArc
 50
180
 51
270
  0
LINE
  5
11E
100
AcDbEntity
  8
boundary
  6
ByLayer
 62
  256
370
   -1
100
AcDbLine
 10
32
 20
12.6375
 11
32
 21
0.2624999999999993
  0
ARC
  5
11F
100
AcDbEntity
  8
boundary
  6
ByLayer
 62
  256
370
   -1
100
AcDbCircle
 10
32.0625
 20
12.6375
 40
0.0625
100
AcDbArc
 50
90
 51
180
  0
ARC
  5
120
100
AcDbEntity
  8
boundary
  6
ByLayer
 62
  256
370
   -1
100
AcDbCircle
 10
41.4375
 20
12.6375
 40
0.0625
100
AcDbArc
 50
360
 51
90
  0
LINE
  5
121
100
AcDbEntity
  8
boundary
  6
ByLayer
 62
  256
370
   -1
100
AcDbLine
 10
41.5
 20
0.2624999999999993
 11
41.5
 21
12.6375
  0
ARC
  5
122
100
AcDbEntity
  8
boundary
  6
ByLayer
 62
  256
370
   -1
100
AcDbCircle
 10
41.4375
 20
0.2624999999999993
 40
0.0625
100
AcDbArc
 50
270
 51
360
  0
LINE
  5
123
100
AcDbEntity
  8
boundary
  6
ByLayer
 62
  256
370
   -1
100
AcDbLine
 10
32.0625
 20
0.1999999999999993
 11
41.4375
 21
0.1999999999999993
  0
LINE
  5
124
100
AcDbEntity
  8
boundary
  6
ByLayer
 62
  256
370
   -1
100
AcDbLine
 10
32.0625
 20
12.7
 11
41.4375
 21
12.7
  0
CIRCLE
  5
125
100
AcDbEntity
  8
holes
  6
ByLayer
 62
  256
370
   -1
100
AcDbCircle
 10
29
 20
12.038
 40
0.07199999999999999
  0
CIRCLE
  5
126
100
AcDbEntity
  8
holes
  6
ByLayer
 62
  256
370
   -1
100
AcDbCircle
 10
26.75
 20
6.449999999999999
 40
0.25
  0
CIRCLE
  5
127
100
AcDbEntity
  8
holes
  6
ByLayer
 62
  256
370
   -1
100
AcDbCircle
 10
0.612
 20
3.449999999999999
 40
0.074
  0
CIRCLE
  5
128
100
AcDbEntity
  8
holes
  6
ByLayer
 62
  256
370
   -1
100
AcDbCircle
 10
3.2
 20
0.8620000000000019
 40
0.074
  0
CIRCLE
  5
129
100
AcDbEntity
  8
holes
  6
ByLayer
 62
  256
370
   -1
100
AcDbCircle
 10
3.2
 20
12.038
 40
0.074
  0
CIRCLE
  5
12A
100
AcDbEntity
  8
holes
  6
ByLayer
 62
  256
370
   -1
100
AcDbCircle
 10
9.199999999999999
 20
12.038
 40
0.074
  0
CIRCLE
  5
12B
100
AcDbEntity
  8
holes
  6
ByLayer
 62
  256
370
   -1
100
AcDbCircle
 10
11.788
 20
9.449999999999999
 40
0.074
  0
CIRCLE
  5
12C
100
AcDbEntity
  8
holes
  6
ByLayer
 62
  256
370
   -1
100
AcDbCircle
 10
11.788
 20
3.449999999999999
 40
0.074
  0
CIRCLE
  5
12D
100
AcDbEntity
  8
holes
  6
ByLayer
 62
  256
370
   -1
100
AcDbCircle
 10
9.199999999999999
 20
0.8620000000000019
 40
0.074
  0
CIRCLE
  5
12E
100
AcDbEntity
  8
holes
  6
ByLayer
 62
  256
370
   -1
100
AcDbCircle
 10
13.012
 20
3.199999999999999
 40
0.074
  0
CIRCLE
  5
12F
100
AcDbEntity
  8
holes
  6
ByLayer
 62
  256
370
   -1
100
AcDbCircle
 10
13.012
 20
9.199999999999999
 40
0.074
  0
CIRCLE
  5
130
100
AcDbEntity
  8
holes
  6
ByLayer
 62
  256
370
   -1
100
AcDbCircle
 10
0.612
 20
9.449999999999999
 40
0.074
  0
CIRCLE
  5
131
100
AcDbEntity
  8
holes
  6
ByLayer
 62
  256
370
   -1
100
AcDbCircle
 10
14.85
 20
0.6120000000000019
 40
0.074
  0
CIRCLE
  5
132
100
AcDbEntity
  8
holes
  6
ByLayer
 62
  256
370
   -1
100
AcDbCircle
 10
19.35
 20
0.6120000000000019
 40
0.074
  0
CIRCLE
  5
133
100
AcDbEntity
  8
holes
  6
ByLayer
 62
  256
370
   -1
100
AcDbCircle
 10
19.35
 20
11.788
 40
0.074
  0
CIRCLE
  5
134
100
AcDbEntity
  8
holes
  6
ByLayer
 62
  256
370
   -1
100
AcDbCircle
 10
14.85
 20
11.788
 40
0.074
  0
CIRCLE
  5
135
100
AcDbEntity
  8
holes
  6
ByLayer
 62
  256
370
   -1
100
AcDbCircle
 10
22.662
 20
3.449999999999999
 40
0.074
  0
CIRCLE
  5
136
100
AcDbEntity
  8
holes
  6
ByLayer
 62
  256
370
   -1
100
AcDbCircle
 10
21.188
 20
6.199999999999999
 40
0.074
  0
CIRCLE
  5
137
100
AcDbEntity
  8
holes
  6
ByLayer
 62
  256
370
   -1
100
AcDbCircle
 10
22.662
 20
9.449999999999999
 40
0.074
  0
CIRCLE
  5
138
100
AcDbEntity
  8
holes
  6
ByLayer
 62
  256
370
   -1
100
AcDbCircle
 10
24.5
 20
12.038
 40
0.074
  0
CIRCLE
  5
139
100
AcDbEntity
  8
holes
  6
ByLayer
 62
  256
370
   -1
100
AcDbCircle
 10
24.5
 20
0.8620000000000019
 40
0.074
  0
CIRCLE
  5
13A
100
AcDbEntity
  8
holes
  6
ByLayer
 62
  256
370
   -1
100
AcDbCircle
 10
29
 20
0.8620000000000019
 40
0.074
  0
CIRCLE
  5
13B
100
AcDbEntity
  8
holes
  6
ByLayer
 62
  256
370
   -1
100
AcDbCircle
 10
30.838
 20
0.9499999999999993
 40
0.074
  0
CIRCLE
  5
13C
100
AcDbEntity
  8
holes
  6
ByLayer
 62
  256
370
   -1
100
AcDbCircle
 10
25.5
 20
5.199999999999999
 40
0.102
  0
CIRCLE
  5
13D
100
AcDbEntity
  8
holes
  6
ByLayer
 62
  256
370
   -1
100
AcDbCircle
 10
25.5
 20
7.699999999999999
 40
0.102
  0
CIRCLE
  5
13E
100
AcDbEntity
  8
holes
  6
ByLayer
 62
  256
370
   -1
100
AcDbCircle
 10
28
 20
7.699999999999999
 40
0.102
  0
CIRCLE
  5
13F
100
AcDbEntity
  8
holes
  6
ByLayer
 62
  256
370
   -1
100
AcDbCircle
 10
28
 20
5.199999999999999
 40
0.102
  0
CIRCLE
  5
140
100
AcDbEntity
  8
holes
  6
ByLayer
 62
  256
370
   -1
100
AcDbCircle
 10
10.725
 20
22.72125
 40
0.13625
  0
CIRCLE
  5
141
100
AcDbEntity
  8
holes
  6
ByLayer
 62
  256
370
   -1
100
AcDbCircle
 10
10.725
 20
21.65875
 40
0.13625
  0
CIRCLE
  5
142
100
AcDbEntity
  8
holes
  6
ByLayer
 62
  256
370
   -1
100
AcDbCircle
 10
10.725
 20
16.72125
 40
0.13625
  0
CIRCLE
  5
143
100
AcDbEntity
  8
holes
  6
ByLayer
 62
  256
370
   -1
100
AcDbCircle
 10
10.725
 20
15.65875
 40
0.13625
  0
CIRCLE
  5
144
100
AcDbEntity
  8
holes
  6
ByLayer
 62
  256
370
   -1
100
AcDbCircle
 10
19.85
 20
19.19
 40
0.1155
  0
CIRCLE
  5
145
100
AcDbEntity
  8
holes
  6
ByLayer
 62
  256
370
   -1
100
AcDbCircle
 10
20.1
 20
21.19
 40
0.08599999999999999
  0
CIRCLE
  5
146
100
AcDbEntity
  8
holes
  6
ByLayer
 62
  256
370
   -1
100
AcDbCircle
 10
20.1
 20
17.19
 40
0.08599999999999999
  0
CIRCLE
  5
147
100
AcDbEntity
  8
holes
  6
ByLayer
 62
  256
370
   -1
100
AcDbCircle
 10
12.56875
 20
26.475
 40
0.13625
  0
CIRCLE
  5
148
100
AcDbEntity
  8
holes
  6
ByLayer
 62
  256
370
   -1
100
AcDbCircle
 10
13.63125
 20
26.475
 40
0.13625
  0
CIRCLE
  5
149
100
AcDbEntity
  8
holes
  6
ByLayer
 62
  256
370
   -1
100
AcDbCircle
 10
18.56875
 20
26.475
 40
0.13625
  0
CIRCLE
  5
14A
100
AcDbEntity
  8
holes
  6
ByLayer
 62
  256
370
   -1
100
AcDbCircle
 10
19.63125
 20
26.475
 40
0.13625
  0
CIRCLE
  5
14B
100
AcDbEntity
  8
holes
  6
ByLayer
 62
  256
370
   -1
100
AcDbCircle
 10
21.94
 20
20
 40
0.102
  0
CIRCLE
  5
14C
100
AcDbEntity
  8
holes
  6
ByLayer
 62
  256
370
   -1
100
AcDbCircle
 10
21.94
 20
18.4
 40
0.102
  0
CIRCLE
  5
14D
100
AcDbEntity
  8
holes
  6
ByLayer
 62
  256
370
   -1
100
AcDbCircle
 10
29.2
 20
14.6
 40
0.748
  0
CIRCLE
  5
14E
100
AcDbEntity
  8
holes
  6
ByLayer
 62
  256
370
   -1
100
AcDbCircle
 10
23.75
 20
13.612
 40
0.074
  0
CIRCLE
  5
14F
100
AcDbEntity
  8
holes
  6
ByLayer
 62
  256
370
   -1
100
AcDbCircle
 10
28.25
 20
13.612
 40
0.074
  0
CIRCLE
  5
150
100
AcDbEntity
  8
holes
  6
ByLayer
 62
  256
370
   -1
100
AcDbCircle
 10
30.088
 20
16.2
 40
0.074
  0
CIRCLE
  5
151
100
AcDbEntity
  8
holes
  6
ByLayer
 62
  256
370
   -1
100
AcDbCircle
 10
30.088
 20
22.2
 40
0.074
  0
CIRCLE
  5
152
100
AcDbEntity
  8
holes
  6
ByLayer
 62
  256
370
   -1
100
AcDbCircle
 10
28.25
 20
24.788
 40
0.074
  0
CIRCLE
  5
153
100
AcDbEntity
  8
holes
  6
ByLayer
 62
  256
370
   -1
100
AcDbCircle
 10
23.75
 20
24.788
 40
0.074
  0
CIRCLE
  5
154
100
AcDbEntity
  8
holes
  6
ByLayer
 62
  256
370
   -1
100
AcDbCircle
 10
21.688
 20
26.35
 40
0.074
  0
CIRCLE
  5
155
100
AcDbEntity
  8
holes
  6
ByLayer
 62
  256
370
   -1
100
AcDbCircle
 10
16.1
 20
26.262
 40
0.074
  0
CIRCLE
  5
156
100
AcDbEntity
  8
holes
  6
ByLayer
 62
  256
370
   -1
100
AcDbCircle
 10
10.512
 20
26.35
 40
0.074
  0
CIRCLE
  5
157
100
AcDbEntity
  8
holes
  6
ByLayer
 62
  256
370
   -1
100
AcDbCircle
 10
1.45
 20
24.75
 40
0.1155
  0
CIRCLE
  5
158
100
AcDbEntity
  8
holes
  6
ByLayer
 62
  256
370
   -1
100
AcDbCircle
 10
1.45
 20
14.75
 40
0.1155
  0
CIRCLE
  5
159
100
AcDbEntity
  8
holes
  6
ByLayer
 62
  256
370
   -1
100
AcDbCircle
 10
8.449999999999999
 20
24.75
 40
0.1155
  0
CIRCLE
  5
15A
100
AcDbEntity
  8
holes
  6
ByLayer
 62
  256
370
   -1
100
AcDbCircle
 10
8.449999999999999
 20
14.75
 40
0.1155
  0
CIRCLE
  5
15B
100
AcDbEntity
  8
holes
  6
ByLayer
 62
  256
370
   -1
100
AcDbCircle
 10
0.8620000000000002
 20
22.75
 40
0.074
  0
CIRCLE
  5
15C
100
AcDbEntity
  8
holes
  6
ByLayer
 62
  256
370
   -1
100
AcDbCircle
 10
2.7
 20
25.338
 40
0.074
  0
CIRCLE
  5
15D
100
AcDbEntity
  8
holes
  6
ByLayer
 62
  256
370
   -1
100
AcDbCircle
 10
7.2
 20
25.338
 40
0.074
  0
CIRCLE
  5
15E
100
AcDbEntity
  8
holes
  6
ByLayer
 62
  256
370
   -1
100
AcDbCircle
 10
9.038
 20
25.25
 40
0.074
  0
CIRCLE
  5
15F
100
AcDbEntity
  8
holes
  6
ByLayer
 62
  256
370
   -1
100
AcDbCircle
 10
7.2
 20
14.162
 40
0.074
  0
CIRCLE
  5
160
100
AcDbEntity
  8
holes
  6
ByLayer
 62
  256
370
   -1
100
AcDbCircle
 10
2.7
 20
14.162
 40
0.074
  0
CIRCLE
  5
161
100
AcDbEntity
  8
holes
  6
ByLayer
 62
  256
370
   -1
100
AcDbCircle
 10
0.8620000000000002
 20
16.75
 40
0.074
  0
CIRCLE
  5
162
100
AcDbEntity
  8
holes
  6
ByLayer
 62
  256
370
   -1
100
AcDbCircle
 10
36.75
 20
6.449999999999999
 40
1.45
  0
CIRCLE
  5
163
100
AcDbEntity
  8
holes
  6
ByLayer
 62
  256
370
   -1
100
AcDbCircle
 10
39.26000000000001
 20
4.350000000000001
 40
0.1155
  0
CIRCLE
  5
164
100
AcDbEntity
  8
holes
  6
ByLayer
 62
  256
370
   -1
100
AcDbCircle
 10
40.26000000000001
 20
4.350000000000001
 40
0.1155
  0
CIRCLE
  5
165
100
AcDbEntity
  8
holes
  6
ByLayer
 62
  256
370
   -1
100
AcDbCircle
 10
39.26000000000001
 20
8.550000000000001
 40
0.1155
  0
CIRCLE
  5
166
100
AcDbEntity
  8
holes
  6
ByLayer
 62
  256
370
   -1
100
AcDbCircle
 10
40.26000000000001
 20
8.550000000000001
 40
0.1155
  0
CIRCLE
  5
167
100
AcDbEntity
  8
holes
  6
ByLayer
 62
  256
370
   -1
100
AcDbCircle
 10
40.83799999999999
 20
0.9499999999999993
 40
0.074
  0
CIRCLE
  5
168
100
AcDbEntity
  8
holes
  6
ByLayer
 62
  256
370
   -1
100
AcDbCircle
 10
39
 20
0.8620000000000019
 40
0.074
  0
CIRCLE
  5
169
100
AcDbEntity
  8
holes
  6
ByLayer
 62
  256
370
   -1
100
AcDbCircle
 10
39
 20
12.038
 40
0.074
  0
CIRCLE
  5
16A
100
AcDbEntity
  8
holes
  6
ByLayer
 62
  256
370
   -1
100
AcDbCircle
 10
34.5
 20
12.038
 40
0.074
  0
CIRCLE
  5
16B
100
AcDbEntity
  8
holes
  6
ByLayer
 62
  256
370
   -1
100
AcDbCircle
 10
32.662
 20
9.449999999999999
 40
0.074
  0
CIRCLE
  5
16C
100
AcDbEntity
  8
holes
  6
ByLayer
 62
  256
370
   -1
100
AcDbCircle
 10
32.662
 20
3.449999999999999
 40
0.074
  0
CIRCLE
  5
16D
100
AcDbEntity
  8
holes
  6
ByLayer
 62
  256
370
   -1
100
AcDbCircle
 10
34.5
 20
0.8620000000000019
 40
0.074
  0
CIRCLE
  5
16E
100
AcDbEntity
  8
holes
  6
ByLayer
 62
  256
370
   -1
100
AcDbCircle
 10
37.75
 20
3.949999999999999
 40
0.102
  0
CIRCLE
  5
16F
100
AcDbEntity
  8
holes
  6
ByLayer
 62
  256
370
   -1
100
AcDbCircle
 10
35.75
 20
3.949999999999999
 40
0.102
  0
CIRCLE
  5
170
100
AcDbEntity
  8
holes
  6
ByLayer
 62
  256
370
   -1
100
AcDbCircle
 10
35.75
 20
8.949999999999999
 40
0.102
  0
CIRCLE
  5
171
100
AcDbEntity
  8
holes
  6
ByLayer
 62
  256
370
   -1
100
AcDbCircle
 10
37.75
 20
8.949999999999999
 40
0.102
  0
DIMENSION
  5
172
100
AcDbEntity
  8
notes
  6
ByLayer
 62
  256
370
   -1
100
AcDbDimension
  2
*D1
 10
12.2
 20
-0.2087225170949726
 30
0
 11
6.199999999999999
 21
-0.08372251709497264
 31
0
 70
   32
 71
    5
  3
Standard
 53
0
210
0
220
0
230
1
100
AcDbAlignedDimension
 13
0.2
 23
0.2624999999999993
 33
0
 14
12.2
 24
0.2624999999999993
 34
0
100
AcDbRotatedDimension
  0
MTEXT
  5
173
100
AcDbEntity
  8
notes
  6
ByLayer
 62
  256
370
   -1
100
AcDbMText
 10
5.540137354234154
 20
-0.5560732660383723
 30
0
 40
0.2
 41
1.350000102857467
 71
    1
 72
    1
  1
Units: inch
  7

210
0
220
0
230
1
 50
0
 73
    2
 44
1
  0
ENDSEC
  0
SECTION
  2
OBJECTS
  0
DICTIONARY
  5
C
330
0
100
AcDbDictionary
281
    1
  3
ACAD_GROUP
350
D
  0
DICTIONARY
  5
D
330
C
100
AcDbDictionary
281
    1
  0
ENDSEC
  0
EOF
