999
dxfrw 0.5.10
0
SECTION
2
HEADER
9
$ACADVER
1
AC1021
9
$HANDSEED
5
20000
9
$DWGCODEPAGE
3
ANSI_1252
9
$INSBASE
10
0
20
0
30
0
9
$EXTMIN
10
0
20
0
30
0
9
$EXTMAX
10
24
20
23
30
0
9
$LIMMIN
10
0
20
0
9
$LIMMAX
10
420
20
297
9
$ORTHOMODE
70
0
9
$LTSCALE
40
1
9
$TEXTSTYLE
7
STANDARD
9
$CLAYER
8
0
9
$DIMASZ
40
0.1
9
$DIMLFAC
40
1
9
$DIMSCALE
40
1
9
$DIMEXO
40
0.025
9
$DIMEXE
40
0.05
9
$DIMTXT
40
0.1
9
$DIMTSZ
40
0
9
$DIMAUNIT
70
0
9
$DIMADEC
70
0
9
$DIMLUNIT
70
2
9
$DIMSTYLE
2
STANDARD
9
$DIMGAP
40
0.025
9
$DIMTIH
70
0
9
$LUNITS
70
2
9
$LUPREC
70
4
9
$AUNITS
70
0
9
$AUPREC
70
2
9
$SPLINESEGS
70
8
9
$GRIDMODE
70
1
9
$SNAPSTYLE
70
0
9
$PINSBASE
10
0
20
0
30
0
9
$PLIMMIN
10
0
20
0
9
$PLIMMAX
10
4.77216932881e-11
20
6.7492109079e-11
9
$INSUNITS
70
1
9
$PSVPSCALE
40
1
0
ENDSEC
0
SECTION
2
CLASSES
0
ENDSEC
0
SECTION
2
TABLES
0
TABLE
2
VPORT
5
8
330
0
100
AcDbSymbolTable
70
1
0
VPORT
5
31
330
2
100
AcDbSymbolTableRecord
100
AcDbViewportTableRecord
2
*ACTIVE
70
0
10
0
20
0
11
1
21
1
12
14.1093664808
22
13.8026411226
13
0
23
0
14
10
24
10
15
10
25
10
16
0
26
0
36
1
17
0
27
0
37
0
40
29.2155903761
41
1.81102362205
42
50
43
0
44
0
50
0
51
0
71
0
72
100
73
1
74
3
75
0
76
1
77
0
78
0
281
0
65
1
110
0
120
0
130
0
111
1
121
0
131
0
112
0
122
1
132
0
79
0
146
0
348
10020
60
7
61
5
292
1
282
1
141
0
142
0
63
250
421
3358443
0
ENDTAB
0
TABLE
2
LTYPE
5
5
330
0
100
AcDbSymbolTable
70
4
0
LTYPE
5
14
330
5
100
AcDbSymbolTableRecord
100
AcDbLinetypeTableRecord
2
ByBlock
70
0
3

72
65
73
0
40
0
0
LTYPE
5
15
330
5
100
AcDbSymbolTableRecord
100
AcDbLinetypeTableRecord
2
ByLayer
70
0
3

72
65
73
0
40
0
0
LTYPE
5
16
330
5
100
AcDbSymbolTableRecord
100
AcDbLinetypeTableRecord
2
Continuous
70
0
3
Solid line
72
65
73
0
40
0
0
LTYPE
5
32
330
5
100
AcDbSymbolTableRecord
100
AcDbLinetypeTableRecord
2
DOT
70
0
3
Dot . . . . . . . . . . . . . . . . . . . . . .
72
65
73
2
40
6.35
49
0
74
0
49
-6.35
74
0
0
LTYPE
5
33
330
5
100
AcDbSymbolTableRecord
100
AcDbLinetypeTableRecord
2
DOT2
70
0
3
Dot (.5x) .....................................
72
65
73
2
40
3.175
49
0
74
0
49
-3.175
74
0
0
LTYPE
5
34
330
5
100
AcDbSymbolTableRecord
100
AcDbLinetypeTableRecord
2
DOTX2
70
0
3
Dot (2x) .  .  .  .  .  .  .  .  .  .  .  .  .
72
65
73
2
40
12.7
49
0
74
0
49
-12.7
74
0
0
LTYPE
5
35
330
5
100
AcDbSymbolTableRecord
100
AcDbLinetypeTableRecord
2
DASHED
70
0
3
Dot . . . . . . . . . . . . . . . . . . . . . .
72
65
73
2
40
19.05
49
12.7
74
0
49
-6.35
74
0
0
LTYPE
5
36
330
5
100
AcDbSymbolTableRecord
100
AcDbLinetypeTableRecord
2
DASHED2
70
0
3
Dashed (.5x) _ _ _ _ _ _ _ _ _ _ _ _ _ _ _ _ _
72
65
73
2
40
9.525
49
6.35
74
0
49
-3.175
74
0
0
LTYPE
5
37
330
5
100
AcDbSymbolTableRecord
100
AcDbLinetypeTableRecord
2
DASHEDX2
70
0
3
Dashed (2x) ____  ____  ____  ____  ____  ___
72
65
73
2
40
38.1
49
25.4
74
0
49
-12.7
74
0
0
LTYPE
5
38
330
5
100
AcDbSymbolTableRecord
100
AcDbLinetypeTableRecord
2
DASHDOT
70
0
3
Dash dot __ . __ . __ . __ . __ . __ . __ . __
72
65
73
4
40
25.4
49
12.7
74
0
49
-6.35
74
0
49
0
74
0
49
-6.35
74
0
0
LTYPE
5
39
330
5
100
AcDbSymbolTableRecord
100
AcDbLinetypeTableRecord
2
DASHDOT2
70
0
3
Dash dot (.5x) _._._._._._._._._._._._._._._.
72
65
73
4
40
12.7
49
6.35
74
0
49
-3.175
74
0
49
0
74
0
49
-3.175
74
0
0
LTYPE
5
3A
330
5
100
AcDbSymbolTableRecord
100
AcDbLinetypeTableRecord
2
DASHDOTX2
70
0
3
Dash dot (2x) ____  .  ____  .  ____  .  ___
72
65
73
4
40
50.8
49
25.4
74
0
49
-12.7
74
0
49
0
74
0
49
-12.7
74
0
0
LTYPE
5
3B
330
5
100
AcDbSymbolTableRecord
100
AcDbLinetypeTableRecord
2
DIVIDE
70
0
3
Divide ____ . . ____ . . ____ . . ____ . . ____
72
65
73
6
40
31.75
49
12.7
74
0
49
-6.35
74
0
49
0
74
0
49
-6.35
74
0
49
0
74
0
49
-6.35
74
0
0
LTYPE
5
3C
330
5
100
AcDbSymbolTableRecord
100
AcDbLinetypeTableRecord
2
DIVIDE2
70
0
3
Divide (.5x) __..__..__..__..__..__..__..__.._
72
65
73
6
40
15.875
49
6.35
74
0
49
-3.175
74
0
49
0
74
0
49
-3.175
74
0
49
0
74
0
49
-3.175
74
0
0
LTYPE
5
3D
330
5
100
AcDbSymbolTableRecord
100
AcDbLinetypeTableRecord
2
DIVIDEX2
70
0
3
Divide (2x) ________  .  .  ________  .  .  _
72
65
73
6
40
63.5
49
25.4
74
0
49
-12.7
74
0
49
0
74
0
49
-12.7
74
0
49
0
74
0
49
-12.7
74
0
0
LTYPE
5
3E
330
5
100
AcDbSymbolTableRecord
100
AcDbLinetypeTableRecord
2
BORDER
70
0
3
Border __ __ . __ __ . __ __ . __ __ . __ __ .
72
65
73
6
40
44.45
49
12.7
74
0
49
-6.35
74
0
49
12.7
74
0
49
-6.35
74
0
49
0
74
0
49
-6.35
74
0
0
LTYPE
5
3F
330
5
100
AcDbSymbolTableRecord
100
AcDbLinetypeTableRecord
2
BORDER2
70
0
3
Border (.5x) __.__.__.__.__.__.__.__.__.__.__.
72
65
73
6
40
22.225
49
6.35
74
0
49
-3.175
74
0
49
6.35
74
0
49
-3.175
74
0
49
0
74
0
49
-3.175
74
0
0
LTYPE
5
40
330
5
100
AcDbSymbolTableRecord
100
AcDbLinetypeTableRecord
2
BORDERX2
70
0
3
Border (2x) ____  ____  .  ____  ____  .  ___
72
65
73
6
40
88.9
49
25.4
74
0
49
-12.7
74
0
49
25.4
74
0
49
-12.7
74
0
49
0
74
0
49
-12.7
74
0
0
LTYPE
5
41
330
5
100
AcDbSymbolTableRecord
100
AcDbLinetypeTableRecord
2
CENTER
70
0
3
Center ____ _ ____ _ ____ _ ____ _ ____ _ ____
72
65
73
4
40
50.8
49
31.75
74
0
49
-6.35
74
0
49
6.35
74
0
49
-6.35
74
0
0
LTYPE
5
42
330
5
100
AcDbSymbolTableRecord
100
AcDbLinetypeTableRecord
2
CENTER2
70
0
3
Center (.5x) ___ _ ___ _ ___ _ ___ _ ___ _ ___
72
65
73
4
40
28.575
49
19.05
74
0
49
-3.175
74
0
49
3.175
74
0
49
-3.175
74
0
0
LTYPE
5
43
330
5
100
AcDbSymbolTableRecord
100
AcDbLinetypeTableRecord
2
CENTERX2
70
0
3
Center (2x) ________  __  ________  __  _____
72
65
73
4
40
101.6
49
63.5
74
0
49
-12.7
74
0
49
12.7
74
0
49
-12.7
74
0
0
ENDTAB
0
TABLE
2
LAYER
5
2
330
0
100
AcDbSymbolTable
70
1
0
LAYER
5
10
330
2
100
AcDbSymbolTableRecord
100
AcDbLayerTableRecord
2
0
70
0
62
7
6
CONTINUOUS
370
0
390
F
0
LAYER
5
44
330
2
100
AcDbSymbolTableRecord
100
AcDbLayerTableRecord
2
material
70
0
62
16
420
8388608
6
CONTINUOUS
370
0
390
F
0
LAYER
5
45
330
2
100
AcDbSymbolTableRecord
100
AcDbLayerTableRecord
2
vector
70
0
62
3
6
CONTINUOUS
370
0
390
F
0
ENDTAB
0
TABLE
2
STYLE
5
3
330
0
100
AcDbSymbolTable
70
3
0
STYLE
5
46
330
2
100
AcDbSymbolTableRecord
100
AcDbTextStyleTableRecord
2
Standard
70
0
40
0
41
1
50
0
71
0
42
1
3
txt
4

0
ENDTAB
0
TABLE
2
VIEW
5
6
330
0
100
AcDbSymbolTable
70
0
0
ENDTAB
0
TABLE
2
UCS
5
7
330
0
100
AcDbSymbolTable
70
0
0
ENDTAB
0
TABLE
2
APPID
5
9
330
0
100
AcDbSymbolTable
70
1
0
APPID
5
12
330
9
100
AcDbSymbolTableRecord
100
AcDbRegAppTableRecord
2
ACAD
70
0
0
ENDTAB
0
TABLE
2
DIMSTYLE
5
A
330
0
100
AcDbSymbolTable
70
1
100
AcDbDimStyleTable
71
1
0
DIMSTYLE
105
47
330
A
100
AcDbSymbolTableRecord
100
AcDbDimStyleTableRecord
2
Standard
70
0
40
1
41
0.1
42
0.025
43
0.38
44
0.05
45
0
46
0
47
0
48
0
140
0.1
141
0.09
142
0
143
25.4
144
1
145
0
146
1
147
0.025
148
0
71
0
72
0
73
0
74
1
75
0
76
0
77
0
78
0
79
0
170
0
171
2
172
0
173
0
174
0
175
0
176
0
177
0
178
0
179
0
271
4
272
4
273
2
274
2
275
0
276
0
277
2
278
46
279
0
280
0
281
0
282
0
283
1
284
0
285
0
286
0
288
0
289
3
340
Standard
341

371
-2
372
-2
0
ENDTAB
0
TABLE
2
BLOCK_RECORD
5
1
330
0
100
AcDbSymbolTable
70
2
0
BLOCK_RECORD
5
1F
330
1
100
AcDbSymbolTableRecord
100
AcDbBlockTableRecord
2
*Model_Space
70
0
280
1
281
0
0
BLOCK_RECORD
5
1E
330
1
100
AcDbSymbolTableRecord
100
AcDbBlockTableRecord
2
*Paper_Space
70
0
280
1
281
0
0
BLOCK_RECORD
5
48
330
1
100
AcDbSymbolTableRecord
100
AcDbBlockTableRecord
2
floor-0
70
0
280
1
281
0
0
BLOCK_RECORD
5
4B
330
1
100
AcDbSymbolTableRecord
100
AcDbBlockTableRecord
2
front_door-0
70
0
280
1
281
0
0
BLOCK_RECORD
5
4E
330
1
100
AcDbSymbolTableRecord
100
AcDbBlockTableRecord
2
front_left-0
70
0
280
1
281
0
0
BLOCK_RECORD
5
51
330
1
100
AcDbSymbolTableRecord
100
AcDbBlockTableRecord
2
rear-0
70
0
280
1
281
0
0
BLOCK_RECORD
5
54
330
1
100
AcDbSymbolTableRecord
100
AcDbBlockTableRecord
2
rear-1
70
0
280
1
281
0
0
BLOCK_RECORD
5
57
330
1
100
AcDbSymbolTableRecord
100
AcDbBlockTableRecord
2
roof-0
70
0
280
1
281
0
0
BLOCK_RECORD
5
5A
330
1
100
AcDbSymbolTableRecord
100
AcDbBlockTableRecord
2
side_left-0
70
0
280
1
281
0
0
BLOCK_RECORD
5
5D
330
1
100
AcDbSymbolTableRecord
100
AcDbBlockTableRecord
2
side_right-0
70
0
280
1
281
0
0
BLOCK_RECORD
5
60
330
1
100
AcDbSymbolTableRecord
100
AcDbBlockTableRecord
2
rear-2
70
0
280
1
281
0
0
BLOCK_RECORD
5
63
330
1
100
AcDbSymbolTableRecord
100
AcDbBlockTableRecord
2
camera_mount_plate-0
70
0
280
1
281
0
0
BLOCK_RECORD
5
66
330
1
100
AcDbSymbolTableRecord
100
AcDbBlockTableRecord
2
front_door-1
70
0
280
1
281
0
0
ENDTAB
0
ENDSEC
0
SECTION
2
BLOCKS
0
BLOCK
5
20
330
1F
100
AcDbEntity
8
0
100
AcDbBlockBegin
2
*Model_Space
70
0
10
0
20
0
30
0
3
*Model_Space
1

0
ENDBLK
5
21
330
1F
100
AcDbEntity
8
0
100
AcDbBlockEnd
0
BLOCK
5
1C
330
1B
100
AcDbEntity
8
0
100
AcDbBlockBegin
2
*Paper_Space
70
0
10
0
20
0
30
0
3
*Paper_Space
1

0
ENDBLK
5
1D
330
1F
100
AcDbEntity
8
0
100
AcDbBlockEnd
0
BLOCK
5
49
330
48
100
AcDbEntity
8
0
100
AcDbBlockBegin
2
floor-0
70
0
10
0
20
0
3
floor-0
1

0
ENDBLK
5
4A
330
48
100
AcDbEntity
8
0
100
AcDbBlockEnd
0
BLOCK
5
4C
330
4B
100
AcDbEntity
8
0
100
AcDbBlockBegin
2
front_door-0
70
0
10
0
20
0
3
front_door-0
1

0
ENDBLK
5
4D
330
4B
100
AcDbEntity
8
0
100
AcDbBlockEnd
0
BLOCK
5
4F
330
4E
100
AcDbEntity
8
0
100
AcDbBlockBegin
2
front_left-0
70
0
10
0
20
0
3
front_left-0
1

0
ENDBLK
5
50
330
4E
100
AcDbEntity
8
0
100
AcDbBlockEnd
0
BLOCK
5
52
330
51
100
AcDbEntity
8
0
100
AcDbBlockBegin
2
rear-0
70
0
10
0
20
0
3
rear-0
1

0
ENDBLK
5
53
330
51
100
AcDbEntity
8
0
100
AcDbBlockEnd
0
BLOCK
5
55
330
54
100
AcDbEntity
8
0
100
AcDbBlockBegin
2
rear-1
70
0
10
0
20
0
3
rear-1
1

0
ENDBLK
5
56
330
54
100
AcDbEntity
8
0
100
AcDbBlockEnd
0
BLOCK
5
58
330
57
100
AcDbEntity
8
0
100
AcDbBlockBegin
2
roof-0
70
0
10
0
20
0
3
roof-0
1

0
ENDBLK
5
59
330
57
100
AcDbEntity
8
0
100
AcDbBlockEnd
0
BLOCK
5
5B
330
5A
100
AcDbEntity
8
0
100
AcDbBlockBegin
2
side_left-0
70
0
10
0
20
0
3
side_left-0
1

0
ENDBLK
5
5C
330
5A
100
AcDbEntity
8
0
100
AcDbBlockEnd
0
BLOCK
5
5E
330
5D
100
AcDbEntity
8
0
100
AcDbBlockBegin
2
side_right-0
70
0
10
0
20
0
3
side_right-0
1

0
ENDBLK
5
5F
330
5D
100
AcDbEntity
8
0
100
AcDbBlockEnd
0
BLOCK
5
61
330
60
100
AcDbEntity
8
0
100
AcDbBlockBegin
2
rear-2
70
0
10
0
20
0
3
rear-2
1

0
ENDBLK
5
62
330
60
100
AcDbEntity
8
0
100
AcDbBlockEnd
0
BLOCK
5
64
330
63
100
AcDbEntity
8
0
100
AcDbBlockBegin
2
camera_mount_plate-0
70
0
10
0
20
0
3
camera_mount_plate-0
1

0
ENDBLK
5
65
330
63
100
AcDbEntity
8
0
100
AcDbBlockEnd
0
BLOCK
5
67
330
66
100
AcDbEntity
8
0
100
AcDbBlockBegin
2
front_door-1
70
0
10
0
20
0
3
front_door-1
1

0
ENDBLK
5
68
330
66
100
AcDbEntity
8
0
100
AcDbBlockEnd
0
ENDSEC
0
SECTION
2
ENTITIES
0
LINE
5
69
100
AcDbEntity
8
material
6
ByLayer
62
256
370
-1
100
AcDbLine
10
0
20
0
11
24
21
0
0
LINE
5
6A
100
AcDbEntity
8
material
6
ByLayer
62
256
370
-1
100
AcDbLine
10
24
20
0
11
24
21
23
0
LINE
5
6B
100
AcDbEntity
8
material
6
ByLayer
62
256
370
-1
100
AcDbLine
10
24
20
23
11
0
21
23
0
LINE
5
6C
100
AcDbEntity
8
material
6
ByLayer
62
256
370
-1
100
AcDbLine
10
0
20
23
11
0
21
0
0
CIRCLE
5
6D
100
AcDbEntity
8
vector
6
ByLayer
62
256
370
-1
100
AcDbCircle
10
10.535
20
2.76875
40
0.13625
0
CIRCLE
5
6E
100
AcDbEntity
8
vector
6
ByLayer
62
256
370
-1
100
AcDbCircle
10
10.535
20
3.83125
40
0.13625
0
CIRCLE
5
6F
100
AcDbEntity
8
vector
6
ByLayer
62
256
370
-1
100
AcDbCircle
10
10.535
20
8.76875
40
0.13625
0
CIRCLE
5
70
100
AcDbEntity
8
vector
6
ByLayer
62
256
370
-1
100
AcDbCircle
10
10.535
20
9.83125
40
0.13625
0
CIRCLE
5
71
100
AcDbEntity
8
vector
6
ByLayer
62
256
370
-1
100
AcDbCircle
10
1.16
20
4.3
40
0.08475
0
CIRCLE
5
72
100
AcDbEntity
8
vector
6
ByLayer
62
256
370
-1
100
AcDbCircle
10
1.16
20
8.3
40
0.08475
0
ARC
5
73
100
AcDbEntity
8
vector
6
ByLayer
62
256
370
-1
100
AcDbCircle
10
11.0975
20
0.3625
40
0.0625
100
AcDbArc
50
270
51
360
0
LINE
5
74
100
AcDbEntity
8
vector
6
ByLayer
62
256
370
-1
100
AcDbLine
10
11.16
20
0.3625
11
11.16
21
12.2375
0
ARC
5
75
100
AcDbEntity
8
vector
6
ByLayer
62
256
370
-1
100
AcDbCircle
10
11.0975
20
12.2375
40
0.0625
100
AcDbArc
50
360
51
90
0
LINE
5
76
100
AcDbEntity
8
vector
6
ByLayer
62
256
370
-1
100
AcDbLine
10
0.2225
20
0.3
11
11.0975
21
0.3
0
ARC
5
77
100
AcDbEntity
8
vector
6
ByLayer
62
256
370
-1
100
AcDbCircle
10
0.2225
20
0.3625
40
0.0625
100
AcDbArc
50
180
51
270
0
LINE
5
78
100
AcDbEntity
8
vector
6
ByLayer
62
256
370
-1
100
AcDbLine
10
11.0975
20
12.3
11
0.2225
21
12.3
0
LINE
5
79
100
AcDbEntity
8
vector
6
ByLayer
62
256
370
-1
100
AcDbLine
10
0.16
20
12.2375
11
0.16
21
0.3625
0
ARC
5
7A
100
AcDbEntity
8
vector
6
ByLayer
62
256
370
-1
100
AcDbCircle
10
0.2225
20
12.2375
40
0.0625
100
AcDbArc
50
90
51
180
0
CIRCLE
5
7B
100
AcDbEntity
8
vector
6
ByLayer
62
256
370
-1
100
AcDbCircle
10
1.11
20
6.3
40
0.1155
0
CIRCLE
5
7C
100
AcDbEntity
8
vector
6
ByLayer
62
256
370
-1
100
AcDbCircle
10
11.882
20
9.29749975961
40
0.072
0
CIRCLE
5
7D
100
AcDbEntity
8
vector
6
ByLayer
62
256
370
-1
100
AcDbCircle
10
14.47
20
11.8854997596
40
0.072
0
CIRCLE
5
7E
100
AcDbEntity
8
vector
6
ByLayer
62
256
370
-1
100
AcDbCircle
10
20.47
20
11.8854997596
40
0.072
0
CIRCLE
5
7F
100
AcDbEntity
8
vector
6
ByLayer
62
256
370
-1
100
AcDbCircle
10
23.058
20
9.29749975961
40
0.072
0
CIRCLE
5
80
100
AcDbEntity
8
vector
6
ByLayer
62
256
370
-1
100
AcDbCircle
10
23.058
20
3.29749975961
40
0.072
0
CIRCLE
5
81
100
AcDbEntity
8
vector
6
ByLayer
62
256
370
-1
100
AcDbCircle
10
11.882
20
3.29749975961
40
0.072
0
CIRCLE
5
82
100
AcDbEntity
8
vector
6
ByLayer
62
256
370
-1
100
AcDbCircle
10
14.47
20
0.709499759611
40
0.072
0
CIRCLE
5
83
100
AcDbEntity
8
vector
6
ByLayer
62
256
370
-1
100
AcDbCircle
10
20.47
20
0.709499759611
40
0.072
0
ARC
5
84
100
AcDbEntity
8
vector
6
ByLayer
62
256
370
-1
100
AcDbCircle
10
11.2825
20
0.359999759611
40
0.0625
100
AcDbArc
50
180
51
270
0
LINE
5
85
100
AcDbEntity
8
vector
6
ByLayer
62
256
370
-1
100
AcDbLine
10
11.22
20
12.2349997596
11
11.22
21
0.359999759611
0
ARC
5
86
100
AcDbEntity
8
vector
6
ByLayer
62
256
370
-1
100
AcDbCircle
10
11.2825
20
12.2349997596
40
0.0625
100
AcDbArc
50
90
51
180
0
LINE
5
87
100
AcDbEntity
8
vector
6
ByLayer
62
256
370
-1
100
AcDbLine
10
23.6575
20
12.2974997596
11
11.2825
21
12.2974997596
0
ARC
5
88
100
AcDbEntity
8
vector
6
ByLayer
62
256
370
-1
100
AcDbCircle
10
23.6575
20
12.2349997596
40
0.0625
100
AcDbArc
50
0
51
90
0
LINE
5
89
100
AcDbEntity
8
vector
6
ByLayer
62
256
370
-1
100
AcDbLine
10
11.2825
20
0.297499759611
11
23.6575
21
0.297499759611
0
LINE
5
8A
100
AcDbEntity
8
vector
6
ByLayer
62
256
370
-1
100
AcDbLine
10
23.72
20
0.359999759611
11
23.72
21
12.2349997596
0
ARC
5
8B
100
AcDbEntity
8
vector
6
ByLayer
62
256
370
-1
100
AcDbCircle
10
23.6575
20
0.359999759611
40
0.0625
100
AcDbArc
50
270
51
0
0
CIRCLE
5
8C
100
AcDbEntity
8
vector
6
ByLayer
62
256
370
-1
100
AcDbCircle
10
3.16
20
12.9094997596
40
0.072
0
CIRCLE
5
8D
100
AcDbEntity
8
vector
6
ByLayer
62
256
370
-1
100
AcDbCircle
10
9.16
20
12.9094997596
40
0.072
0
ARC
5
8E
100
AcDbEntity
8
vector
6
ByLayer
62
256
370
-1
100
AcDbCircle
10
0.2225
20
12.5599997596
40
0.0625
100
AcDbArc
50
180
51
270
0
LINE
5
8F
100
AcDbEntity
8
vector
6
ByLayer
62
256
370
-1
100
AcDbLine
10
0.2225
20
12.4974997596
11
12.0975
21
12.4974997596
0
ARC
5
90
100
AcDbEntity
8
vector
6
ByLayer
62
256
370
-1
100
AcDbCircle
10
12.0975
20
12.5599997596
40
0.0625
100
AcDbArc
50
270
51
360
0
CIRCLE
5
91
100
AcDbEntity
8
vector
6
ByLayer
62
256
370
-1
100
AcDbCircle
10
3.16
20
21.0854997596
40
0.072
0
CIRCLE
5
92
100
AcDbEntity
8
vector
6
ByLayer
62
256
370
-1
100
AcDbCircle
10
9.16
20
21.0854997596
40
0.072
0
ARC
5
93
100
AcDbEntity
8
vector
6
ByLayer
62
256
370
-1
100
AcDbCircle
10
0.2225
20
21.4349997596
40
0.0625
100
AcDbArc
50
90
51
180
0
LINE
5
94
100
AcDbEntity
8
vector
6
ByLayer
62
256
370
-1
100
AcDbLine
10
12.0975
20
21.4974997596
11
0.2225
21
21.4974997596
0
ARC
5
95
100
AcDbEntity
8
vector
6
ByLayer
62
256
370
-1
100
AcDbCircle
10
12.0975
20
21.4349997596
40
0.0625
100
AcDbArc
50
360
51
90
0
LINE
5
96
100
AcDbEntity
8
vector
6
ByLayer
62
256
370
-1
100
AcDbLine
10
0.16
20
12.5599997596
11
0.16
21
21.4349997596
0
LINE
5
97
100
AcDbEntity
8
vector
6
ByLayer
62
256
370
-1
100
AcDbLine
10
12.16
20
12.5599997596
11
12.16
21
21.4349997596
0
CIRCLE
5
98
100
AcDbEntity
8
vector
6
ByLayer
62
256
370
-1
100
AcDbCircle
10
0.572
20
14.7474997596
40
0.072
0
CIRCLE
5
99
100
AcDbEntity
8
vector
6
ByLayer
62
256
370
-1
100
AcDbCircle
10
11.748
20
14.7474997596
40
0.072
0
CIRCLE
5
9A
100
AcDbEntity
8
vector
6
ByLayer
62
256
370
-1
100
AcDbCircle
10
0.572
20
19.2474997596
40
0.072
0
CIRCLE
5
9B
100
AcDbEntity
8
vector
6
ByLayer
62
256
370
-1
100
AcDbCircle
10
11.748
20
19.2474997596
40
0.072
0
CIRCLE
5
9C
100
AcDbEntity
8
vector
6
ByLayer
62
256
370
-1
100
AcDbCircle
10
6.16
20
13.0474997596
40
0.1155
0
ENDSEC
0
SECTION
2
OBJECTS
0
DICTIONARY
5
C
330
0
100
AcDbDictionary
281
1
3
ACAD_GROUP
350
D
0
DICTIONARY
5
D
330
C
100
AcDbDictionary
281
1
0
ENDSEC
0
EOF
